M48
; DRILL file {KiCad 9.0.3} date 2026-04-11T12:09:18+0530
; FORMAT={-:-/ absolute / metric / decimal}
; #@! TF.CreationDate,2026-04-11T12:09:18+05:30
; #@! TF.GenerationSoftware,Kicad,Pcbnew,9.0.3
; #@! TF.FileFunction,Plated,1,2,PTH
FMAT,2
METRIC
; #@! TA.AperFunction,Plated,PTH,ViaDrill
T1C0.457
; #@! TA.AperFunction,Plated,PTH,ComponentDrill
T2C0.700
; #@! TA.AperFunction,Plated,PTH,ComponentDrill
T3C0.800
; #@! TA.AperFunction,Plated,PTH,ComponentDrill
T4C0.900
; #@! TA.AperFunction,Plated,PTH,ComponentDrill
T5C1.000
%
G90
G05
T1
X88.138Y-110.998
X99.314Y-98.552
T2
X71.628Y-70.612
X71.628Y-75.692
X102.108Y-105.918
X102.108Y-110.998
X104.648Y-101.346
X109.728Y-101.346
X118.413Y-97.222
X118.413Y-102.302
T3
X106.172Y-94.488
X108.712Y-94.488
T4
X66.802Y-72.136
X66.802Y-74.676
X108.204Y-106.934
X108.204Y-109.474
X117.397Y-90.364
X117.397Y-92.904
T5
X66.802Y-98.806
X68.326Y-83.566
X68.326Y-86.106
X68.326Y-88.646
X68.326Y-91.186
X69.342Y-98.806
X76.12Y-83.666
X76.12Y-86.166
X76.12Y-88.766
X76.12Y-91.266
X76.12Y-93.766
X76.12Y-96.366
X76.12Y-98.866
X76.22Y-71.066
X76.22Y-73.466
X76.22Y-76.066
X76.22Y-78.566
X76.22Y-80.966
X96.42Y-70.866
X96.42Y-106.466
X96.42Y-108.966
X96.52Y-73.466
X96.52Y-75.966
X96.52Y-78.466
X96.52Y-81.066
X96.52Y-83.566
X96.52Y-86.166
X96.52Y-88.666
X96.52Y-91.166
X96.52Y-93.766
X96.52Y-96.266
X96.52Y-98.866
X96.52Y-101.366
X96.52Y-103.866
X103.393Y-79.756
X105.933Y-79.756
X108.473Y-79.756
X122.731Y-80.458
X122.731Y-83.144
X122.731Y-85.829
X122.731Y-88.515
X122.731Y-91.201
X122.731Y-93.887
X122.731Y-96.572
X122.731Y-99.258
X145.331Y-80.458
X145.331Y-83.144
X145.331Y-85.829
X145.331Y-88.515
X145.331Y-91.201
X145.331Y-93.887
X145.331Y-96.572
X145.331Y-99.258
X152.449Y-99.799
X152.449Y-102.339
X152.703Y-83.289
X152.703Y-85.829
X152.703Y-88.369
M30
