%TF.GenerationSoftware,KiCad,Pcbnew,9.0.3*%
%TF.CreationDate,2026-04-11T12:09:20+05:30*%
%TF.ProjectId,hh3.0,6868332e-302e-46b6-9963-61645f706362,rev?*%
%TF.SameCoordinates,Original*%
%TF.FileFunction,Copper,L1,Top*%
%TF.FilePolarity,Positive*%
%FSLAX46Y46*%
G04 Gerber Fmt 4.6, Leading zero omitted, Abs format (unit mm)*
G04 Created by KiCad (PCBNEW 9.0.3) date 2026-04-11 12:09:20*
%MOMM*%
%LPD*%
G01*
G04 APERTURE LIST*
%TA.AperFunction,ComponentPad*%
%ADD10R,1.700000X1.700000*%
%TD*%
%TA.AperFunction,ComponentPad*%
%ADD11C,1.700000*%
%TD*%
%TA.AperFunction,ComponentPad*%
%ADD12R,1.800000X1.800000*%
%TD*%
%TA.AperFunction,ComponentPad*%
%ADD13C,1.800000*%
%TD*%
%TA.AperFunction,ComponentPad*%
%ADD14C,1.400000*%
%TD*%
%TA.AperFunction,ComponentPad*%
%ADD15O,1.700000X1.700000*%
%TD*%
%TA.AperFunction,ComponentPad*%
%ADD16C,1.600000*%
%TD*%
%TA.AperFunction,ViaPad*%
%ADD17C,0.914400*%
%TD*%
%TA.AperFunction,Conductor*%
%ADD18C,0.254000*%
%TD*%
G04 APERTURE END LIST*
D10*
%TO.P,J7,1,Pin_1*%
%TO.N,GND1*%
X152703000Y-88369429D03*
D11*
%TO.P,J7,2,Pin_2*%
%TO.N,+3V0*%
X152703000Y-85829429D03*
%TO.P,J7,3,Pin_3*%
%TO.N,/dht_data*%
X152703000Y-83289429D03*
%TD*%
D12*
%TO.P,D2,1,K*%
%TO.N,GND1*%
X117397000Y-90364000D03*
D13*
%TO.P,D2,2,A*%
%TO.N,Net-(D2-A)*%
X117397000Y-92904000D03*
%TD*%
D11*
%TO.P,U2,16,GPIO16*%
%TO.N,/dht_data*%
X145331000Y-83143714D03*
%TO.P,U2,15,GPIO0*%
%TO.N,unconnected-(U2-GPIO0-Pad15)*%
X145331000Y-85829429D03*
%TO.P,U2,14,GND*%
%TO.N,GND1*%
X145331000Y-88515143D03*
%TO.P,U2,13,VCC*%
%TO.N,Net-(U2-VCC)*%
X145331000Y-91200857D03*
%TO.P,U2,12,UOR*%
%TO.N,unconnected-(U2-UOR-Pad12)*%
X145331000Y-93886571D03*
%TO.P,U2,11,UOT*%
%TO.N,unconnected-(U2-UOT-Pad11)*%
X145331000Y-96572286D03*
D10*
%TO.P,U2,10,GND*%
%TO.N,unconnected-(U2-GND-Pad10)*%
X145331000Y-99258000D03*
%TO.P,U2,9,GPIO4*%
%TO.N,unconnected-(U2-GPIO4-Pad9)*%
X122731000Y-99258000D03*
D11*
%TO.P,U2,8,GPIO2*%
%TO.N,unconnected-(U2-GPIO2-Pad8)*%
X122731000Y-96572286D03*
%TO.P,U2,7,GPIO14*%
%TO.N,unconnected-(U2-GPIO14-Pad7)*%
X122731000Y-93886571D03*
%TO.P,U2,6,GPIO15*%
%TO.N,unconnected-(U2-GPIO15-Pad6)*%
X122731000Y-91200857D03*
%TO.P,U2,5,GPIO13*%
%TO.N,unconnected-(U2-GPIO13-Pad5)*%
X122731000Y-88515143D03*
%TO.P,U2,4,GPIO12*%
%TO.N,unconnected-(U2-GPIO12-Pad4)*%
X122731000Y-85829429D03*
%TO.P,U2,3,GND*%
%TO.N,GND1*%
X122731000Y-83143714D03*
%TO.P,U2,2,5V*%
%TO.N,unconnected-(U2-5V-Pad2)*%
X122731000Y-80458000D03*
%TO.P,U2,1,3.3V*%
%TO.N,+3V0*%
X145331000Y-80458000D03*
%TD*%
D14*
%TO.P,R4,1*%
%TO.N,+3V0*%
X118413000Y-102302000D03*
%TO.P,R4,2*%
%TO.N,Net-(D2-A)*%
X118413000Y-97222000D03*
%TD*%
D10*
%TO.P,powerjump2,1,Pin_1*%
%TO.N,Net-(U2-VCC)*%
X152449000Y-99799429D03*
D11*
%TO.P,powerjump2,2,Pin_2*%
%TO.N,+BATT*%
X152449000Y-102339429D03*
%TD*%
D10*
%TO.P,U1,1,SCL*%
%TO.N,unconnected-(U1-SCL-Pad1)*%
X76220000Y-71066000D03*
D15*
%TO.P,U1,2,SDA*%
%TO.N,unconnected-(U1-SDA-Pad2)*%
X76220000Y-73466000D03*
%TO.P,U1,3,D8*%
%TO.N,/d8*%
X76220000Y-76066000D03*
%TO.P,U1,4,D9*%
%TO.N,/dht_data_c3*%
X76220000Y-78566000D03*
%TO.P,U1,5,NC*%
%TO.N,unconnected-(U1-NC-Pad5)*%
X76220000Y-80966000D03*
%TO.P,U1,6,D3*%
%TO.N,/soil*%
X76120000Y-83666000D03*
%TO.P,U1,7,D2*%
%TO.N,/ldr*%
X76120000Y-86166000D03*
%TO.P,U1,8,D1*%
%TO.N,unconnected-(U1-D1-Pad8)*%
X76120000Y-88766000D03*
%TO.P,U1,9,D0*%
%TO.N,unconnected-(U1-D0-Pad9)*%
X76120000Y-91266000D03*
%TO.P,U1,10,USB*%
%TO.N,unconnected-(U1-USB-Pad10)*%
X76120000Y-93766000D03*
%TO.P,U1,11,RST*%
%TO.N,unconnected-(U1-RST-Pad11)*%
X76120000Y-96366000D03*
D11*
%TO.P,U1,12,BAT*%
%TO.N,Net-(U1-BAT)*%
X76120000Y-98866000D03*
%TO.P,U1,13,RST*%
%TO.N,unconnected-(U1-RST-Pad13)*%
X96420000Y-108966000D03*
D15*
%TO.P,U1,14,3V3*%
%TO.N,unconnected-(U1-3V3-Pad14)*%
X96420000Y-106466000D03*
%TO.P,U1,15,3V3*%
%TO.N,+3.3V*%
X96520000Y-103866000D03*
%TO.P,U1,16,GND*%
%TO.N,GND*%
X96520000Y-101366000D03*
%TO.P,U1,17,A0*%
%TO.N,unconnected-(U1-A0-Pad17)*%
X96520000Y-98866000D03*
%TO.P,U1,18,A1*%
%TO.N,unconnected-(U1-A1-Pad18)*%
X96520000Y-96266000D03*
%TO.P,U1,19,A2*%
%TO.N,unconnected-(U1-A2-Pad19)*%
X96520000Y-93766000D03*
%TO.P,U1,20,A3*%
%TO.N,unconnected-(U1-A3-Pad20)*%
X96520000Y-91166000D03*
%TO.P,U1,21,D-*%
%TO.N,unconnected-(U1-D--Pad21)*%
X96520000Y-88666000D03*
%TO.P,U1,22,D+*%
%TO.N,unconnected-(U1-D+-Pad22)*%
X96520000Y-86166000D03*
%TO.P,U1,23,SCK*%
%TO.N,unconnected-(U1-SCK-Pad23)*%
X96520000Y-83566000D03*
%TO.P,U1,24,MO*%
%TO.N,unconnected-(U1-MO-Pad24)*%
X96520000Y-81066000D03*
%TO.P,U1,25,MI*%
%TO.N,unconnected-(U1-MI-Pad25)*%
X96520000Y-78466000D03*
%TO.P,U1,26,RX*%
%TO.N,unconnected-(U1-RX-Pad26)*%
X96520000Y-75966000D03*
%TO.P,U1,27,TX*%
%TO.N,unconnected-(U1-TX-Pad27)*%
X96520000Y-73466000D03*
%TO.P,U1,28,GND*%
%TO.N,GND*%
X96420000Y-70866000D03*
%TD*%
D12*
%TO.P,D3,1,K*%
%TO.N,GND*%
X66802000Y-74676000D03*
D13*
%TO.P,D3,2,A*%
%TO.N,Net-(D3-A)*%
X66802000Y-72136000D03*
%TD*%
D14*
%TO.P,R5,1*%
%TO.N,/d8*%
X71628000Y-75692000D03*
%TO.P,R5,2*%
%TO.N,Net-(D3-A)*%
X71628000Y-70612000D03*
%TD*%
D10*
%TO.P,J6,1,Pin_1*%
%TO.N,/soil*%
X68326000Y-83566000D03*
D11*
%TO.P,J6,2,Pin_2*%
%TO.N,unconnected-(J6-Pin_2-Pad2)*%
X68326000Y-86106000D03*
%TO.P,J6,3,Pin_3*%
%TO.N,GND*%
X68326000Y-88646000D03*
%TO.P,J6,4,Pin_4*%
%TO.N,+3.3V*%
X68326000Y-91186000D03*
%TD*%
D10*
%TO.P,powerjump1,1,Pin_1*%
%TO.N,Net-(U1-BAT)*%
X69342000Y-98806000D03*
D11*
%TO.P,powerjump1,2,Pin_2*%
%TO.N,VCC*%
X66802000Y-98806000D03*
%TD*%
D12*
%TO.P,D1,1,K*%
%TO.N,GND*%
X108204000Y-109474000D03*
D13*
%TO.P,D1,2,A*%
%TO.N,Net-(D1-A)*%
X108204000Y-106934000D03*
%TD*%
D14*
%TO.P,R3,1*%
%TO.N,VCC*%
X102108000Y-110998000D03*
%TO.P,R3,2*%
%TO.N,Net-(D1-A)*%
X102108000Y-105918000D03*
%TD*%
D16*
%TO.P,R1,1*%
%TO.N,+3.3V*%
X106172000Y-94488000D03*
%TO.P,R1,2*%
%TO.N,/ldr*%
X108712000Y-94488000D03*
%TD*%
D10*
%TO.P,J5,1,Pin_1*%
%TO.N,GND*%
X103393000Y-79756000D03*
D11*
%TO.P,J5,2,Pin_2*%
%TO.N,+3.3V*%
X105933000Y-79756000D03*
%TO.P,J5,3,Pin_3*%
%TO.N,/dht_data_c3*%
X108473000Y-79756000D03*
%TD*%
D14*
%TO.P,R2,1*%
%TO.N,/ldr*%
X109728000Y-101346000D03*
%TO.P,R2,2*%
%TO.N,GND*%
X104648000Y-101346000D03*
%TD*%
D17*
%TO.N,GND*%
X99314000Y-98552000D03*
%TO.N,VCC*%
X88138000Y-110998000D03*
%TD*%
D18*
%TO.N,GND*%
X99314000Y-98572000D02*
X99314000Y-98552000D01*
X96520000Y-101366000D02*
X99314000Y-98572000D01*
%TO.N,+3.3V*%
X83641000Y-94944000D02*
X92463000Y-103766000D01*
X72084000Y-94944000D02*
X83641000Y-94944000D01*
X68326000Y-91186000D02*
X72084000Y-94944000D01*
X92463000Y-103766000D02*
X96420000Y-103766000D01*
%TO.N,Net-(U2-VCC)*%
X152449000Y-99799429D02*
X152449000Y-98318857D01*
%TO.N,/dht_data*%
X152703000Y-83289429D02*
X145476715Y-83289429D01*
%TO.N,Net-(U2-VCC)*%
X152449000Y-98318857D02*
X145331000Y-91200857D01*
%TO.N,Net-(D2-A)*%
X118413000Y-93920000D02*
X118413000Y-97222000D01*
%TO.N,/dht_data*%
X145476715Y-83289429D02*
X145331000Y-83143714D01*
%TO.N,Net-(D2-A)*%
X117397000Y-92904000D02*
X118413000Y-93920000D01*
%TO.N,Net-(D3-A)*%
X68326000Y-70612000D02*
X71628000Y-70612000D01*
X66802000Y-72136000D02*
X68326000Y-70612000D01*
%TO.N,/d8*%
X75846000Y-75692000D02*
X76220000Y-76066000D01*
X71628000Y-75692000D02*
X75846000Y-75692000D01*
%TO.N,/soil*%
X76020000Y-83566000D02*
X76120000Y-83666000D01*
X68326000Y-83566000D02*
X76020000Y-83566000D01*
%TO.N,/dht_data_c3*%
X77570000Y-77216000D02*
X76220000Y-78566000D01*
X105933000Y-77216000D02*
X77570000Y-77216000D01*
X108473000Y-79756000D02*
X105933000Y-77216000D01*
%TO.N,/ldr*%
X109728000Y-95504000D02*
X108712000Y-94488000D01*
X109728000Y-101346000D02*
X109728000Y-95504000D01*
%TO.N,+3.3V*%
X106172000Y-79995000D02*
X105933000Y-79756000D01*
X106172000Y-94488000D02*
X106172000Y-79995000D01*
X105898000Y-94488000D02*
X106172000Y-94488000D01*
X96520000Y-103866000D02*
X105898000Y-94488000D01*
X96420000Y-103966000D02*
X96520000Y-103866000D01*
%TO.N,Net-(U1-BAT)*%
X76060000Y-98806000D02*
X76120000Y-98866000D01*
X69342000Y-98806000D02*
X76060000Y-98806000D01*
%TO.N,VCC*%
X79121000Y-111125000D02*
X88138000Y-111125000D01*
X66802000Y-98806000D02*
X79121000Y-111125000D01*
%TO.N,Net-(D1-A)*%
X107188000Y-105918000D02*
X108204000Y-106934000D01*
X102108000Y-105918000D02*
X107188000Y-105918000D01*
%TD*%
%TA.AperFunction,Conductor*%
%TO.N,GND*%
G36*
X95198631Y-77863185D02*
G01*
X95244386Y-77915989D01*
X95254330Y-77985147D01*
X95249523Y-78005818D01*
X95202753Y-78149759D01*
X95169500Y-78359713D01*
X95169500Y-78572286D01*
X95185338Y-78672287D01*
X95202754Y-78782243D01*
X95233285Y-78876208D01*
X95268444Y-78984414D01*
X95364951Y-79173820D01*
X95489890Y-79345786D01*
X95640213Y-79496109D01*
X95777854Y-79596109D01*
X95812184Y-79621051D01*
X95865228Y-79648078D01*
X95879823Y-79655515D01*
X95930619Y-79703490D01*
X95947414Y-79771311D01*
X95924876Y-79837446D01*
X95879823Y-79876485D01*
X95812180Y-79910951D01*
X95640213Y-80035890D01*
X95489890Y-80186213D01*
X95364951Y-80358179D01*
X95268444Y-80547585D01*
X95202753Y-80749760D01*
X95169500Y-80959713D01*
X95169500Y-81172286D01*
X95202753Y-81382239D01*
X95268444Y-81584414D01*
X95364951Y-81773820D01*
X95489890Y-81945786D01*
X95640209Y-82096105D01*
X95640214Y-82096109D01*
X95804793Y-82215682D01*
X95847459Y-82271011D01*
X95853438Y-82340625D01*
X95820833Y-82402420D01*
X95804793Y-82416318D01*
X95640214Y-82535890D01*
X95640209Y-82535894D01*
X95489890Y-82686213D01*
X95364951Y-82858179D01*
X95268444Y-83047585D01*
X95202753Y-83249760D01*
X95169500Y-83459713D01*
X95169500Y-83672286D01*
X95202753Y-83882239D01*
X95268444Y-84084414D01*
X95364951Y-84273820D01*
X95489890Y-84445786D01*
X95640213Y-84596109D01*
X95777854Y-84696109D01*
X95812184Y-84721051D01*
X95855919Y-84743335D01*
X95879823Y-84755515D01*
X95930619Y-84803490D01*
X95947414Y-84871311D01*
X95924876Y-84937446D01*
X95879823Y-84976485D01*
X95812180Y-85010951D01*
X95640213Y-85135890D01*
X95489890Y-85286213D01*
X95364951Y-85458179D01*
X95268444Y-85647585D01*
X95202753Y-85849760D01*
X95169500Y-86059713D01*
X95169500Y-86272286D01*
X95201629Y-86475145D01*
X95202754Y-86482243D01*
X95248948Y-86624414D01*
X95268444Y-86684414D01*
X95364951Y-86873820D01*
X95489890Y-87045786D01*
X95640209Y-87196105D01*
X95640214Y-87196109D01*
X95804793Y-87315682D01*
X95847459Y-87371011D01*
X95853438Y-87440625D01*
X95820833Y-87502420D01*
X95804793Y-87516318D01*
X95640214Y-87635890D01*
X95640209Y-87635894D01*
X95489890Y-87786213D01*
X95364951Y-87958179D01*
X95268444Y-88147585D01*
X95202753Y-88349760D01*
X95169500Y-88559713D01*
X95169500Y-88772286D01*
X95185338Y-88872287D01*
X95202754Y-88982243D01*
X95261881Y-89164217D01*
X95268444Y-89184414D01*
X95364951Y-89373820D01*
X95489890Y-89545786D01*
X95640209Y-89696105D01*
X95640214Y-89696109D01*
X95804793Y-89815682D01*
X95847459Y-89871011D01*
X95853438Y-89940625D01*
X95820833Y-90002420D01*
X95804793Y-90016318D01*
X95640214Y-90135890D01*
X95640209Y-90135894D01*
X95489890Y-90286213D01*
X95364951Y-90458179D01*
X95268444Y-90647585D01*
X95202753Y-90849760D01*
X95169500Y-91059713D01*
X95169500Y-91272286D01*
X95185338Y-91372287D01*
X95202754Y-91482243D01*
X95237107Y-91587971D01*
X95268444Y-91684414D01*
X95364951Y-91873820D01*
X95489890Y-92045786D01*
X95640213Y-92196109D01*
X95777854Y-92296109D01*
X95812184Y-92321051D01*
X95865228Y-92348078D01*
X95879823Y-92355515D01*
X95930619Y-92403490D01*
X95947414Y-92471311D01*
X95924876Y-92537446D01*
X95879823Y-92576485D01*
X95812180Y-92610951D01*
X95640213Y-92735890D01*
X95489890Y-92886213D01*
X95364951Y-93058179D01*
X95268444Y-93247585D01*
X95202753Y-93449760D01*
X95195424Y-93496034D01*
X95169500Y-93659713D01*
X95169500Y-93872287D01*
X95202754Y-94082243D01*
X95268262Y-94283856D01*
X95268444Y-94284414D01*
X95364951Y-94473820D01*
X95489890Y-94645786D01*
X95640209Y-94796105D01*
X95640214Y-94796109D01*
X95804793Y-94915682D01*
X95847459Y-94971011D01*
X95853438Y-95040625D01*
X95820833Y-95102420D01*
X95804793Y-95116318D01*
X95640214Y-95235890D01*
X95640209Y-95235894D01*
X95489890Y-95386213D01*
X95364951Y-95558179D01*
X95268444Y-95747585D01*
X95202753Y-95949760D01*
X95169500Y-96159713D01*
X95169500Y-96372286D01*
X95202753Y-96582239D01*
X95268444Y-96784414D01*
X95364951Y-96973820D01*
X95489890Y-97145786D01*
X95640213Y-97296109D01*
X95777854Y-97396109D01*
X95812184Y-97421051D01*
X95865228Y-97448078D01*
X95879823Y-97455515D01*
X95930619Y-97503490D01*
X95947414Y-97571311D01*
X95924876Y-97637446D01*
X95879823Y-97676485D01*
X95812180Y-97710951D01*
X95640213Y-97835890D01*
X95489890Y-97986213D01*
X95364951Y-98158179D01*
X95268444Y-98347585D01*
X95202753Y-98549760D01*
X95169500Y-98759713D01*
X95169500Y-98972286D01*
X95198435Y-99154978D01*
X95202754Y-99182243D01*
X95248948Y-99324414D01*
X95268444Y-99384414D01*
X95364951Y-99573820D01*
X95489890Y-99745786D01*
X95640209Y-99896105D01*
X95640214Y-99896109D01*
X95805218Y-100015991D01*
X95847884Y-100071320D01*
X95853863Y-100140934D01*
X95821258Y-100202729D01*
X95805218Y-100216627D01*
X95640540Y-100336272D01*
X95640535Y-100336276D01*
X95490276Y-100486535D01*
X95490272Y-100486540D01*
X95365379Y-100658442D01*
X95268904Y-100847782D01*
X95203242Y-101049870D01*
X95203242Y-101049873D01*
X95192769Y-101116000D01*
X96086988Y-101116000D01*
X96054075Y-101173007D01*
X96020000Y-101300174D01*
X96020000Y-101431826D01*
X96054075Y-101558993D01*
X96086988Y-101616000D01*
X95192769Y-101616000D01*
X95203242Y-101682126D01*
X95203242Y-101682129D01*
X95268904Y-101884217D01*
X95365379Y-102073557D01*
X95490272Y-102245459D01*
X95490276Y-102245464D01*
X95640535Y-102395723D01*
X95640540Y-102395727D01*
X95805218Y-102515372D01*
X95847884Y-102570701D01*
X95853863Y-102640315D01*
X95821258Y-102702110D01*
X95805218Y-102716008D01*
X95640214Y-102835890D01*
X95640209Y-102835894D01*
X95489892Y-102986211D01*
X95416388Y-103087384D01*
X95361058Y-103130051D01*
X95316069Y-103138500D01*
X92774281Y-103138500D01*
X92707242Y-103118815D01*
X92686600Y-103102181D01*
X84041011Y-94456591D01*
X84041010Y-94456590D01*
X84026423Y-94446843D01*
X83995523Y-94426197D01*
X83938233Y-94387917D01*
X83904784Y-94374062D01*
X83824035Y-94340614D01*
X83824027Y-94340612D01*
X83702807Y-94316500D01*
X83702803Y-94316500D01*
X77531802Y-94316500D01*
X77464763Y-94296815D01*
X77419008Y-94244011D01*
X77409064Y-94174853D01*
X77413871Y-94154182D01*
X77437246Y-94082243D01*
X77470500Y-93872287D01*
X77470500Y-93659713D01*
X77437246Y-93449757D01*
X77371557Y-93247588D01*
X77275051Y-93058184D01*
X77275049Y-93058181D01*
X77275048Y-93058179D01*
X77150109Y-92886213D01*
X76999792Y-92735896D01*
X76999784Y-92735890D01*
X76835204Y-92616316D01*
X76792540Y-92560989D01*
X76786561Y-92491376D01*
X76819166Y-92429580D01*
X76835199Y-92415686D01*
X76999792Y-92296104D01*
X77150104Y-92145792D01*
X77150106Y-92145788D01*
X77150109Y-92145786D01*
X77275048Y-91973820D01*
X77275047Y-91973820D01*
X77275051Y-91973816D01*
X77371557Y-91784412D01*
X77437246Y-91582243D01*
X77470500Y-91372287D01*
X77470500Y-91159713D01*
X77437246Y-90949757D01*
X77371557Y-90747588D01*
X77275051Y-90558184D01*
X77275049Y-90558181D01*
X77275048Y-90558179D01*
X77150109Y-90386213D01*
X76999792Y-90235896D01*
X76999784Y-90235890D01*
X76835204Y-90116316D01*
X76792540Y-90060989D01*
X76786561Y-89991376D01*
X76819166Y-89929580D01*
X76835199Y-89915686D01*
X76999792Y-89796104D01*
X77150104Y-89645792D01*
X77150106Y-89645788D01*
X77150109Y-89645786D01*
X77275048Y-89473820D01*
X77275047Y-89473820D01*
X77275051Y-89473816D01*
X77371557Y-89284412D01*
X77437246Y-89082243D01*
X77470500Y-88872287D01*
X77470500Y-88659713D01*
X77437246Y-88449757D01*
X77371557Y-88247588D01*
X77275051Y-88058184D01*
X77275049Y-88058181D01*
X77275048Y-88058179D01*
X77150109Y-87886213D01*
X76999786Y-87735890D01*
X76827820Y-87610951D01*
X76760176Y-87576485D01*
X76709380Y-87528511D01*
X76692585Y-87460690D01*
X76715122Y-87394555D01*
X76760176Y-87355515D01*
X76827816Y-87321051D01*
X76903874Y-87265792D01*
X76999786Y-87196109D01*
X76999788Y-87196106D01*
X76999792Y-87196104D01*
X77150104Y-87045792D01*
X77150106Y-87045788D01*
X77150109Y-87045786D01*
X77275048Y-86873820D01*
X77275047Y-86873820D01*
X77275051Y-86873816D01*
X77371557Y-86684412D01*
X77437246Y-86482243D01*
X77470500Y-86272287D01*
X77470500Y-86059713D01*
X77437246Y-85849757D01*
X77371557Y-85647588D01*
X77275051Y-85458184D01*
X77275049Y-85458181D01*
X77275048Y-85458179D01*
X77150109Y-85286213D01*
X76999792Y-85135896D01*
X76967828Y-85112673D01*
X76835204Y-85016316D01*
X76792540Y-84960989D01*
X76786561Y-84891376D01*
X76819166Y-84829580D01*
X76835199Y-84815686D01*
X76999792Y-84696104D01*
X77150104Y-84545792D01*
X77150106Y-84545788D01*
X77150109Y-84545786D01*
X77275048Y-84373820D01*
X77275050Y-84373817D01*
X77275051Y-84373816D01*
X77371557Y-84184412D01*
X77437246Y-83982243D01*
X77470500Y-83772287D01*
X77470500Y-83559713D01*
X77437246Y-83349757D01*
X77371557Y-83147588D01*
X77275051Y-82958184D01*
X77275049Y-82958181D01*
X77275048Y-82958179D01*
X77150109Y-82786213D01*
X76999786Y-82635890D01*
X76827819Y-82510951D01*
X76827818Y-82510950D01*
X76827816Y-82510949D01*
X76755586Y-82474146D01*
X76708135Y-82449968D01*
X76657339Y-82401993D01*
X76640544Y-82334172D01*
X76663082Y-82268037D01*
X76717797Y-82224586D01*
X76726087Y-82221561D01*
X76738412Y-82217557D01*
X76927816Y-82121051D01*
X76962146Y-82096109D01*
X77099786Y-81996109D01*
X77099788Y-81996106D01*
X77099792Y-81996104D01*
X77250104Y-81845792D01*
X77250106Y-81845788D01*
X77250109Y-81845786D01*
X77375048Y-81673820D01*
X77375047Y-81673820D01*
X77375051Y-81673816D01*
X77471557Y-81484412D01*
X77537246Y-81282243D01*
X77570500Y-81072287D01*
X77570500Y-80859713D01*
X77537246Y-80649757D01*
X77471557Y-80447588D01*
X77375051Y-80258184D01*
X77375049Y-80258181D01*
X77375048Y-80258179D01*
X77250109Y-80086213D01*
X77099792Y-79935896D01*
X77018019Y-79876485D01*
X77004024Y-79866317D01*
X76961360Y-79810989D01*
X76955381Y-79741376D01*
X76987986Y-79679580D01*
X77004025Y-79665682D01*
X77099792Y-79596104D01*
X77250104Y-79445792D01*
X77250106Y-79445788D01*
X77250109Y-79445786D01*
X77375048Y-79273820D01*
X77375047Y-79273820D01*
X77375051Y-79273816D01*
X77471557Y-79084412D01*
X77537246Y-78882243D01*
X77570500Y-78672287D01*
X77570500Y-78459713D01*
X77537246Y-78249757D01*
X77532872Y-78236298D01*
X77530874Y-78166459D01*
X77563118Y-78110300D01*
X77793601Y-77879816D01*
X77854923Y-77846334D01*
X77881281Y-77843500D01*
X95131592Y-77843500D01*
X95198631Y-77863185D01*
G37*
%TD.AperFunction*%
%TA.AperFunction,Conductor*%
G36*
X105688758Y-77863185D02*
G01*
X105709400Y-77879819D01*
X106023400Y-78193819D01*
X106056885Y-78255142D01*
X106051901Y-78324834D01*
X106010029Y-78380767D01*
X105944565Y-78405184D01*
X105935719Y-78405500D01*
X105826713Y-78405500D01*
X105780137Y-78412877D01*
X105616760Y-78438753D01*
X105414585Y-78504444D01*
X105225179Y-78600951D01*
X105053215Y-78725889D01*
X104939285Y-78839819D01*
X104877962Y-78873303D01*
X104808270Y-78868319D01*
X104752337Y-78826447D01*
X104735422Y-78795470D01*
X104686354Y-78663913D01*
X104686350Y-78663906D01*
X104600190Y-78548812D01*
X104600187Y-78548809D01*
X104485093Y-78462649D01*
X104485086Y-78462645D01*
X104350379Y-78412403D01*
X104350372Y-78412401D01*
X104290844Y-78406000D01*
X103643000Y-78406000D01*
X103643000Y-79322988D01*
X103585993Y-79290075D01*
X103458826Y-79256000D01*
X103327174Y-79256000D01*
X103200007Y-79290075D01*
X103143000Y-79322988D01*
X103143000Y-78406000D01*
X102495155Y-78406000D01*
X102435627Y-78412401D01*
X102435620Y-78412403D01*
X102300913Y-78462645D01*
X102300906Y-78462649D01*
X102185812Y-78548809D01*
X102185809Y-78548812D01*
X102099649Y-78663906D01*
X102099645Y-78663913D01*
X102049403Y-78798620D01*
X102049401Y-78798627D01*
X102043000Y-78858155D01*
X102043000Y-79506000D01*
X102959988Y-79506000D01*
X102927075Y-79563007D01*
X102893000Y-79690174D01*
X102893000Y-79821826D01*
X102927075Y-79948993D01*
X102959988Y-80006000D01*
X102043000Y-80006000D01*
X102043000Y-80653844D01*
X102049401Y-80713372D01*
X102049403Y-80713379D01*
X102099645Y-80848086D01*
X102099649Y-80848093D01*
X102185809Y-80963187D01*
X102185812Y-80963190D01*
X102300906Y-81049350D01*
X102300913Y-81049354D01*
X102435620Y-81099596D01*
X102435627Y-81099598D01*
X102495155Y-81105999D01*
X102495172Y-81106000D01*
X103143000Y-81106000D01*
X103143000Y-80189012D01*
X103200007Y-80221925D01*
X103327174Y-80256000D01*
X103458826Y-80256000D01*
X103585993Y-80221925D01*
X103643000Y-80189012D01*
X103643000Y-81106000D01*
X104290828Y-81106000D01*
X104290844Y-81105999D01*
X104350372Y-81099598D01*
X104350379Y-81099596D01*
X104485086Y-81049354D01*
X104485093Y-81049350D01*
X104600187Y-80963190D01*
X104600190Y-80963187D01*
X104686350Y-80848093D01*
X104686354Y-80848086D01*
X104735422Y-80716529D01*
X104777293Y-80660595D01*
X104842757Y-80636178D01*
X104911030Y-80651030D01*
X104939285Y-80672181D01*
X105053213Y-80786109D01*
X105225179Y-80911048D01*
X105225181Y-80911049D01*
X105225184Y-80911051D01*
X105414588Y-81007557D01*
X105458818Y-81021928D01*
X105516494Y-81061366D01*
X105543692Y-81125724D01*
X105544500Y-81139859D01*
X105544500Y-93273218D01*
X105524815Y-93340257D01*
X105493385Y-93373536D01*
X105324787Y-93496028D01*
X105324782Y-93496032D01*
X105180028Y-93640786D01*
X105059715Y-93806386D01*
X104966781Y-93988776D01*
X104903522Y-94183465D01*
X104871500Y-94385648D01*
X104871500Y-94575717D01*
X104851815Y-94642756D01*
X104835181Y-94663398D01*
X97918898Y-101579681D01*
X97857575Y-101613166D01*
X97831217Y-101616000D01*
X96953012Y-101616000D01*
X96985925Y-101558993D01*
X97020000Y-101431826D01*
X97020000Y-101300174D01*
X96985925Y-101173007D01*
X96953012Y-101116000D01*
X97847231Y-101116000D01*
X97836757Y-101049873D01*
X97836757Y-101049870D01*
X97771095Y-100847782D01*
X97674620Y-100658442D01*
X97549727Y-100486540D01*
X97549723Y-100486535D01*
X97399464Y-100336276D01*
X97399459Y-100336272D01*
X97234781Y-100216627D01*
X97192115Y-100161297D01*
X97186136Y-100091684D01*
X97218741Y-100029889D01*
X97234776Y-100015994D01*
X97399792Y-99896104D01*
X97550104Y-99745792D01*
X97550106Y-99745788D01*
X97550109Y-99745786D01*
X97675048Y-99573820D01*
X97675047Y-99573820D01*
X97675051Y-99573816D01*
X97771557Y-99384412D01*
X97837246Y-99182243D01*
X97870500Y-98972287D01*
X97870500Y-98759713D01*
X97837246Y-98549757D01*
X97771557Y-98347588D01*
X97675051Y-98158184D01*
X97675049Y-98158181D01*
X97675048Y-98158179D01*
X97550109Y-97986213D01*
X97399786Y-97835890D01*
X97227820Y-97710951D01*
X97160176Y-97676485D01*
X97109380Y-97628511D01*
X97092585Y-97560690D01*
X97115122Y-97494555D01*
X97160176Y-97455515D01*
X97227816Y-97421051D01*
X97262146Y-97396109D01*
X97399786Y-97296109D01*
X97399788Y-97296106D01*
X97399792Y-97296104D01*
X97550104Y-97145792D01*
X97550106Y-97145788D01*
X97550109Y-97145786D01*
X97675048Y-96973820D01*
X97675047Y-96973820D01*
X97675051Y-96973816D01*
X97771557Y-96784412D01*
X97837246Y-96582243D01*
X97870500Y-96372287D01*
X97870500Y-96159713D01*
X97837246Y-95949757D01*
X97771557Y-95747588D01*
X97675051Y-95558184D01*
X97675049Y-95558181D01*
X97675048Y-95558179D01*
X97550109Y-95386213D01*
X97399792Y-95235896D01*
X97359691Y-95206761D01*
X97235204Y-95116316D01*
X97192540Y-95060989D01*
X97186561Y-94991376D01*
X97219166Y-94929580D01*
X97235199Y-94915686D01*
X97399792Y-94796104D01*
X97550104Y-94645792D01*
X97550106Y-94645788D01*
X97550109Y-94645786D01*
X97675048Y-94473820D01*
X97675047Y-94473820D01*
X97675051Y-94473816D01*
X97771557Y-94284412D01*
X97837246Y-94082243D01*
X97870500Y-93872287D01*
X97870500Y-93659713D01*
X97837246Y-93449757D01*
X97771557Y-93247588D01*
X97675051Y-93058184D01*
X97675049Y-93058181D01*
X97675048Y-93058179D01*
X97550109Y-92886213D01*
X97399786Y-92735890D01*
X97227820Y-92610951D01*
X97160176Y-92576485D01*
X97109380Y-92528511D01*
X97092585Y-92460690D01*
X97115122Y-92394555D01*
X97160176Y-92355515D01*
X97227816Y-92321051D01*
X97262146Y-92296109D01*
X97399786Y-92196109D01*
X97399788Y-92196106D01*
X97399792Y-92196104D01*
X97550104Y-92045792D01*
X97550106Y-92045788D01*
X97550109Y-92045786D01*
X97675048Y-91873820D01*
X97675047Y-91873820D01*
X97675051Y-91873816D01*
X97771557Y-91684412D01*
X97837246Y-91482243D01*
X97870500Y-91272287D01*
X97870500Y-91059713D01*
X97837246Y-90849757D01*
X97771557Y-90647588D01*
X97675051Y-90458184D01*
X97675049Y-90458181D01*
X97675048Y-90458179D01*
X97550109Y-90286213D01*
X97399792Y-90135896D01*
X97353716Y-90102420D01*
X97235204Y-90016316D01*
X97192540Y-89960989D01*
X97186561Y-89891376D01*
X97219166Y-89829580D01*
X97235199Y-89815686D01*
X97399792Y-89696104D01*
X97550104Y-89545792D01*
X97550106Y-89545788D01*
X97550109Y-89545786D01*
X97675048Y-89373820D01*
X97675047Y-89373820D01*
X97675051Y-89373816D01*
X97771557Y-89184412D01*
X97837246Y-88982243D01*
X97870500Y-88772287D01*
X97870500Y-88559713D01*
X97837246Y-88349757D01*
X97771557Y-88147588D01*
X97675051Y-87958184D01*
X97675049Y-87958181D01*
X97675048Y-87958179D01*
X97550109Y-87786213D01*
X97399792Y-87635896D01*
X97318019Y-87576485D01*
X97235204Y-87516316D01*
X97192540Y-87460989D01*
X97186561Y-87391376D01*
X97219166Y-87329580D01*
X97235199Y-87315686D01*
X97399792Y-87196104D01*
X97550104Y-87045792D01*
X97550106Y-87045788D01*
X97550109Y-87045786D01*
X97675048Y-86873820D01*
X97675047Y-86873820D01*
X97675051Y-86873816D01*
X97771557Y-86684412D01*
X97837246Y-86482243D01*
X97870500Y-86272287D01*
X97870500Y-86059713D01*
X97837246Y-85849757D01*
X97771557Y-85647588D01*
X97675051Y-85458184D01*
X97675049Y-85458181D01*
X97675048Y-85458179D01*
X97550109Y-85286213D01*
X97399786Y-85135890D01*
X97227820Y-85010951D01*
X97170329Y-84981658D01*
X97160175Y-84976484D01*
X97109380Y-84928511D01*
X97092585Y-84860690D01*
X97115122Y-84794555D01*
X97160176Y-84755515D01*
X97227816Y-84721051D01*
X97262146Y-84696109D01*
X97399786Y-84596109D01*
X97399788Y-84596106D01*
X97399792Y-84596104D01*
X97550104Y-84445792D01*
X97550106Y-84445788D01*
X97550109Y-84445786D01*
X97675048Y-84273820D01*
X97675047Y-84273820D01*
X97675051Y-84273816D01*
X97771557Y-84084412D01*
X97837246Y-83882243D01*
X97870500Y-83672287D01*
X97870500Y-83459713D01*
X97837246Y-83249757D01*
X97771557Y-83047588D01*
X97675051Y-82858184D01*
X97675049Y-82858181D01*
X97675048Y-82858179D01*
X97550109Y-82686213D01*
X97399792Y-82535896D01*
X97365455Y-82510949D01*
X97235204Y-82416316D01*
X97192540Y-82360989D01*
X97186561Y-82291376D01*
X97219166Y-82229580D01*
X97235199Y-82215686D01*
X97399792Y-82096104D01*
X97550104Y-81945792D01*
X97550106Y-81945788D01*
X97550109Y-81945786D01*
X97675048Y-81773820D01*
X97675047Y-81773820D01*
X97675051Y-81773816D01*
X97771557Y-81584412D01*
X97837246Y-81382243D01*
X97870500Y-81172287D01*
X97870500Y-80959713D01*
X97837246Y-80749757D01*
X97771557Y-80547588D01*
X97675051Y-80358184D01*
X97675049Y-80358181D01*
X97675048Y-80358179D01*
X97550109Y-80186213D01*
X97399786Y-80035890D01*
X97227820Y-79910951D01*
X97160176Y-79876485D01*
X97109380Y-79828511D01*
X97092585Y-79760690D01*
X97115122Y-79694555D01*
X97160176Y-79655515D01*
X97227816Y-79621051D01*
X97262146Y-79596109D01*
X97399786Y-79496109D01*
X97399788Y-79496106D01*
X97399792Y-79496104D01*
X97550104Y-79345792D01*
X97550106Y-79345788D01*
X97550109Y-79345786D01*
X97675048Y-79173820D01*
X97675047Y-79173820D01*
X97675051Y-79173816D01*
X97771557Y-78984412D01*
X97837246Y-78782243D01*
X97870500Y-78572287D01*
X97870500Y-78359713D01*
X97837246Y-78149757D01*
X97790476Y-78005817D01*
X97788482Y-77935977D01*
X97824562Y-77876144D01*
X97887263Y-77845316D01*
X97908408Y-77843500D01*
X105621719Y-77843500D01*
X105688758Y-77863185D01*
G37*
%TD.AperFunction*%
%TA.AperFunction,Conductor*%
G36*
X74864125Y-84213185D02*
G01*
X74907571Y-84261205D01*
X74964950Y-84373817D01*
X74964956Y-84373826D01*
X75089890Y-84545786D01*
X75240209Y-84696105D01*
X75240214Y-84696109D01*
X75404793Y-84815682D01*
X75447459Y-84871011D01*
X75453438Y-84940625D01*
X75420833Y-85002420D01*
X75404793Y-85016318D01*
X75240214Y-85135890D01*
X75240209Y-85135894D01*
X75089890Y-85286213D01*
X74964951Y-85458179D01*
X74868444Y-85647585D01*
X74802753Y-85849760D01*
X74769500Y-86059713D01*
X74769500Y-86272286D01*
X74801629Y-86475145D01*
X74802754Y-86482243D01*
X74848948Y-86624414D01*
X74868444Y-86684414D01*
X74964951Y-86873820D01*
X75089890Y-87045786D01*
X75240213Y-87196109D01*
X75336127Y-87265793D01*
X75412184Y-87321051D01*
X75465228Y-87348078D01*
X75479823Y-87355515D01*
X75530619Y-87403490D01*
X75547414Y-87471311D01*
X75524876Y-87537446D01*
X75479823Y-87576485D01*
X75412180Y-87610951D01*
X75240213Y-87735890D01*
X75089890Y-87886213D01*
X74964951Y-88058179D01*
X74868444Y-88247585D01*
X74802753Y-88449760D01*
X74782098Y-88580174D01*
X74769500Y-88659713D01*
X74769500Y-88872287D01*
X74802754Y-89082243D01*
X74812398Y-89111925D01*
X74868444Y-89284414D01*
X74964951Y-89473820D01*
X75089890Y-89645786D01*
X75240209Y-89796105D01*
X75240214Y-89796109D01*
X75404793Y-89915682D01*
X75447459Y-89971011D01*
X75453438Y-90040625D01*
X75420833Y-90102420D01*
X75404793Y-90116318D01*
X75240214Y-90235890D01*
X75240209Y-90235894D01*
X75089890Y-90386213D01*
X74964951Y-90558179D01*
X74868444Y-90747585D01*
X74802753Y-90949760D01*
X74769500Y-91159713D01*
X74769500Y-91372286D01*
X74802458Y-91580379D01*
X74802754Y-91582243D01*
X74842449Y-91704412D01*
X74868444Y-91784414D01*
X74964951Y-91973820D01*
X75089890Y-92145786D01*
X75240209Y-92296105D01*
X75240214Y-92296109D01*
X75404793Y-92415682D01*
X75447459Y-92471011D01*
X75453438Y-92540625D01*
X75420833Y-92602420D01*
X75404793Y-92616318D01*
X75240214Y-92735890D01*
X75240209Y-92735894D01*
X75089890Y-92886213D01*
X74964951Y-93058179D01*
X74868444Y-93247585D01*
X74802753Y-93449760D01*
X74769500Y-93659713D01*
X74769500Y-93872286D01*
X74802753Y-94082239D01*
X74826129Y-94154182D01*
X74828124Y-94224023D01*
X74792044Y-94283856D01*
X74729343Y-94314684D01*
X74708198Y-94316500D01*
X72395281Y-94316500D01*
X72328242Y-94296815D01*
X72307600Y-94280181D01*
X69669121Y-91641702D01*
X69635636Y-91580379D01*
X69638873Y-91515698D01*
X69643246Y-91502243D01*
X69676500Y-91292287D01*
X69676500Y-91079713D01*
X69643246Y-90869757D01*
X69577557Y-90667588D01*
X69481051Y-90478184D01*
X69481049Y-90478181D01*
X69481048Y-90478179D01*
X69356109Y-90306213D01*
X69205786Y-90155890D01*
X69033817Y-90030949D01*
X69024504Y-90026204D01*
X68973707Y-89978230D01*
X68956912Y-89910409D01*
X68979449Y-89844274D01*
X69024507Y-89805232D01*
X69033555Y-89800622D01*
X69087716Y-89761270D01*
X69087717Y-89761270D01*
X68455408Y-89128962D01*
X68518993Y-89111925D01*
X68633007Y-89046099D01*
X68726099Y-88953007D01*
X68791925Y-88838993D01*
X68808962Y-88775409D01*
X69441270Y-89407717D01*
X69441270Y-89407716D01*
X69480622Y-89353554D01*
X69577095Y-89164217D01*
X69642757Y-88962130D01*
X69642757Y-88962127D01*
X69676000Y-88752246D01*
X69676000Y-88539753D01*
X69642757Y-88329872D01*
X69642757Y-88329869D01*
X69577095Y-88127782D01*
X69480624Y-87938449D01*
X69441270Y-87884282D01*
X69441269Y-87884282D01*
X68808962Y-88516590D01*
X68791925Y-88453007D01*
X68726099Y-88338993D01*
X68633007Y-88245901D01*
X68518993Y-88180075D01*
X68455409Y-88163037D01*
X69087716Y-87530728D01*
X69033547Y-87491373D01*
X69033547Y-87491372D01*
X69024500Y-87486763D01*
X68973706Y-87438788D01*
X68956912Y-87370966D01*
X68979451Y-87304832D01*
X69024508Y-87265793D01*
X69033816Y-87261051D01*
X69123210Y-87196103D01*
X69205786Y-87136109D01*
X69205788Y-87136106D01*
X69205792Y-87136104D01*
X69356104Y-86985792D01*
X69356106Y-86985788D01*
X69356109Y-86985786D01*
X69481048Y-86813820D01*
X69481047Y-86813820D01*
X69481051Y-86813816D01*
X69577557Y-86624412D01*
X69643246Y-86422243D01*
X69676500Y-86212287D01*
X69676500Y-85999713D01*
X69643246Y-85789757D01*
X69577557Y-85587588D01*
X69481051Y-85398184D01*
X69481049Y-85398181D01*
X69481048Y-85398179D01*
X69356109Y-85226213D01*
X69242569Y-85112673D01*
X69209084Y-85051350D01*
X69214068Y-84981658D01*
X69255940Y-84925725D01*
X69286915Y-84908810D01*
X69418331Y-84859796D01*
X69533546Y-84773546D01*
X69619796Y-84658331D01*
X69670091Y-84523483D01*
X69676500Y-84463873D01*
X69676500Y-84317500D01*
X69696185Y-84250461D01*
X69748989Y-84204706D01*
X69800500Y-84193500D01*
X74797086Y-84193500D01*
X74864125Y-84213185D01*
G37*
%TD.AperFunction*%
%TA.AperFunction,Conductor*%
G36*
X110487300Y-63119528D02*
G01*
X110491507Y-63119616D01*
X110712944Y-63124286D01*
X110724187Y-63125037D01*
X110918006Y-63146878D01*
X110921860Y-63147313D01*
X110938132Y-63150256D01*
X111090652Y-63188498D01*
X111109079Y-63194690D01*
X111228780Y-63245687D01*
X111247748Y-63255794D01*
X111344621Y-63318770D01*
X111362350Y-63332747D01*
X111443531Y-63409714D01*
X111445755Y-63411822D01*
X111460591Y-63428692D01*
X111543108Y-63541736D01*
X111551697Y-63555260D01*
X111582176Y-63610898D01*
X111586689Y-63620005D01*
X111620796Y-63696577D01*
X111624371Y-63705521D01*
X111625846Y-63709673D01*
X111633000Y-63751183D01*
X111633000Y-114725064D01*
X111627033Y-114745383D01*
X111625861Y-114766532D01*
X111614442Y-114788262D01*
X111613315Y-114792103D01*
X111609444Y-114797776D01*
X111582651Y-114834788D01*
X111567038Y-114852518D01*
X111490040Y-114924739D01*
X111472676Y-114938336D01*
X111366677Y-115007074D01*
X111349248Y-115016491D01*
X111206252Y-115079557D01*
X111189936Y-115085428D01*
X111006452Y-115137281D01*
X110991854Y-115140470D01*
X110773547Y-115174546D01*
X110761122Y-115175849D01*
X110533449Y-115188166D01*
X110527252Y-115188346D01*
X110490062Y-115188496D01*
X110489446Y-115188499D01*
X110488949Y-115188500D01*
X65665357Y-115188500D01*
X65662236Y-115188461D01*
X65486315Y-115184032D01*
X65479843Y-115183699D01*
X65320671Y-115171348D01*
X65313946Y-115170642D01*
X65164267Y-115150772D01*
X65157337Y-115149651D01*
X65017397Y-115122941D01*
X65010299Y-115121369D01*
X64878145Y-115088013D01*
X64870951Y-115085965D01*
X64755188Y-115049193D01*
X64744387Y-115045201D01*
X64510749Y-114946292D01*
X64496590Y-114939200D01*
X64294028Y-114820989D01*
X64280754Y-114812047D01*
X64239394Y-114780118D01*
X64097738Y-114670762D01*
X64085862Y-114660318D01*
X63919377Y-114493936D01*
X63909236Y-114482465D01*
X63757822Y-114288235D01*
X63749560Y-114276246D01*
X63740794Y-114261775D01*
X63613493Y-114051633D01*
X63607083Y-114039605D01*
X63488232Y-113783481D01*
X63483485Y-113771705D01*
X63467800Y-113726208D01*
X63385085Y-113486277D01*
X63381777Y-113474960D01*
X63376462Y-113452941D01*
X63373000Y-113423845D01*
X63373000Y-111649401D01*
X66666700Y-111649401D01*
X66666700Y-111870598D01*
X66701304Y-112089076D01*
X66701304Y-112089079D01*
X66769656Y-112299445D01*
X66769658Y-112299448D01*
X66870080Y-112496537D01*
X67000098Y-112675491D01*
X67156509Y-112831902D01*
X67335463Y-112961920D01*
X67532552Y-113062342D01*
X67532554Y-113062343D01*
X67728775Y-113126098D01*
X67742925Y-113130696D01*
X67961401Y-113165300D01*
X67961402Y-113165300D01*
X68182598Y-113165300D01*
X68182599Y-113165300D01*
X68401075Y-113130696D01*
X68401078Y-113130695D01*
X68401079Y-113130695D01*
X68611445Y-113062343D01*
X68611445Y-113062342D01*
X68611448Y-113062342D01*
X68808537Y-112961920D01*
X68987491Y-112831902D01*
X69143902Y-112675491D01*
X69273920Y-112496537D01*
X69374342Y-112299448D01*
X69407142Y-112198500D01*
X69442695Y-112089079D01*
X69442695Y-112089078D01*
X69442696Y-112089075D01*
X69477300Y-111870599D01*
X69477300Y-111649401D01*
X69442696Y-111430925D01*
X69442695Y-111430921D01*
X69442695Y-111430920D01*
X69374343Y-111220554D01*
X69273919Y-111023462D01*
X69143902Y-110844509D01*
X68987491Y-110688098D01*
X68808537Y-110558080D01*
X68767485Y-110537163D01*
X68611445Y-110457656D01*
X68401077Y-110389304D01*
X68255424Y-110366234D01*
X68182599Y-110354700D01*
X67961401Y-110354700D01*
X67888575Y-110366234D01*
X67742923Y-110389304D01*
X67742920Y-110389304D01*
X67532554Y-110457656D01*
X67335462Y-110558080D01*
X67255625Y-110616086D01*
X67156509Y-110688098D01*
X67156507Y-110688100D01*
X67156506Y-110688100D01*
X67000100Y-110844506D01*
X67000100Y-110844507D01*
X67000098Y-110844509D01*
X66957111Y-110903675D01*
X66870080Y-111023462D01*
X66769656Y-111220554D01*
X66701304Y-111430920D01*
X66701304Y-111430923D01*
X66666700Y-111649401D01*
X63373000Y-111649401D01*
X63373000Y-98699713D01*
X65451500Y-98699713D01*
X65451500Y-98912287D01*
X65484754Y-99122243D01*
X65513320Y-99210161D01*
X65550444Y-99324414D01*
X65646951Y-99513820D01*
X65771890Y-99685786D01*
X65922213Y-99836109D01*
X66094179Y-99961048D01*
X66094181Y-99961049D01*
X66094184Y-99961051D01*
X66283588Y-100057557D01*
X66485757Y-100123246D01*
X66695713Y-100156500D01*
X66695714Y-100156500D01*
X66908286Y-100156500D01*
X66908287Y-100156500D01*
X67118243Y-100123246D01*
X67131698Y-100118873D01*
X67201535Y-100116873D01*
X67257702Y-100149121D01*
X78633589Y-111525008D01*
X78717078Y-111608497D01*
X78720994Y-111612413D01*
X78720996Y-111612414D01*
X78776351Y-111649401D01*
X78823767Y-111681083D01*
X78857215Y-111694937D01*
X78937965Y-111728386D01*
X79005861Y-111741891D01*
X79059192Y-111752499D01*
X79059196Y-111752500D01*
X79059197Y-111752500D01*
X79182803Y-111752500D01*
X87505760Y-111752500D01*
X87572799Y-111772185D01*
X87574645Y-111773394D01*
X87684359Y-111846703D01*
X87684361Y-111846704D01*
X87684365Y-111846706D01*
X87858644Y-111918894D01*
X87858649Y-111918896D01*
X88043670Y-111955699D01*
X88043673Y-111955700D01*
X88043675Y-111955700D01*
X88232327Y-111955700D01*
X88232328Y-111955699D01*
X88417351Y-111918896D01*
X88591641Y-111846703D01*
X88748498Y-111741894D01*
X88881894Y-111608498D01*
X88986703Y-111451641D01*
X89058896Y-111277351D01*
X89095700Y-111092325D01*
X89095700Y-110903675D01*
X89095700Y-110903672D01*
X89095699Y-110903670D01*
X89095668Y-110903513D01*
X100907500Y-110903513D01*
X100907500Y-111092486D01*
X100937059Y-111279118D01*
X100995454Y-111458836D01*
X101029171Y-111525008D01*
X101081240Y-111627199D01*
X101192310Y-111780073D01*
X101325927Y-111913690D01*
X101478801Y-112024760D01*
X101558347Y-112065290D01*
X101647163Y-112110545D01*
X101647165Y-112110545D01*
X101647168Y-112110547D01*
X101743497Y-112141846D01*
X101826881Y-112168940D01*
X102013514Y-112198500D01*
X102013519Y-112198500D01*
X102202486Y-112198500D01*
X102389118Y-112168940D01*
X102568832Y-112110547D01*
X102737199Y-112024760D01*
X102890073Y-111913690D01*
X103023690Y-111780073D01*
X103134760Y-111627199D01*
X103220547Y-111458832D01*
X103278940Y-111279118D01*
X103288216Y-111220552D01*
X103308500Y-111092486D01*
X103308500Y-110903513D01*
X103278940Y-110716881D01*
X103246189Y-110616086D01*
X103220547Y-110537168D01*
X103220545Y-110537165D01*
X103220545Y-110537163D01*
X103161778Y-110421827D01*
X103134760Y-110368801D01*
X103023690Y-110215927D01*
X102890073Y-110082310D01*
X102737199Y-109971240D01*
X102568836Y-109885454D01*
X102389118Y-109827059D01*
X102202486Y-109797500D01*
X102202481Y-109797500D01*
X102013519Y-109797500D01*
X102013514Y-109797500D01*
X101826881Y-109827059D01*
X101647163Y-109885454D01*
X101478800Y-109971240D01*
X101391579Y-110034610D01*
X101325927Y-110082310D01*
X101325925Y-110082312D01*
X101325924Y-110082312D01*
X101192312Y-110215924D01*
X101192312Y-110215925D01*
X101192310Y-110215927D01*
X101191126Y-110217557D01*
X101081240Y-110368800D01*
X100995454Y-110537163D01*
X100937059Y-110716881D01*
X100907500Y-110903513D01*
X89095668Y-110903513D01*
X89083931Y-110844507D01*
X89058896Y-110718649D01*
X89046242Y-110688100D01*
X88986706Y-110544365D01*
X88986699Y-110544352D01*
X88881894Y-110387502D01*
X88881891Y-110387498D01*
X88748501Y-110254108D01*
X88748497Y-110254105D01*
X88591647Y-110149300D01*
X88591634Y-110149293D01*
X88417355Y-110077105D01*
X88417343Y-110077102D01*
X88232328Y-110040300D01*
X88232325Y-110040300D01*
X88043675Y-110040300D01*
X88043672Y-110040300D01*
X87858656Y-110077102D01*
X87858644Y-110077105D01*
X87684365Y-110149293D01*
X87684352Y-110149300D01*
X87527502Y-110254105D01*
X87527498Y-110254108D01*
X87394108Y-110387498D01*
X87394105Y-110387502D01*
X87357430Y-110442391D01*
X87303818Y-110487196D01*
X87254328Y-110497500D01*
X79432281Y-110497500D01*
X79365242Y-110477815D01*
X79344600Y-110461181D01*
X69251599Y-100368180D01*
X69218114Y-100306857D01*
X69223098Y-100237165D01*
X69264970Y-100181232D01*
X69330434Y-100156815D01*
X69339280Y-100156499D01*
X70239871Y-100156499D01*
X70239872Y-100156499D01*
X70299483Y-100150091D01*
X70434331Y-100099796D01*
X70549546Y-100013546D01*
X70635796Y-99898331D01*
X70686091Y-99763483D01*
X70692500Y-99703873D01*
X70692500Y-99557500D01*
X70712185Y-99490461D01*
X70764989Y-99444706D01*
X70816500Y-99433500D01*
X74817468Y-99433500D01*
X74884507Y-99453185D01*
X74927952Y-99501205D01*
X74964949Y-99573816D01*
X74964952Y-99573820D01*
X74964956Y-99573826D01*
X75089890Y-99745786D01*
X75240213Y-99896109D01*
X75412179Y-100021048D01*
X75412181Y-100021049D01*
X75412184Y-100021051D01*
X75601588Y-100117557D01*
X75803757Y-100183246D01*
X76013713Y-100216500D01*
X76013714Y-100216500D01*
X76226286Y-100216500D01*
X76226287Y-100216500D01*
X76436243Y-100183246D01*
X76638412Y-100117557D01*
X76827816Y-100021051D01*
X76849789Y-100005086D01*
X76999786Y-99896109D01*
X76999788Y-99896106D01*
X76999792Y-99896104D01*
X77150104Y-99745792D01*
X77150106Y-99745788D01*
X77150109Y-99745786D01*
X77275048Y-99573820D01*
X77275047Y-99573820D01*
X77275051Y-99573816D01*
X77371557Y-99384412D01*
X77437246Y-99182243D01*
X77470500Y-98972287D01*
X77470500Y-98759713D01*
X77437246Y-98549757D01*
X77371557Y-98347588D01*
X77275051Y-98158184D01*
X77275049Y-98158181D01*
X77275048Y-98158179D01*
X77150109Y-97986213D01*
X76999792Y-97835896D01*
X76999784Y-97835890D01*
X76835204Y-97716316D01*
X76792540Y-97660989D01*
X76786561Y-97591376D01*
X76819166Y-97529580D01*
X76835199Y-97515686D01*
X76999792Y-97396104D01*
X77150104Y-97245792D01*
X77150106Y-97245788D01*
X77150109Y-97245786D01*
X77275048Y-97073820D01*
X77275047Y-97073820D01*
X77275051Y-97073816D01*
X77371557Y-96884412D01*
X77437246Y-96682243D01*
X77470500Y-96472287D01*
X77470500Y-96259713D01*
X77437246Y-96049757D01*
X77371557Y-95847588D01*
X77322747Y-95751794D01*
X77309852Y-95683126D01*
X77336128Y-95618385D01*
X77393235Y-95578128D01*
X77433233Y-95571500D01*
X83329719Y-95571500D01*
X83396758Y-95591185D01*
X83417400Y-95607819D01*
X91975589Y-104166008D01*
X92062992Y-104253411D01*
X92062993Y-104253412D01*
X92165760Y-104322079D01*
X92165773Y-104322086D01*
X92279960Y-104369383D01*
X92279965Y-104369385D01*
X92279969Y-104369385D01*
X92279970Y-104369386D01*
X92401194Y-104393500D01*
X92401197Y-104393500D01*
X95197086Y-104393500D01*
X95264125Y-104413185D01*
X95307571Y-104461205D01*
X95364950Y-104573817D01*
X95364956Y-104573826D01*
X95489890Y-104745786D01*
X95640213Y-104896109D01*
X95812179Y-105021048D01*
X95812181Y-105021049D01*
X95812184Y-105021051D01*
X95829822Y-105030038D01*
X95880618Y-105078011D01*
X95897414Y-105145832D01*
X95874878Y-105211967D01*
X95829824Y-105251007D01*
X95712182Y-105310949D01*
X95540213Y-105435890D01*
X95389890Y-105586213D01*
X95264951Y-105758179D01*
X95168444Y-105947585D01*
X95102753Y-106149760D01*
X95069500Y-106359713D01*
X95069500Y-106572286D01*
X95089739Y-106700074D01*
X95102754Y-106782243D01*
X95155559Y-106944760D01*
X95168444Y-106984414D01*
X95264951Y-107173820D01*
X95389890Y-107345786D01*
X95540209Y-107496105D01*
X95540214Y-107496109D01*
X95704793Y-107615682D01*
X95747459Y-107671011D01*
X95753438Y-107740625D01*
X95720833Y-107802420D01*
X95704793Y-107816318D01*
X95540214Y-107935890D01*
X95540209Y-107935894D01*
X95389890Y-108086213D01*
X95264951Y-108258179D01*
X95168444Y-108447585D01*
X95102753Y-108649760D01*
X95069500Y-108859713D01*
X95069500Y-109072287D01*
X95102754Y-109282243D01*
X95145810Y-109414756D01*
X95168444Y-109484414D01*
X95264951Y-109673820D01*
X95389890Y-109845786D01*
X95540213Y-109996109D01*
X95712179Y-110121048D01*
X95712181Y-110121049D01*
X95712184Y-110121051D01*
X95901588Y-110217557D01*
X96103757Y-110283246D01*
X96313713Y-110316500D01*
X96313714Y-110316500D01*
X96526286Y-110316500D01*
X96526287Y-110316500D01*
X96736243Y-110283246D01*
X96938412Y-110217557D01*
X97127816Y-110121051D01*
X97188303Y-110077105D01*
X97299786Y-109996109D01*
X97299788Y-109996106D01*
X97299792Y-109996104D01*
X97450104Y-109845792D01*
X97450106Y-109845788D01*
X97450109Y-109845786D01*
X97538590Y-109724000D01*
X97575051Y-109673816D01*
X97671557Y-109484412D01*
X97737246Y-109282243D01*
X97770500Y-109072287D01*
X97770500Y-108859713D01*
X97737246Y-108649757D01*
X97671557Y-108447588D01*
X97575051Y-108258184D01*
X97575049Y-108258181D01*
X97575048Y-108258179D01*
X97450109Y-108086213D01*
X97299792Y-107935896D01*
X97285038Y-107925177D01*
X97135204Y-107816316D01*
X97092540Y-107760989D01*
X97086561Y-107691376D01*
X97119166Y-107629580D01*
X97135199Y-107615686D01*
X97299792Y-107496104D01*
X97450104Y-107345792D01*
X97450106Y-107345788D01*
X97450109Y-107345786D01*
X97575048Y-107173820D01*
X97575047Y-107173820D01*
X97575051Y-107173816D01*
X97671557Y-106984412D01*
X97737246Y-106782243D01*
X97770500Y-106572287D01*
X97770500Y-106359713D01*
X97737246Y-106149757D01*
X97671557Y-105947588D01*
X97608338Y-105823513D01*
X100907500Y-105823513D01*
X100907500Y-106012486D01*
X100937059Y-106199118D01*
X100995454Y-106378836D01*
X101080374Y-106545500D01*
X101081240Y-106547199D01*
X101192310Y-106700073D01*
X101325927Y-106833690D01*
X101478801Y-106944760D01*
X101556623Y-106984412D01*
X101647163Y-107030545D01*
X101647165Y-107030545D01*
X101647168Y-107030547D01*
X101743497Y-107061846D01*
X101826881Y-107088940D01*
X102013514Y-107118500D01*
X102013519Y-107118500D01*
X102202486Y-107118500D01*
X102389118Y-107088940D01*
X102568832Y-107030547D01*
X102737199Y-106944760D01*
X102890073Y-106833690D01*
X103023690Y-106700073D01*
X103098858Y-106596612D01*
X103154187Y-106553949D01*
X103199175Y-106545500D01*
X106702390Y-106545500D01*
X106769429Y-106565185D01*
X106815184Y-106617989D01*
X106825128Y-106687147D01*
X106824863Y-106688898D01*
X106803500Y-106823778D01*
X106803500Y-107044221D01*
X106837985Y-107261952D01*
X106906103Y-107471603D01*
X106906104Y-107471606D01*
X107006187Y-107668025D01*
X107135752Y-107846358D01*
X107135756Y-107846363D01*
X107186316Y-107896923D01*
X107219801Y-107958246D01*
X107214817Y-108027938D01*
X107172945Y-108083871D01*
X107141969Y-108100785D01*
X107061918Y-108130643D01*
X107061906Y-108130649D01*
X106946812Y-108216809D01*
X106946809Y-108216812D01*
X106860649Y-108331906D01*
X106860645Y-108331913D01*
X106810403Y-108466620D01*
X106810401Y-108466627D01*
X106804000Y-108526155D01*
X106804000Y-109224000D01*
X107828722Y-109224000D01*
X107784667Y-109300306D01*
X107754000Y-109414756D01*
X107754000Y-109533244D01*
X107784667Y-109647694D01*
X107828722Y-109724000D01*
X106804000Y-109724000D01*
X106804000Y-110421844D01*
X106810401Y-110481372D01*
X106810403Y-110481379D01*
X106860645Y-110616086D01*
X106860649Y-110616093D01*
X106946809Y-110731187D01*
X106946812Y-110731190D01*
X107061906Y-110817350D01*
X107061913Y-110817354D01*
X107196620Y-110867596D01*
X107196627Y-110867598D01*
X107256155Y-110873999D01*
X107256172Y-110874000D01*
X107954000Y-110874000D01*
X107954000Y-109849277D01*
X108030306Y-109893333D01*
X108144756Y-109924000D01*
X108263244Y-109924000D01*
X108377694Y-109893333D01*
X108454000Y-109849277D01*
X108454000Y-110874000D01*
X109151828Y-110874000D01*
X109151844Y-110873999D01*
X109211372Y-110867598D01*
X109211379Y-110867596D01*
X109346086Y-110817354D01*
X109346093Y-110817350D01*
X109461187Y-110731190D01*
X109461190Y-110731187D01*
X109547350Y-110616093D01*
X109547354Y-110616086D01*
X109597596Y-110481379D01*
X109597598Y-110481372D01*
X109603999Y-110421844D01*
X109604000Y-110421827D01*
X109604000Y-109724000D01*
X108579278Y-109724000D01*
X108623333Y-109647694D01*
X108654000Y-109533244D01*
X108654000Y-109414756D01*
X108623333Y-109300306D01*
X108579278Y-109224000D01*
X109604000Y-109224000D01*
X109604000Y-108526172D01*
X109603999Y-108526155D01*
X109597598Y-108466627D01*
X109597596Y-108466620D01*
X109547354Y-108331913D01*
X109547350Y-108331906D01*
X109461190Y-108216812D01*
X109461187Y-108216809D01*
X109346093Y-108130649D01*
X109346087Y-108130646D01*
X109266030Y-108100786D01*
X109210097Y-108058914D01*
X109185680Y-107993450D01*
X109200532Y-107925177D01*
X109221681Y-107896925D01*
X109272242Y-107846365D01*
X109401815Y-107668022D01*
X109501895Y-107471606D01*
X109570015Y-107261951D01*
X109604500Y-107044222D01*
X109604500Y-106823778D01*
X109570015Y-106606049D01*
X109501895Y-106396394D01*
X109501895Y-106396393D01*
X109467237Y-106328375D01*
X109401815Y-106199978D01*
X109365328Y-106149757D01*
X109272247Y-106021641D01*
X109272243Y-106021636D01*
X109116363Y-105865756D01*
X109116358Y-105865752D01*
X108938025Y-105736187D01*
X108938024Y-105736186D01*
X108938022Y-105736185D01*
X108875096Y-105704122D01*
X108741606Y-105636104D01*
X108741603Y-105636103D01*
X108531952Y-105567985D01*
X108423086Y-105550742D01*
X108314222Y-105533500D01*
X108093778Y-105533500D01*
X108050232Y-105540397D01*
X107876045Y-105567985D01*
X107834614Y-105581447D01*
X107764773Y-105583442D01*
X107708617Y-105551198D01*
X107588008Y-105430589D01*
X107588007Y-105430588D01*
X107588006Y-105430587D01*
X107485239Y-105361920D01*
X107485226Y-105361913D01*
X107451785Y-105348062D01*
X107371035Y-105314614D01*
X107371027Y-105314612D01*
X107249807Y-105290500D01*
X107249803Y-105290500D01*
X103199175Y-105290500D01*
X103132136Y-105270815D01*
X103098859Y-105239388D01*
X103023690Y-105135927D01*
X102890073Y-105002310D01*
X102737199Y-104891240D01*
X102568836Y-104805454D01*
X102389118Y-104747059D01*
X102202486Y-104717500D01*
X102202481Y-104717500D01*
X102013519Y-104717500D01*
X102013514Y-104717500D01*
X101826881Y-104747059D01*
X101647163Y-104805454D01*
X101478800Y-104891240D01*
X101472099Y-104896109D01*
X101325927Y-105002310D01*
X101325925Y-105002312D01*
X101325924Y-105002312D01*
X101192312Y-105135924D01*
X101192312Y-105135925D01*
X101192310Y-105135927D01*
X101185114Y-105145832D01*
X101081240Y-105288800D01*
X100995454Y-105457163D01*
X100937059Y-105636881D01*
X100907500Y-105823513D01*
X97608338Y-105823513D01*
X97575051Y-105758184D01*
X97575049Y-105758181D01*
X97575048Y-105758179D01*
X97450109Y-105586213D01*
X97299786Y-105435890D01*
X97127819Y-105310951D01*
X97127818Y-105310950D01*
X97127816Y-105310949D01*
X97110175Y-105301960D01*
X97059380Y-105253986D01*
X97042585Y-105186165D01*
X97065123Y-105120030D01*
X97110174Y-105080992D01*
X97227816Y-105021051D01*
X97253611Y-105002310D01*
X97399786Y-104896109D01*
X97399788Y-104896106D01*
X97399792Y-104896104D01*
X97550104Y-104745792D01*
X97550106Y-104745788D01*
X97550109Y-104745786D01*
X97675048Y-104573820D01*
X97675050Y-104573817D01*
X97675051Y-104573816D01*
X97771557Y-104384412D01*
X97837246Y-104182243D01*
X97870500Y-103972287D01*
X97870500Y-103759713D01*
X97837246Y-103549757D01*
X97832872Y-103536298D01*
X97830874Y-103466459D01*
X97863119Y-103410298D01*
X98919535Y-102353882D01*
X103993669Y-102353882D01*
X103993670Y-102353883D01*
X104019059Y-102372329D01*
X104187362Y-102458085D01*
X104366997Y-102516451D01*
X104553553Y-102546000D01*
X104742447Y-102546000D01*
X104929002Y-102516451D01*
X105108637Y-102458085D01*
X105276937Y-102372331D01*
X105302328Y-102353883D01*
X105302328Y-102353882D01*
X104648001Y-101699554D01*
X104648000Y-101699554D01*
X103993669Y-102353882D01*
X98919535Y-102353882D01*
X100021865Y-101251552D01*
X103448000Y-101251552D01*
X103448000Y-101440447D01*
X103477548Y-101627002D01*
X103535914Y-101806637D01*
X103621666Y-101974933D01*
X103640116Y-102000328D01*
X104294446Y-101346000D01*
X104294446Y-101345999D01*
X104248369Y-101299922D01*
X104298000Y-101299922D01*
X104298000Y-101392078D01*
X104321852Y-101481095D01*
X104367930Y-101560905D01*
X104433095Y-101626070D01*
X104512905Y-101672148D01*
X104601922Y-101696000D01*
X104694078Y-101696000D01*
X104783095Y-101672148D01*
X104862905Y-101626070D01*
X104928070Y-101560905D01*
X104974148Y-101481095D01*
X104998000Y-101392078D01*
X104998000Y-101345999D01*
X105001554Y-101345999D01*
X105001554Y-101346000D01*
X105655882Y-102000328D01*
X105655883Y-102000328D01*
X105674331Y-101974937D01*
X105760085Y-101806637D01*
X105818451Y-101627002D01*
X105848000Y-101440447D01*
X105848000Y-101251552D01*
X105818451Y-101064997D01*
X105760085Y-100885362D01*
X105674329Y-100717059D01*
X105655883Y-100691670D01*
X105655882Y-100691669D01*
X105001554Y-101345999D01*
X104998000Y-101345999D01*
X104998000Y-101299922D01*
X104974148Y-101210905D01*
X104928070Y-101131095D01*
X104862905Y-101065930D01*
X104783095Y-101019852D01*
X104694078Y-100996000D01*
X104601922Y-100996000D01*
X104512905Y-101019852D01*
X104433095Y-101065930D01*
X104367930Y-101131095D01*
X104321852Y-101210905D01*
X104298000Y-101299922D01*
X104248369Y-101299922D01*
X103640116Y-100691669D01*
X103640116Y-100691670D01*
X103621669Y-100717060D01*
X103535914Y-100885362D01*
X103477548Y-101064997D01*
X103448000Y-101251552D01*
X100021865Y-101251552D01*
X100935301Y-100338116D01*
X103993669Y-100338116D01*
X104648000Y-100992446D01*
X104648001Y-100992446D01*
X105302328Y-100338116D01*
X105276933Y-100319666D01*
X105108637Y-100233914D01*
X104929002Y-100175548D01*
X104742447Y-100146000D01*
X104553553Y-100146000D01*
X104366997Y-100175548D01*
X104187362Y-100233914D01*
X104019060Y-100319669D01*
X103993670Y-100338116D01*
X103993669Y-100338116D01*
X100935301Y-100338116D01*
X105549173Y-95724244D01*
X105610494Y-95690761D01*
X105675168Y-95693995D01*
X105796159Y-95733308D01*
X105867465Y-95756477D01*
X105968557Y-95772488D01*
X106069648Y-95788500D01*
X106069649Y-95788500D01*
X106274351Y-95788500D01*
X106274352Y-95788500D01*
X106476534Y-95756477D01*
X106671219Y-95693220D01*
X106853610Y-95600287D01*
X106964561Y-95519677D01*
X107019213Y-95479971D01*
X107019215Y-95479968D01*
X107019219Y-95479966D01*
X107163966Y-95335219D01*
X107163968Y-95335215D01*
X107163971Y-95335213D01*
X107284284Y-95169614D01*
X107284283Y-95169614D01*
X107284287Y-95169610D01*
X107331516Y-95076917D01*
X107379489Y-95026123D01*
X107447310Y-95009328D01*
X107513445Y-95031865D01*
X107552483Y-95076917D01*
X107572560Y-95116319D01*
X107599715Y-95169614D01*
X107720028Y-95335213D01*
X107864786Y-95479971D01*
X108017862Y-95591185D01*
X108030390Y-95600287D01*
X108116160Y-95643989D01*
X108212776Y-95693218D01*
X108212778Y-95693218D01*
X108212781Y-95693220D01*
X108270100Y-95711844D01*
X108407465Y-95756477D01*
X108508557Y-95772488D01*
X108609648Y-95788500D01*
X108609649Y-95788500D01*
X108814351Y-95788500D01*
X108814352Y-95788500D01*
X108957102Y-95765890D01*
X109026395Y-95774844D01*
X109079847Y-95819840D01*
X109100487Y-95886592D01*
X109100500Y-95888363D01*
X109100500Y-100254824D01*
X109080815Y-100321863D01*
X109049386Y-100355142D01*
X108945925Y-100430311D01*
X108812312Y-100563924D01*
X108812312Y-100563925D01*
X108812310Y-100563927D01*
X108764610Y-100629579D01*
X108701240Y-100716800D01*
X108615454Y-100885163D01*
X108557059Y-101064881D01*
X108527500Y-101251513D01*
X108527500Y-101440486D01*
X108557059Y-101627118D01*
X108615454Y-101806836D01*
X108701104Y-101974933D01*
X108701240Y-101975199D01*
X108812310Y-102128073D01*
X108945927Y-102261690D01*
X109098801Y-102372760D01*
X109178347Y-102413290D01*
X109267163Y-102458545D01*
X109267165Y-102458545D01*
X109267168Y-102458547D01*
X109363497Y-102489846D01*
X109446881Y-102516940D01*
X109633514Y-102546500D01*
X109633519Y-102546500D01*
X109822486Y-102546500D01*
X110009118Y-102516940D01*
X110013944Y-102515372D01*
X110188832Y-102458547D01*
X110357199Y-102372760D01*
X110510073Y-102261690D01*
X110643690Y-102128073D01*
X110754760Y-101975199D01*
X110840547Y-101806832D01*
X110898940Y-101627118D01*
X110909730Y-101558993D01*
X110928500Y-101440486D01*
X110928500Y-101251513D01*
X110898940Y-101064881D01*
X110866779Y-100965901D01*
X110840547Y-100885168D01*
X110840545Y-100885165D01*
X110840545Y-100885163D01*
X110795290Y-100796347D01*
X110754760Y-100716801D01*
X110643690Y-100563927D01*
X110510073Y-100430310D01*
X110406614Y-100355142D01*
X110363948Y-100299811D01*
X110355500Y-100254824D01*
X110355500Y-95442196D01*
X110355499Y-95442192D01*
X110331387Y-95320971D01*
X110331386Y-95320965D01*
X110297937Y-95240215D01*
X110284083Y-95206767D01*
X110254242Y-95162107D01*
X110215414Y-95103996D01*
X110215413Y-95103994D01*
X110172408Y-95060989D01*
X110128008Y-95016589D01*
X110014689Y-94903270D01*
X109981204Y-94841947D01*
X109979897Y-94796190D01*
X109980475Y-94792539D01*
X109980477Y-94792534D01*
X110012500Y-94590352D01*
X110012500Y-94385648D01*
X109996466Y-94284412D01*
X109980477Y-94183465D01*
X109917218Y-93988776D01*
X109857863Y-93872287D01*
X109824287Y-93806390D01*
X109816556Y-93795749D01*
X109703971Y-93640786D01*
X109559213Y-93496028D01*
X109393613Y-93375715D01*
X109393612Y-93375714D01*
X109393610Y-93375713D01*
X109324024Y-93340257D01*
X109211223Y-93282781D01*
X109016534Y-93219522D01*
X108841995Y-93191878D01*
X108814352Y-93187500D01*
X108609648Y-93187500D01*
X108585329Y-93191351D01*
X108407465Y-93219522D01*
X108212776Y-93282781D01*
X108030386Y-93375715D01*
X107864786Y-93496028D01*
X107720028Y-93640786D01*
X107599715Y-93806386D01*
X107552485Y-93899080D01*
X107504510Y-93949876D01*
X107436689Y-93966671D01*
X107370554Y-93944134D01*
X107331515Y-93899080D01*
X107317863Y-93872287D01*
X107284287Y-93806390D01*
X107276556Y-93795749D01*
X107163971Y-93640786D01*
X107019217Y-93496032D01*
X107019212Y-93496028D01*
X106850615Y-93373536D01*
X106807949Y-93318207D01*
X106799500Y-93273218D01*
X106799500Y-80850758D01*
X106819185Y-80783719D01*
X106835819Y-80763077D01*
X106885524Y-80713372D01*
X106963104Y-80635792D01*
X106963106Y-80635788D01*
X106963109Y-80635786D01*
X107088048Y-80463820D01*
X107088047Y-80463820D01*
X107088051Y-80463816D01*
X107092514Y-80455054D01*
X107140488Y-80404259D01*
X107208308Y-80387463D01*
X107274444Y-80409999D01*
X107313486Y-80455056D01*
X107317951Y-80463820D01*
X107442890Y-80635786D01*
X107593213Y-80786109D01*
X107765179Y-80911048D01*
X107765181Y-80911049D01*
X107765184Y-80911051D01*
X107954588Y-81007557D01*
X108156757Y-81073246D01*
X108366713Y-81106500D01*
X108366714Y-81106500D01*
X108579286Y-81106500D01*
X108579287Y-81106500D01*
X108789243Y-81073246D01*
X108991412Y-81007557D01*
X109180816Y-80911051D01*
X109267471Y-80848093D01*
X109352786Y-80786109D01*
X109352788Y-80786106D01*
X109352792Y-80786104D01*
X109503104Y-80635792D01*
X109503106Y-80635788D01*
X109503109Y-80635786D01*
X109628048Y-80463820D01*
X109628047Y-80463820D01*
X109628051Y-80463816D01*
X109724557Y-80274412D01*
X109790246Y-80072243D01*
X109823500Y-79862287D01*
X109823500Y-79649713D01*
X109790246Y-79439757D01*
X109724557Y-79237588D01*
X109628051Y-79048184D01*
X109628049Y-79048181D01*
X109628048Y-79048179D01*
X109503109Y-78876213D01*
X109352786Y-78725890D01*
X109180820Y-78600951D01*
X108991414Y-78504444D01*
X108991413Y-78504443D01*
X108991412Y-78504443D01*
X108789243Y-78438754D01*
X108789241Y-78438753D01*
X108789240Y-78438753D01*
X108625863Y-78412877D01*
X108579287Y-78405500D01*
X108366713Y-78405500D01*
X108338006Y-78410046D01*
X108156757Y-78438753D01*
X108143294Y-78443128D01*
X108073452Y-78445122D01*
X108017297Y-78412877D01*
X106333010Y-76728590D01*
X106328495Y-76725573D01*
X106318298Y-76718760D01*
X106230233Y-76659917D01*
X106196784Y-76646062D01*
X106188791Y-76642751D01*
X106188784Y-76642747D01*
X106116035Y-76612614D01*
X106116027Y-76612612D01*
X105994807Y-76588500D01*
X105994803Y-76588500D01*
X97908408Y-76588500D01*
X97841369Y-76568815D01*
X97795614Y-76516011D01*
X97785670Y-76446853D01*
X97790477Y-76426182D01*
X97837246Y-76282243D01*
X97870500Y-76072287D01*
X97870500Y-75859713D01*
X97837246Y-75649757D01*
X97771557Y-75447588D01*
X97675051Y-75258184D01*
X97675049Y-75258181D01*
X97675048Y-75258179D01*
X97550109Y-75086213D01*
X97399792Y-74935896D01*
X97364048Y-74909927D01*
X97235204Y-74816316D01*
X97192540Y-74760989D01*
X97186561Y-74691376D01*
X97219166Y-74629580D01*
X97235199Y-74615686D01*
X97399792Y-74496104D01*
X97550104Y-74345792D01*
X97550106Y-74345788D01*
X97550109Y-74345786D01*
X97675048Y-74173820D01*
X97675047Y-74173820D01*
X97675051Y-74173816D01*
X97771557Y-73984412D01*
X97837246Y-73782243D01*
X97870500Y-73572287D01*
X97870500Y-73359713D01*
X97837246Y-73149757D01*
X97771557Y-72947588D01*
X97675051Y-72758184D01*
X97675049Y-72758181D01*
X97675048Y-72758179D01*
X97550109Y-72586213D01*
X97399786Y-72435890D01*
X97227819Y-72310951D01*
X97227818Y-72310950D01*
X97227816Y-72310949D01*
X97183163Y-72288197D01*
X97109625Y-72250727D01*
X97058829Y-72202752D01*
X97042034Y-72134931D01*
X97064572Y-72068796D01*
X97109630Y-72029755D01*
X97127556Y-72020621D01*
X97299459Y-71895727D01*
X97299464Y-71895723D01*
X97449723Y-71745464D01*
X97449727Y-71745459D01*
X97574620Y-71573557D01*
X97671095Y-71384217D01*
X97736757Y-71182129D01*
X97736757Y-71182126D01*
X97747231Y-71116000D01*
X96853012Y-71116000D01*
X96885925Y-71058993D01*
X96920000Y-70931826D01*
X96920000Y-70800174D01*
X96885925Y-70673007D01*
X96853012Y-70616000D01*
X97747231Y-70616000D01*
X97736757Y-70549873D01*
X97736757Y-70549870D01*
X97671095Y-70347782D01*
X97574620Y-70158442D01*
X97449727Y-69986540D01*
X97449723Y-69986535D01*
X97299464Y-69836276D01*
X97299459Y-69836272D01*
X97127557Y-69711379D01*
X96938215Y-69614903D01*
X96736124Y-69549241D01*
X96670000Y-69538768D01*
X96670000Y-70432988D01*
X96612993Y-70400075D01*
X96485826Y-70366000D01*
X96354174Y-70366000D01*
X96227007Y-70400075D01*
X96170000Y-70432988D01*
X96170000Y-69538768D01*
X96169999Y-69538768D01*
X96103875Y-69549241D01*
X95901784Y-69614903D01*
X95712442Y-69711379D01*
X95540540Y-69836272D01*
X95540535Y-69836276D01*
X95390276Y-69986535D01*
X95390272Y-69986540D01*
X95265379Y-70158442D01*
X95168904Y-70347782D01*
X95103242Y-70549870D01*
X95103242Y-70549873D01*
X95092769Y-70616000D01*
X95986988Y-70616000D01*
X95954075Y-70673007D01*
X95920000Y-70800174D01*
X95920000Y-70931826D01*
X95954075Y-71058993D01*
X95986988Y-71116000D01*
X95092769Y-71116000D01*
X95103242Y-71182126D01*
X95103242Y-71182129D01*
X95168904Y-71384217D01*
X95265379Y-71573557D01*
X95390272Y-71745459D01*
X95390276Y-71745464D01*
X95540535Y-71895723D01*
X95540540Y-71895727D01*
X95712442Y-72020620D01*
X95830374Y-72080710D01*
X95881170Y-72128684D01*
X95897965Y-72196505D01*
X95875428Y-72262640D01*
X95830377Y-72301678D01*
X95812182Y-72310949D01*
X95640213Y-72435890D01*
X95489890Y-72586213D01*
X95364951Y-72758179D01*
X95268444Y-72947585D01*
X95202753Y-73149760D01*
X95173602Y-73333815D01*
X95169500Y-73359713D01*
X95169500Y-73572287D01*
X95202754Y-73782243D01*
X95221864Y-73841058D01*
X95268444Y-73984414D01*
X95364951Y-74173820D01*
X95489890Y-74345786D01*
X95640209Y-74496105D01*
X95640214Y-74496109D01*
X95804793Y-74615682D01*
X95847459Y-74671011D01*
X95853438Y-74740625D01*
X95820833Y-74802420D01*
X95804793Y-74816318D01*
X95640214Y-74935890D01*
X95640209Y-74935894D01*
X95489890Y-75086213D01*
X95364951Y-75258179D01*
X95268444Y-75447585D01*
X95202753Y-75649760D01*
X95169500Y-75859713D01*
X95169500Y-76072286D01*
X95202753Y-76282240D01*
X95202754Y-76282243D01*
X95242699Y-76405182D01*
X95249523Y-76426182D01*
X95251518Y-76496023D01*
X95215438Y-76555856D01*
X95152737Y-76586684D01*
X95131592Y-76588500D01*
X77640900Y-76588500D01*
X77573861Y-76568815D01*
X77528106Y-76516011D01*
X77518162Y-76446853D01*
X77522969Y-76426182D01*
X77537246Y-76382243D01*
X77570500Y-76172287D01*
X77570500Y-75959713D01*
X77537246Y-75749757D01*
X77471557Y-75547588D01*
X77375051Y-75358184D01*
X77375049Y-75358181D01*
X77375048Y-75358179D01*
X77250109Y-75186213D01*
X77099786Y-75035890D01*
X76927820Y-74910951D01*
X76860176Y-74876485D01*
X76809380Y-74828511D01*
X76792585Y-74760690D01*
X76815122Y-74694555D01*
X76860176Y-74655515D01*
X76862716Y-74654221D01*
X76927816Y-74621051D01*
X76985071Y-74579453D01*
X77099786Y-74496109D01*
X77099788Y-74496106D01*
X77099792Y-74496104D01*
X77250104Y-74345792D01*
X77250106Y-74345788D01*
X77250109Y-74345786D01*
X77375048Y-74173820D01*
X77375047Y-74173820D01*
X77375051Y-74173816D01*
X77471557Y-73984412D01*
X77537246Y-73782243D01*
X77570500Y-73572287D01*
X77570500Y-73359713D01*
X77537246Y-73149757D01*
X77471557Y-72947588D01*
X77375051Y-72758184D01*
X77375049Y-72758181D01*
X77375048Y-72758179D01*
X77250109Y-72586213D01*
X77238537Y-72574641D01*
X77205052Y-72513318D01*
X77210036Y-72443626D01*
X77251908Y-72387693D01*
X77282885Y-72370778D01*
X77312331Y-72359796D01*
X77427546Y-72273546D01*
X77513796Y-72158331D01*
X77564091Y-72023483D01*
X77570500Y-71963873D01*
X77570499Y-70168128D01*
X77564091Y-70108517D01*
X77544472Y-70055917D01*
X77513797Y-69973671D01*
X77513793Y-69973664D01*
X77427547Y-69858455D01*
X77427544Y-69858452D01*
X77312335Y-69772206D01*
X77312328Y-69772202D01*
X77177482Y-69721908D01*
X77177483Y-69721908D01*
X77117883Y-69715501D01*
X77117881Y-69715500D01*
X77117873Y-69715500D01*
X77117864Y-69715500D01*
X75322129Y-69715500D01*
X75322123Y-69715501D01*
X75262516Y-69721908D01*
X75127671Y-69772202D01*
X75127664Y-69772206D01*
X75012455Y-69858452D01*
X75012452Y-69858455D01*
X74926206Y-69973664D01*
X74926202Y-69973671D01*
X74875908Y-70108517D01*
X74871323Y-70151168D01*
X74869501Y-70168123D01*
X74869500Y-70168135D01*
X74869500Y-71963870D01*
X74869501Y-71963876D01*
X74875908Y-72023483D01*
X74926202Y-72158328D01*
X74926206Y-72158335D01*
X75012452Y-72273544D01*
X75012455Y-72273547D01*
X75127664Y-72359793D01*
X75127669Y-72359796D01*
X75157113Y-72370778D01*
X75213047Y-72412648D01*
X75237465Y-72478111D01*
X75222614Y-72546385D01*
X75201465Y-72574638D01*
X75189890Y-72586213D01*
X75064951Y-72758179D01*
X74968444Y-72947585D01*
X74902753Y-73149760D01*
X74873602Y-73333815D01*
X74869500Y-73359713D01*
X74869500Y-73572287D01*
X74902754Y-73782243D01*
X74921864Y-73841058D01*
X74968444Y-73984414D01*
X75064951Y-74173820D01*
X75189890Y-74345786D01*
X75340213Y-74496109D01*
X75454930Y-74579454D01*
X75512184Y-74621051D01*
X75565228Y-74648078D01*
X75579823Y-74655515D01*
X75630619Y-74703490D01*
X75647414Y-74771311D01*
X75624876Y-74837446D01*
X75579823Y-74876485D01*
X75512180Y-74910951D01*
X75336266Y-75038759D01*
X75335373Y-75037531D01*
X75277761Y-75063358D01*
X75260971Y-75064500D01*
X72719175Y-75064500D01*
X72652136Y-75044815D01*
X72618859Y-75013388D01*
X72543690Y-74909927D01*
X72410073Y-74776310D01*
X72257199Y-74665240D01*
X72235351Y-74654108D01*
X72088836Y-74579454D01*
X71909118Y-74521059D01*
X71722486Y-74491500D01*
X71722481Y-74491500D01*
X71533519Y-74491500D01*
X71533514Y-74491500D01*
X71346881Y-74521059D01*
X71167163Y-74579454D01*
X70998800Y-74665240D01*
X70928936Y-74716000D01*
X70845927Y-74776310D01*
X70845925Y-74776312D01*
X70845924Y-74776312D01*
X70712312Y-74909924D01*
X70712312Y-74909925D01*
X70712310Y-74909927D01*
X70681520Y-74952306D01*
X70601240Y-75062800D01*
X70515454Y-75231163D01*
X70457059Y-75410881D01*
X70427500Y-75597513D01*
X70427500Y-75786486D01*
X70457059Y-75973118D01*
X70515454Y-76152836D01*
X70581389Y-76282240D01*
X70601240Y-76321199D01*
X70712310Y-76474073D01*
X70845927Y-76607690D01*
X70998801Y-76718760D01*
X71018092Y-76728589D01*
X71167163Y-76804545D01*
X71167165Y-76804545D01*
X71167168Y-76804547D01*
X71263497Y-76835846D01*
X71346881Y-76862940D01*
X71533514Y-76892500D01*
X71533519Y-76892500D01*
X71722486Y-76892500D01*
X71909118Y-76862940D01*
X72088832Y-76804547D01*
X72257199Y-76718760D01*
X72410073Y-76607690D01*
X72543690Y-76474073D01*
X72618858Y-76370612D01*
X72674187Y-76327949D01*
X72719175Y-76319500D01*
X74792277Y-76319500D01*
X74859316Y-76339185D01*
X74905071Y-76391989D01*
X74910204Y-76405172D01*
X74968443Y-76584412D01*
X74968444Y-76584414D01*
X75064951Y-76773820D01*
X75189890Y-76945786D01*
X75340209Y-77096105D01*
X75340214Y-77096109D01*
X75504793Y-77215682D01*
X75547459Y-77271011D01*
X75553438Y-77340625D01*
X75520833Y-77402420D01*
X75504793Y-77416318D01*
X75340214Y-77535890D01*
X75340209Y-77535894D01*
X75189890Y-77686213D01*
X75064951Y-77858179D01*
X74968444Y-78047585D01*
X74902753Y-78249760D01*
X74869500Y-78459713D01*
X74869500Y-78672286D01*
X74902753Y-78882239D01*
X74968444Y-79084414D01*
X75064951Y-79273820D01*
X75189890Y-79445786D01*
X75340209Y-79596105D01*
X75340214Y-79596109D01*
X75435973Y-79665682D01*
X75478639Y-79721012D01*
X75484618Y-79790625D01*
X75452013Y-79852420D01*
X75435973Y-79866318D01*
X75340214Y-79935890D01*
X75340209Y-79935894D01*
X75189890Y-80086213D01*
X75064951Y-80258179D01*
X74968444Y-80447585D01*
X74968443Y-80447587D01*
X74968443Y-80447588D01*
X74963170Y-80463816D01*
X74902753Y-80649760D01*
X74881158Y-80786109D01*
X74869500Y-80859713D01*
X74869500Y-81072287D01*
X74874840Y-81106000D01*
X74902753Y-81282239D01*
X74968444Y-81484414D01*
X75064951Y-81673820D01*
X75189890Y-81845786D01*
X75340213Y-81996109D01*
X75477854Y-82096109D01*
X75512184Y-82121051D01*
X75621189Y-82176592D01*
X75631864Y-82182031D01*
X75682660Y-82230006D01*
X75699455Y-82297827D01*
X75676918Y-82363962D01*
X75622202Y-82407413D01*
X75613901Y-82410442D01*
X75608233Y-82412283D01*
X75601583Y-82414444D01*
X75412179Y-82510951D01*
X75240213Y-82635890D01*
X75089892Y-82786211D01*
X75016388Y-82887384D01*
X74961058Y-82930051D01*
X74916069Y-82938500D01*
X69800499Y-82938500D01*
X69733460Y-82918815D01*
X69687705Y-82866011D01*
X69676499Y-82814500D01*
X69676499Y-82668129D01*
X69676498Y-82668123D01*
X69676497Y-82668116D01*
X69670091Y-82608517D01*
X69643004Y-82535894D01*
X69619797Y-82473671D01*
X69619793Y-82473664D01*
X69533547Y-82358455D01*
X69533544Y-82358452D01*
X69418335Y-82272206D01*
X69418328Y-82272202D01*
X69283482Y-82221908D01*
X69283483Y-82221908D01*
X69223883Y-82215501D01*
X69223881Y-82215500D01*
X69223873Y-82215500D01*
X69223864Y-82215500D01*
X67428129Y-82215500D01*
X67428123Y-82215501D01*
X67368516Y-82221908D01*
X67233671Y-82272202D01*
X67233664Y-82272206D01*
X67118455Y-82358452D01*
X67118452Y-82358455D01*
X67032206Y-82473664D01*
X67032202Y-82473671D01*
X66981908Y-82608517D01*
X66975501Y-82668116D01*
X66975501Y-82668123D01*
X66975500Y-82668135D01*
X66975500Y-84463870D01*
X66975501Y-84463876D01*
X66981908Y-84523483D01*
X67032202Y-84658328D01*
X67032206Y-84658335D01*
X67118452Y-84773544D01*
X67118455Y-84773547D01*
X67233664Y-84859793D01*
X67233671Y-84859797D01*
X67365082Y-84908810D01*
X67421016Y-84950681D01*
X67445433Y-85016145D01*
X67430582Y-85084418D01*
X67409431Y-85112673D01*
X67295889Y-85226215D01*
X67170951Y-85398179D01*
X67074444Y-85587585D01*
X67008753Y-85789760D01*
X66975500Y-85999713D01*
X66975500Y-86212286D01*
X67002218Y-86380980D01*
X67008754Y-86422243D01*
X67061400Y-86584271D01*
X67074444Y-86624414D01*
X67170951Y-86813820D01*
X67295890Y-86985786D01*
X67446213Y-87136109D01*
X67618179Y-87261048D01*
X67618181Y-87261049D01*
X67618184Y-87261051D01*
X67627493Y-87265794D01*
X67678290Y-87313766D01*
X67695087Y-87381587D01*
X67672552Y-87447722D01*
X67627505Y-87486760D01*
X67618446Y-87491376D01*
X67618440Y-87491380D01*
X67564282Y-87530727D01*
X67564282Y-87530728D01*
X68196591Y-88163037D01*
X68133007Y-88180075D01*
X68018993Y-88245901D01*
X67925901Y-88338993D01*
X67860075Y-88453007D01*
X67843037Y-88516591D01*
X67210728Y-87884282D01*
X67210727Y-87884282D01*
X67171380Y-87938439D01*
X67074904Y-88127782D01*
X67009242Y-88329869D01*
X67009242Y-88329872D01*
X66976000Y-88539753D01*
X66976000Y-88752246D01*
X67009242Y-88962127D01*
X67009242Y-88962130D01*
X67074904Y-89164217D01*
X67171375Y-89353550D01*
X67210728Y-89407716D01*
X67843037Y-88775408D01*
X67860075Y-88838993D01*
X67925901Y-88953007D01*
X68018993Y-89046099D01*
X68133007Y-89111925D01*
X68196590Y-89128962D01*
X67564282Y-89761269D01*
X67564282Y-89761270D01*
X67618452Y-89800626D01*
X67618451Y-89800626D01*
X67627495Y-89805234D01*
X67678292Y-89853208D01*
X67695087Y-89921029D01*
X67672550Y-89987164D01*
X67627499Y-90026202D01*
X67618182Y-90030949D01*
X67446213Y-90155890D01*
X67295890Y-90306213D01*
X67170951Y-90478179D01*
X67074444Y-90667585D01*
X67008753Y-90869760D01*
X66975500Y-91079713D01*
X66975500Y-91292286D01*
X67005585Y-91482239D01*
X67008754Y-91502243D01*
X67067945Y-91684414D01*
X67074444Y-91704414D01*
X67170951Y-91893820D01*
X67295890Y-92065786D01*
X67446213Y-92216109D01*
X67618179Y-92341048D01*
X67618181Y-92341049D01*
X67618184Y-92341051D01*
X67807588Y-92437557D01*
X68009757Y-92503246D01*
X68219713Y-92536500D01*
X68219714Y-92536500D01*
X68432286Y-92536500D01*
X68432287Y-92536500D01*
X68642243Y-92503246D01*
X68655698Y-92498873D01*
X68725535Y-92496873D01*
X68781702Y-92529121D01*
X71596589Y-95344008D01*
X71683992Y-95431411D01*
X71683994Y-95431413D01*
X71683996Y-95431414D01*
X71786756Y-95500076D01*
X71786758Y-95500077D01*
X71786767Y-95500083D01*
X71811772Y-95510440D01*
X71834071Y-95519677D01*
X71876254Y-95537149D01*
X71900966Y-95547386D01*
X71990228Y-95565141D01*
X72022192Y-95571499D01*
X72022196Y-95571500D01*
X72022197Y-95571500D01*
X72145804Y-95571500D01*
X74806767Y-95571500D01*
X74873806Y-95591185D01*
X74919561Y-95643989D01*
X74929505Y-95713147D01*
X74917252Y-95751795D01*
X74868444Y-95847585D01*
X74802753Y-96049760D01*
X74769500Y-96259713D01*
X74769500Y-96472286D01*
X74802753Y-96682239D01*
X74868444Y-96884414D01*
X74964951Y-97073820D01*
X75089890Y-97245786D01*
X75240209Y-97396105D01*
X75240214Y-97396109D01*
X75404793Y-97515682D01*
X75447459Y-97571011D01*
X75453438Y-97640625D01*
X75420833Y-97702420D01*
X75404793Y-97716318D01*
X75240214Y-97835890D01*
X75240209Y-97835894D01*
X75089890Y-97986213D01*
X74987325Y-98127385D01*
X74931996Y-98170051D01*
X74887007Y-98178500D01*
X70816499Y-98178500D01*
X70749460Y-98158815D01*
X70703705Y-98106011D01*
X70692499Y-98054500D01*
X70692499Y-97908129D01*
X70692498Y-97908123D01*
X70686091Y-97848516D01*
X70635797Y-97713671D01*
X70635793Y-97713664D01*
X70549547Y-97598455D01*
X70549544Y-97598452D01*
X70434335Y-97512206D01*
X70434328Y-97512202D01*
X70299482Y-97461908D01*
X70299483Y-97461908D01*
X70239883Y-97455501D01*
X70239881Y-97455500D01*
X70239873Y-97455500D01*
X70239864Y-97455500D01*
X68444129Y-97455500D01*
X68444123Y-97455501D01*
X68384516Y-97461908D01*
X68249671Y-97512202D01*
X68249664Y-97512206D01*
X68134455Y-97598452D01*
X68134452Y-97598455D01*
X68048206Y-97713664D01*
X68048203Y-97713669D01*
X67999189Y-97845083D01*
X67957317Y-97901016D01*
X67891853Y-97925433D01*
X67823580Y-97910581D01*
X67795326Y-97889430D01*
X67681786Y-97775890D01*
X67509820Y-97650951D01*
X67320414Y-97554444D01*
X67320413Y-97554443D01*
X67320412Y-97554443D01*
X67118243Y-97488754D01*
X67118241Y-97488753D01*
X67118240Y-97488753D01*
X66956957Y-97463208D01*
X66908287Y-97455500D01*
X66695713Y-97455500D01*
X66647042Y-97463208D01*
X66485760Y-97488753D01*
X66283585Y-97554444D01*
X66094179Y-97650951D01*
X65922213Y-97775890D01*
X65771890Y-97926213D01*
X65646951Y-98098179D01*
X65550444Y-98287585D01*
X65484753Y-98489760D01*
X65467585Y-98598156D01*
X65451500Y-98699713D01*
X63373000Y-98699713D01*
X63373000Y-72025778D01*
X65401500Y-72025778D01*
X65401500Y-72246222D01*
X65405828Y-72273546D01*
X65435985Y-72463952D01*
X65504103Y-72673603D01*
X65504104Y-72673606D01*
X65604187Y-72870025D01*
X65733752Y-73048358D01*
X65733756Y-73048363D01*
X65784316Y-73098923D01*
X65817801Y-73160246D01*
X65812817Y-73229938D01*
X65770945Y-73285871D01*
X65739969Y-73302785D01*
X65659918Y-73332643D01*
X65659906Y-73332649D01*
X65544812Y-73418809D01*
X65544809Y-73418812D01*
X65458649Y-73533906D01*
X65458645Y-73533913D01*
X65408403Y-73668620D01*
X65408401Y-73668627D01*
X65402000Y-73728155D01*
X65402000Y-74426000D01*
X66426722Y-74426000D01*
X66382667Y-74502306D01*
X66352000Y-74616756D01*
X66352000Y-74735244D01*
X66382667Y-74849694D01*
X66426722Y-74926000D01*
X65402000Y-74926000D01*
X65402000Y-75623844D01*
X65408401Y-75683372D01*
X65408403Y-75683379D01*
X65458645Y-75818086D01*
X65458649Y-75818093D01*
X65544809Y-75933187D01*
X65544812Y-75933190D01*
X65659906Y-76019350D01*
X65659913Y-76019354D01*
X65794620Y-76069596D01*
X65794627Y-76069598D01*
X65854155Y-76075999D01*
X65854172Y-76076000D01*
X66552000Y-76076000D01*
X66552000Y-75051277D01*
X66628306Y-75095333D01*
X66742756Y-75126000D01*
X66861244Y-75126000D01*
X66975694Y-75095333D01*
X67052000Y-75051277D01*
X67052000Y-76076000D01*
X67749828Y-76076000D01*
X67749844Y-76075999D01*
X67809372Y-76069598D01*
X67809379Y-76069596D01*
X67944086Y-76019354D01*
X67944093Y-76019350D01*
X68059187Y-75933190D01*
X68059190Y-75933187D01*
X68145350Y-75818093D01*
X68145354Y-75818086D01*
X68195596Y-75683379D01*
X68195598Y-75683372D01*
X68201999Y-75623844D01*
X68202000Y-75623827D01*
X68202000Y-74926000D01*
X67177278Y-74926000D01*
X67221333Y-74849694D01*
X67252000Y-74735244D01*
X67252000Y-74616756D01*
X67221333Y-74502306D01*
X67177278Y-74426000D01*
X68202000Y-74426000D01*
X68202000Y-73728172D01*
X68201999Y-73728155D01*
X68195598Y-73668627D01*
X68195596Y-73668620D01*
X68145354Y-73533913D01*
X68145350Y-73533906D01*
X68059190Y-73418812D01*
X68059187Y-73418809D01*
X67944093Y-73332649D01*
X67944087Y-73332646D01*
X67864030Y-73302786D01*
X67808097Y-73260914D01*
X67783680Y-73195450D01*
X67798532Y-73127177D01*
X67819681Y-73098925D01*
X67870242Y-73048365D01*
X67999815Y-72870022D01*
X68099895Y-72673606D01*
X68168015Y-72463951D01*
X68202500Y-72246222D01*
X68202500Y-72025778D01*
X68168015Y-71808049D01*
X68168014Y-71808047D01*
X68154552Y-71766615D01*
X68152556Y-71696774D01*
X68184800Y-71640617D01*
X68549600Y-71275819D01*
X68610923Y-71242334D01*
X68637281Y-71239500D01*
X70536825Y-71239500D01*
X70603864Y-71259185D01*
X70637140Y-71290611D01*
X70712310Y-71394073D01*
X70845927Y-71527690D01*
X70998801Y-71638760D01*
X71078347Y-71679290D01*
X71167163Y-71724545D01*
X71167165Y-71724545D01*
X71167168Y-71724547D01*
X71263497Y-71755846D01*
X71346881Y-71782940D01*
X71533514Y-71812500D01*
X71533519Y-71812500D01*
X71722486Y-71812500D01*
X71909118Y-71782940D01*
X72088832Y-71724547D01*
X72257199Y-71638760D01*
X72410073Y-71527690D01*
X72543690Y-71394073D01*
X72654760Y-71241199D01*
X72740547Y-71072832D01*
X72798940Y-70893118D01*
X72807653Y-70838104D01*
X72828500Y-70706486D01*
X72828500Y-70517513D01*
X72798940Y-70330881D01*
X72765981Y-70229446D01*
X72740547Y-70151168D01*
X72740545Y-70151165D01*
X72740545Y-70151163D01*
X72667913Y-70008615D01*
X72654760Y-69982801D01*
X72543690Y-69829927D01*
X72410073Y-69696310D01*
X72257199Y-69585240D01*
X72088836Y-69499454D01*
X71909118Y-69441059D01*
X71722486Y-69411500D01*
X71722481Y-69411500D01*
X71533519Y-69411500D01*
X71533514Y-69411500D01*
X71346881Y-69441059D01*
X71167163Y-69499454D01*
X70998800Y-69585240D01*
X70911579Y-69648610D01*
X70845927Y-69696310D01*
X70845925Y-69696312D01*
X70845924Y-69696312D01*
X70712312Y-69829924D01*
X70712310Y-69829927D01*
X70637141Y-69933387D01*
X70581813Y-69976051D01*
X70536825Y-69984500D01*
X68264194Y-69984500D01*
X68142970Y-70008613D01*
X68142960Y-70008616D01*
X68028773Y-70055913D01*
X68028766Y-70055917D01*
X67989406Y-70082217D01*
X67950046Y-70108517D01*
X67950045Y-70108518D01*
X67925988Y-70124591D01*
X67297382Y-70753197D01*
X67236059Y-70786682D01*
X67171383Y-70783447D01*
X67146913Y-70775496D01*
X67129949Y-70769984D01*
X66953195Y-70741989D01*
X66912222Y-70735500D01*
X66691778Y-70735500D01*
X66619201Y-70746995D01*
X66474047Y-70769985D01*
X66264396Y-70838103D01*
X66264393Y-70838104D01*
X66067974Y-70938187D01*
X65889641Y-71067752D01*
X65889636Y-71067756D01*
X65733756Y-71223636D01*
X65733752Y-71223641D01*
X65604187Y-71401974D01*
X65504104Y-71598393D01*
X65504103Y-71598396D01*
X65435985Y-71808047D01*
X65435985Y-71808048D01*
X65435985Y-71808049D01*
X65401500Y-72025778D01*
X63373000Y-72025778D01*
X63373000Y-67961401D01*
X101972700Y-67961401D01*
X101972700Y-68182598D01*
X102007304Y-68401076D01*
X102007304Y-68401079D01*
X102075656Y-68611445D01*
X102075658Y-68611448D01*
X102176080Y-68808537D01*
X102306098Y-68987491D01*
X102462509Y-69143902D01*
X102641463Y-69273920D01*
X102838552Y-69374342D01*
X102838554Y-69374343D01*
X102952913Y-69411500D01*
X103048925Y-69442696D01*
X103267401Y-69477300D01*
X103267402Y-69477300D01*
X103488598Y-69477300D01*
X103488599Y-69477300D01*
X103707075Y-69442696D01*
X103707078Y-69442695D01*
X103707079Y-69442695D01*
X103917445Y-69374343D01*
X103917445Y-69374342D01*
X103917448Y-69374342D01*
X104114537Y-69273920D01*
X104293491Y-69143902D01*
X104449902Y-68987491D01*
X104579920Y-68808537D01*
X104680342Y-68611448D01*
X104748696Y-68401075D01*
X104783300Y-68182599D01*
X104783300Y-67961401D01*
X104748696Y-67742925D01*
X104748695Y-67742921D01*
X104748695Y-67742920D01*
X104680343Y-67532554D01*
X104579919Y-67335462D01*
X104449902Y-67156509D01*
X104293491Y-67000098D01*
X104114537Y-66870080D01*
X103917445Y-66769656D01*
X103707077Y-66701304D01*
X103561424Y-66678234D01*
X103488599Y-66666700D01*
X103267401Y-66666700D01*
X103194575Y-66678234D01*
X103048923Y-66701304D01*
X103048920Y-66701304D01*
X102838554Y-66769656D01*
X102641462Y-66870080D01*
X102539362Y-66944260D01*
X102462509Y-67000098D01*
X102462507Y-67000100D01*
X102462506Y-67000100D01*
X102306100Y-67156506D01*
X102306100Y-67156507D01*
X102306098Y-67156509D01*
X102250260Y-67233362D01*
X102176080Y-67335462D01*
X102075656Y-67532554D01*
X102007304Y-67742920D01*
X102007304Y-67742923D01*
X101972700Y-67961401D01*
X63373000Y-67961401D01*
X63373000Y-64303868D01*
X63374073Y-64297976D01*
X63373348Y-64294582D01*
X63380972Y-64260124D01*
X63442448Y-64097073D01*
X63449387Y-64081866D01*
X63473730Y-64036823D01*
X63541729Y-63911003D01*
X63551281Y-63896013D01*
X63661121Y-63748251D01*
X63673095Y-63734411D01*
X63792589Y-63615355D01*
X63803985Y-63604001D01*
X63817810Y-63592118D01*
X63847930Y-63569860D01*
X63983044Y-63470012D01*
X63994027Y-63462766D01*
X64077688Y-63413746D01*
X64085138Y-63409717D01*
X64136150Y-63384350D01*
X64186879Y-63359123D01*
X64194309Y-63355728D01*
X64306765Y-63308783D01*
X64314022Y-63306018D01*
X64438372Y-63263089D01*
X64445415Y-63260893D01*
X64583176Y-63222410D01*
X64589936Y-63220727D01*
X64740963Y-63187641D01*
X64747428Y-63186405D01*
X64914441Y-63159085D01*
X64920575Y-63158239D01*
X65102253Y-63137828D01*
X65108014Y-63137318D01*
X65308058Y-63124342D01*
X65313495Y-63124110D01*
X65520466Y-63119820D01*
X65534636Y-63119527D01*
X65537205Y-63119500D01*
X109931775Y-63119500D01*
X110484686Y-63119500D01*
X110487300Y-63119528D01*
G37*
%TD.AperFunction*%
%TD*%
%TA.AperFunction,Conductor*%
%TO.N,GND1*%
G36*
X152983236Y-63500501D02*
G01*
X152986201Y-63501321D01*
X153037581Y-63500506D01*
X153038541Y-63500507D01*
X153045501Y-63500702D01*
X153265020Y-63513069D01*
X153282742Y-63515357D01*
X153493799Y-63558253D01*
X153511009Y-63563065D01*
X153519294Y-63566040D01*
X153713708Y-63635852D01*
X153730040Y-63643084D01*
X153738516Y-63647594D01*
X153920174Y-63744254D01*
X153935304Y-63753764D01*
X154108922Y-63881214D01*
X154122527Y-63892798D01*
X154276019Y-64043875D01*
X154287817Y-64057295D01*
X154294572Y-64066197D01*
X154417997Y-64228865D01*
X154427745Y-64243842D01*
X154531913Y-64432345D01*
X154539407Y-64448568D01*
X154615399Y-64650089D01*
X154620483Y-64667221D01*
X154666717Y-64877567D01*
X154669286Y-64895252D01*
X154685178Y-65115217D01*
X154685500Y-65124152D01*
X154685500Y-104883657D01*
X154685135Y-104893167D01*
X154685128Y-104893258D01*
X154683209Y-104907439D01*
X154677392Y-104937325D01*
X154674420Y-104949354D01*
X154659886Y-104997669D01*
X154654653Y-105011860D01*
X154588820Y-105161585D01*
X154588092Y-105163240D01*
X154579562Y-105179320D01*
X154490506Y-105320996D01*
X154479632Y-105335749D01*
X154373990Y-105458876D01*
X154360500Y-105472349D01*
X154243339Y-105572599D01*
X154227351Y-105584207D01*
X154136784Y-105639513D01*
X154099250Y-105662435D01*
X154081319Y-105671479D01*
X153939164Y-105729265D01*
X153920239Y-105735243D01*
X153748998Y-105774592D01*
X153734895Y-105776987D01*
X153654780Y-105785871D01*
X153645588Y-105786545D01*
X153539204Y-105790387D01*
X153534316Y-105790467D01*
X126987194Y-105702094D01*
X126987192Y-105702093D01*
X126987189Y-105702094D01*
X115629065Y-105663696D01*
X115629064Y-105663696D01*
X115618186Y-105663659D01*
X115614975Y-105662846D01*
X115568094Y-105663489D01*
X115567009Y-105663486D01*
X115567008Y-105663485D01*
X115521059Y-105663331D01*
X115521015Y-105663337D01*
X115506972Y-105664330D01*
X115485492Y-105664626D01*
X115483827Y-105664638D01*
X115307562Y-105664701D01*
X115295932Y-105664158D01*
X115131957Y-105648769D01*
X115113622Y-105645648D01*
X114999660Y-105617312D01*
X114978567Y-105609996D01*
X114897370Y-105573346D01*
X114875924Y-105560952D01*
X114813433Y-105515953D01*
X114794275Y-105498886D01*
X114729853Y-105428251D01*
X114718343Y-105413544D01*
X114698081Y-105383195D01*
X114691941Y-105372965D01*
X114664417Y-105321661D01*
X114659547Y-105311496D01*
X114632737Y-105248281D01*
X114629039Y-105238412D01*
X114618700Y-105206783D01*
X114603920Y-105161569D01*
X114601253Y-105152166D01*
X114595092Y-105126656D01*
X114578733Y-105058915D01*
X114576943Y-105050118D01*
X114576943Y-105050116D01*
X114558768Y-104940630D01*
X114557694Y-104932506D01*
X114556050Y-104915838D01*
X114544899Y-104802742D01*
X114544392Y-104795312D01*
X114538590Y-104643089D01*
X114538500Y-104638366D01*
X114538500Y-102207513D01*
X117212500Y-102207513D01*
X117212500Y-102396486D01*
X117242059Y-102583118D01*
X117300454Y-102762836D01*
X117348862Y-102857841D01*
X117386240Y-102931199D01*
X117497310Y-103084073D01*
X117630927Y-103217690D01*
X117783801Y-103328760D01*
X117863347Y-103369290D01*
X117952163Y-103414545D01*
X117952165Y-103414545D01*
X117952168Y-103414547D01*
X118048497Y-103445846D01*
X118131881Y-103472940D01*
X118318514Y-103502500D01*
X118318519Y-103502500D01*
X118507486Y-103502500D01*
X118694118Y-103472940D01*
X118873832Y-103414547D01*
X119042199Y-103328760D01*
X119195073Y-103217690D01*
X119328690Y-103084073D01*
X119439760Y-102931199D01*
X119525547Y-102762832D01*
X119583940Y-102583118D01*
X119613500Y-102396486D01*
X119613500Y-102207513D01*
X119583940Y-102020881D01*
X119525545Y-101841163D01*
X119439759Y-101672800D01*
X119328690Y-101519927D01*
X119195073Y-101386310D01*
X119042199Y-101275240D01*
X118873836Y-101189454D01*
X118694118Y-101131059D01*
X118507486Y-101101500D01*
X118507481Y-101101500D01*
X118318519Y-101101500D01*
X118318514Y-101101500D01*
X118131881Y-101131059D01*
X117952163Y-101189454D01*
X117783800Y-101275240D01*
X117696579Y-101338610D01*
X117630927Y-101386310D01*
X117630925Y-101386312D01*
X117630924Y-101386312D01*
X117497312Y-101519924D01*
X117497312Y-101519925D01*
X117497310Y-101519927D01*
X117449610Y-101585579D01*
X117386240Y-101672800D01*
X117300454Y-101841163D01*
X117242059Y-102020881D01*
X117212500Y-102207513D01*
X114538500Y-102207513D01*
X114538500Y-99040526D01*
X114515311Y-98901558D01*
X114500817Y-98814699D01*
X114426477Y-98598156D01*
X114426474Y-98598151D01*
X114426472Y-98598145D01*
X114355548Y-98467091D01*
X114340952Y-98398763D01*
X114365614Y-98333391D01*
X114376917Y-98320395D01*
X114401351Y-98295962D01*
X114474458Y-98169338D01*
X114512300Y-98028107D01*
X114512300Y-97881893D01*
X114474458Y-97740662D01*
X114403060Y-97616998D01*
X114386588Y-97549101D01*
X114403060Y-97493001D01*
X114474458Y-97369338D01*
X114512300Y-97228107D01*
X114512300Y-97081893D01*
X114474458Y-96940662D01*
X114401351Y-96814038D01*
X114401350Y-96814037D01*
X114398061Y-96808340D01*
X114381588Y-96740439D01*
X114398062Y-96684338D01*
X114401391Y-96678573D01*
X114464458Y-96569338D01*
X114502300Y-96428107D01*
X114502300Y-96281893D01*
X114464458Y-96140662D01*
X114391351Y-96014038D01*
X114373410Y-95996097D01*
X114339925Y-95934774D01*
X114344909Y-95865082D01*
X114352036Y-95849398D01*
X114426477Y-95711844D01*
X114500817Y-95495301D01*
X114538500Y-95269474D01*
X114538500Y-95204868D01*
X114538592Y-95204523D01*
X114538500Y-95154517D01*
X114538500Y-95100149D01*
X114538500Y-95092289D01*
X114538382Y-95090666D01*
X114537785Y-94766363D01*
X114534272Y-92856461D01*
X114534157Y-92793778D01*
X115996500Y-92793778D01*
X115996500Y-93014221D01*
X116030985Y-93231952D01*
X116099103Y-93441603D01*
X116099104Y-93441606D01*
X116139045Y-93519992D01*
X116193456Y-93626779D01*
X116199187Y-93638025D01*
X116328752Y-93816358D01*
X116328756Y-93816363D01*
X116484636Y-93972243D01*
X116484641Y-93972247D01*
X116640192Y-94085260D01*
X116662978Y-94101815D01*
X116791375Y-94167237D01*
X116859393Y-94201895D01*
X116859396Y-94201896D01*
X116964221Y-94235955D01*
X117069049Y-94270015D01*
X117286778Y-94304500D01*
X117286779Y-94304500D01*
X117507221Y-94304500D01*
X117507222Y-94304500D01*
X117642102Y-94283137D01*
X117711396Y-94292092D01*
X117764848Y-94337088D01*
X117785487Y-94403839D01*
X117785500Y-94405610D01*
X117785500Y-96130824D01*
X117765815Y-96197863D01*
X117734386Y-96231142D01*
X117630925Y-96306311D01*
X117497312Y-96439924D01*
X117497312Y-96439925D01*
X117497310Y-96439927D01*
X117478276Y-96466125D01*
X117386240Y-96592800D01*
X117300454Y-96761163D01*
X117242059Y-96940881D01*
X117212500Y-97127513D01*
X117212500Y-97316486D01*
X117242059Y-97503118D01*
X117300454Y-97682836D01*
X117364292Y-97808124D01*
X117386240Y-97851199D01*
X117497310Y-98004073D01*
X117630927Y-98137690D01*
X117783801Y-98248760D01*
X117863347Y-98289290D01*
X117952163Y-98334545D01*
X117952165Y-98334545D01*
X117952168Y-98334547D01*
X118030895Y-98360127D01*
X118131881Y-98392940D01*
X118318514Y-98422500D01*
X118318519Y-98422500D01*
X118507486Y-98422500D01*
X118694118Y-98392940D01*
X118744899Y-98376440D01*
X118873832Y-98334547D01*
X119042199Y-98248760D01*
X119195073Y-98137690D01*
X119328690Y-98004073D01*
X119439760Y-97851199D01*
X119525547Y-97682832D01*
X119583940Y-97503118D01*
X119592025Y-97452072D01*
X119613500Y-97316486D01*
X119613500Y-97127513D01*
X119583940Y-96940881D01*
X119556846Y-96857497D01*
X119525547Y-96761168D01*
X119525545Y-96761165D01*
X119525545Y-96761163D01*
X119439759Y-96592800D01*
X119328690Y-96439927D01*
X119195073Y-96306310D01*
X119091614Y-96231142D01*
X119048948Y-96175811D01*
X119040500Y-96130824D01*
X119040500Y-93858195D01*
X119032179Y-93816365D01*
X119025002Y-93780284D01*
X119016386Y-93736965D01*
X118982937Y-93656215D01*
X118969083Y-93622767D01*
X118959253Y-93608055D01*
X118900414Y-93519996D01*
X118900413Y-93519994D01*
X118900411Y-93519992D01*
X118813008Y-93432589D01*
X118779802Y-93399383D01*
X118746317Y-93338060D01*
X118749551Y-93273385D01*
X118763015Y-93231951D01*
X118797500Y-93014222D01*
X118797500Y-92793778D01*
X118763015Y-92576049D01*
X118694895Y-92366394D01*
X118694895Y-92366393D01*
X118625890Y-92230966D01*
X118594815Y-92169978D01*
X118529910Y-92080643D01*
X118465247Y-91991641D01*
X118465243Y-91991636D01*
X118414683Y-91941076D01*
X118381198Y-91879753D01*
X118386182Y-91810061D01*
X118428054Y-91754128D01*
X118459031Y-91737213D01*
X118539086Y-91707354D01*
X118539093Y-91707350D01*
X118654187Y-91621190D01*
X118654190Y-91621187D01*
X118740350Y-91506093D01*
X118740354Y-91506086D01*
X118790596Y-91371379D01*
X118790598Y-91371372D01*
X118796999Y-91311844D01*
X118797000Y-91311827D01*
X118797000Y-90614000D01*
X117772278Y-90614000D01*
X117816333Y-90537694D01*
X117847000Y-90423244D01*
X117847000Y-90304756D01*
X117816333Y-90190306D01*
X117772278Y-90114000D01*
X118797000Y-90114000D01*
X118797000Y-89416172D01*
X118796999Y-89416155D01*
X118790598Y-89356627D01*
X118790596Y-89356620D01*
X118740354Y-89221913D01*
X118740350Y-89221906D01*
X118654190Y-89106812D01*
X118654187Y-89106809D01*
X118539093Y-89020649D01*
X118539086Y-89020645D01*
X118404379Y-88970403D01*
X118404372Y-88970401D01*
X118344844Y-88964000D01*
X117647000Y-88964000D01*
X117647000Y-89988722D01*
X117570694Y-89944667D01*
X117456244Y-89914000D01*
X117337756Y-89914000D01*
X117223306Y-89944667D01*
X117147000Y-89988722D01*
X117147000Y-88964000D01*
X116449155Y-88964000D01*
X116389627Y-88970401D01*
X116389620Y-88970403D01*
X116254913Y-89020645D01*
X116254906Y-89020649D01*
X116139812Y-89106809D01*
X116139809Y-89106812D01*
X116053649Y-89221906D01*
X116053645Y-89221913D01*
X116003403Y-89356620D01*
X116003401Y-89356627D01*
X115997000Y-89416155D01*
X115997000Y-90114000D01*
X117021722Y-90114000D01*
X116977667Y-90190306D01*
X116947000Y-90304756D01*
X116947000Y-90423244D01*
X116977667Y-90537694D01*
X117021722Y-90614000D01*
X115997000Y-90614000D01*
X115997000Y-91311844D01*
X116003401Y-91371372D01*
X116003403Y-91371379D01*
X116053645Y-91506086D01*
X116053649Y-91506093D01*
X116139809Y-91621187D01*
X116139812Y-91621190D01*
X116254906Y-91707350D01*
X116254913Y-91707354D01*
X116334968Y-91737213D01*
X116390902Y-91779084D01*
X116415319Y-91844549D01*
X116400467Y-91912822D01*
X116379317Y-91941075D01*
X116328756Y-91991636D01*
X116328752Y-91991641D01*
X116199187Y-92169974D01*
X116099104Y-92366393D01*
X116099103Y-92366396D01*
X116030985Y-92576047D01*
X115996500Y-92793778D01*
X114534157Y-92793778D01*
X114534148Y-92789134D01*
X114527937Y-89413079D01*
X114522630Y-86528618D01*
X114522630Y-86414523D01*
X114484946Y-86188693D01*
X114460971Y-86118856D01*
X114410607Y-85972153D01*
X114410604Y-85972148D01*
X114410602Y-85972142D01*
X114339678Y-85841088D01*
X114335474Y-85821410D01*
X114326574Y-85803364D01*
X114328324Y-85787940D01*
X114325082Y-85772760D01*
X114332184Y-85753932D01*
X114334454Y-85733940D01*
X114346465Y-85716077D01*
X114349744Y-85707388D01*
X114352643Y-85703694D01*
X114356612Y-85698826D01*
X114385481Y-85669959D01*
X114458588Y-85543335D01*
X114496430Y-85402104D01*
X114496430Y-85255890D01*
X114458588Y-85114659D01*
X114387190Y-84990995D01*
X114370718Y-84923098D01*
X114387190Y-84866998D01*
X114458588Y-84743335D01*
X114496430Y-84602104D01*
X114496430Y-84455890D01*
X114458588Y-84314659D01*
X114385481Y-84188035D01*
X114385480Y-84188034D01*
X114382191Y-84182337D01*
X114365718Y-84114436D01*
X114382192Y-84058335D01*
X114417462Y-83997247D01*
X114448588Y-83943335D01*
X114486430Y-83802104D01*
X114486430Y-83655890D01*
X114448588Y-83514659D01*
X114375481Y-83388035D01*
X114357540Y-83370094D01*
X114324055Y-83308771D01*
X114329039Y-83239079D01*
X114336166Y-83223395D01*
X114357950Y-83183142D01*
X114410607Y-83085841D01*
X114484947Y-82869298D01*
X114522630Y-82643471D01*
X114522630Y-82528997D01*
X114522630Y-82474146D01*
X114522630Y-80351713D01*
X121380500Y-80351713D01*
X121380500Y-80564286D01*
X121413753Y-80774239D01*
X121479444Y-80976414D01*
X121575951Y-81165820D01*
X121700890Y-81337786D01*
X121851213Y-81488109D01*
X122023179Y-81613048D01*
X122023181Y-81613049D01*
X122023184Y-81613051D01*
X122174935Y-81690372D01*
X122175485Y-81690652D01*
X122226281Y-81738626D01*
X122243076Y-81806447D01*
X122220539Y-81872582D01*
X122175486Y-81911621D01*
X122023443Y-81989092D01*
X122023440Y-81989094D01*
X121969282Y-82028441D01*
X121969282Y-82028442D01*
X122601591Y-82660751D01*
X122538007Y-82677789D01*
X122423993Y-82743615D01*
X122330901Y-82836707D01*
X122265075Y-82950721D01*
X122248037Y-83014305D01*
X121615728Y-82381996D01*
X121615727Y-82381996D01*
X121576380Y-82436153D01*
X121479904Y-82625496D01*
X121414242Y-82827583D01*
X121414242Y-82827586D01*
X121381000Y-83037467D01*
X121381000Y-83249960D01*
X121414242Y-83459841D01*
X121414242Y-83459844D01*
X121479904Y-83661931D01*
X121576375Y-83851264D01*
X121615728Y-83905430D01*
X122248037Y-83273122D01*
X122265075Y-83336707D01*
X122330901Y-83450721D01*
X122423993Y-83543813D01*
X122538007Y-83609639D01*
X122601590Y-83626676D01*
X121969282Y-84258983D01*
X121969282Y-84258984D01*
X122023450Y-84298338D01*
X122175486Y-84375806D01*
X122226282Y-84423781D01*
X122243077Y-84491602D01*
X122220539Y-84557737D01*
X122175486Y-84596776D01*
X122023180Y-84674380D01*
X121851213Y-84799319D01*
X121700890Y-84949642D01*
X121575951Y-85121608D01*
X121479444Y-85311014D01*
X121413753Y-85513189D01*
X121380500Y-85723142D01*
X121380500Y-85935715D01*
X121409506Y-86118856D01*
X121413754Y-86145672D01*
X121427733Y-86188696D01*
X121479444Y-86347843D01*
X121575951Y-86537249D01*
X121700890Y-86709215D01*
X121851213Y-86859538D01*
X122023179Y-86984477D01*
X122023181Y-86984478D01*
X122023184Y-86984480D01*
X122024468Y-86985134D01*
X122174935Y-87061801D01*
X122225731Y-87109776D01*
X122242526Y-87177597D01*
X122219989Y-87243732D01*
X122174935Y-87282771D01*
X122023179Y-87360094D01*
X121851213Y-87485033D01*
X121700890Y-87635356D01*
X121575951Y-87807322D01*
X121479444Y-87996728D01*
X121413753Y-88198903D01*
X121380500Y-88408856D01*
X121380500Y-88621429D01*
X121413735Y-88831270D01*
X121413754Y-88831386D01*
X121475248Y-89020645D01*
X121479444Y-89033557D01*
X121575951Y-89222963D01*
X121700890Y-89394929D01*
X121851213Y-89545252D01*
X122023179Y-89670191D01*
X122023181Y-89670192D01*
X122023184Y-89670194D01*
X122107245Y-89713025D01*
X122174935Y-89747515D01*
X122225731Y-89795490D01*
X122242526Y-89863311D01*
X122219989Y-89929446D01*
X122174935Y-89968485D01*
X122023179Y-90045808D01*
X121851213Y-90170747D01*
X121700890Y-90321070D01*
X121575951Y-90493036D01*
X121479444Y-90682442D01*
X121413753Y-90884617D01*
X121380500Y-91094570D01*
X121380500Y-91307144D01*
X121390534Y-91370501D01*
X121412010Y-91506093D01*
X121413754Y-91517100D01*
X121475570Y-91707350D01*
X121479444Y-91719271D01*
X121575951Y-91908677D01*
X121700890Y-92080643D01*
X121851213Y-92230966D01*
X122023179Y-92355905D01*
X122023181Y-92355906D01*
X122023184Y-92355908D01*
X122141000Y-92415938D01*
X122174935Y-92433229D01*
X122225731Y-92481204D01*
X122242526Y-92549025D01*
X122219989Y-92615160D01*
X122174935Y-92654199D01*
X122023179Y-92731522D01*
X121851213Y-92856461D01*
X121700890Y-93006784D01*
X121575951Y-93178750D01*
X121479444Y-93368156D01*
X121413753Y-93570331D01*
X121380500Y-93780284D01*
X121380500Y-93992857D01*
X121413608Y-94201896D01*
X121413754Y-94202814D01*
X121479071Y-94403839D01*
X121479444Y-94404985D01*
X121575951Y-94594391D01*
X121700890Y-94766357D01*
X121851213Y-94916680D01*
X122023179Y-95041619D01*
X122023181Y-95041620D01*
X122023184Y-95041622D01*
X122174936Y-95118943D01*
X122225732Y-95166917D01*
X122242527Y-95234738D01*
X122219990Y-95300873D01*
X122174936Y-95339913D01*
X122023180Y-95417237D01*
X121851213Y-95542176D01*
X121700890Y-95692499D01*
X121575951Y-95864465D01*
X121479444Y-96053871D01*
X121413753Y-96256046D01*
X121384630Y-96439924D01*
X121380500Y-96465999D01*
X121380500Y-96678573D01*
X121413754Y-96888529D01*
X121430764Y-96940881D01*
X121479444Y-97090700D01*
X121575951Y-97280106D01*
X121700890Y-97452072D01*
X121700896Y-97452078D01*
X121851208Y-97602390D01*
X121962410Y-97683182D01*
X122005075Y-97738511D01*
X122011054Y-97808124D01*
X121978449Y-97869920D01*
X121917610Y-97904277D01*
X121889526Y-97907500D01*
X121833130Y-97907500D01*
X121833123Y-97907501D01*
X121773516Y-97913908D01*
X121638671Y-97964202D01*
X121638664Y-97964206D01*
X121523455Y-98050452D01*
X121523452Y-98050455D01*
X121437206Y-98165664D01*
X121437202Y-98165671D01*
X121386908Y-98300517D01*
X121383250Y-98334545D01*
X121380501Y-98360123D01*
X121380500Y-98360135D01*
X121380500Y-100155870D01*
X121380501Y-100155876D01*
X121386908Y-100215483D01*
X121437202Y-100350328D01*
X121437206Y-100350335D01*
X121523452Y-100465544D01*
X121523455Y-100465547D01*
X121638664Y-100551793D01*
X121638671Y-100551797D01*
X121773517Y-100602091D01*
X121773516Y-100602091D01*
X121780444Y-100602835D01*
X121833127Y-100608500D01*
X123628872Y-100608499D01*
X123688483Y-100602091D01*
X123823331Y-100551796D01*
X123938546Y-100465546D01*
X124024796Y-100350331D01*
X124075091Y-100215483D01*
X124081500Y-100155873D01*
X124081499Y-98360128D01*
X124075091Y-98300517D01*
X124058880Y-98257054D01*
X124024797Y-98165671D01*
X124024793Y-98165664D01*
X123938547Y-98050455D01*
X123938544Y-98050452D01*
X123823335Y-97964206D01*
X123823328Y-97964202D01*
X123688482Y-97913908D01*
X123688483Y-97913908D01*
X123628883Y-97907501D01*
X123628881Y-97907500D01*
X123628873Y-97907500D01*
X123628865Y-97907500D01*
X123572477Y-97907500D01*
X123505438Y-97887815D01*
X123459683Y-97835011D01*
X123449739Y-97765853D01*
X123478764Y-97702297D01*
X123499592Y-97683182D01*
X123610785Y-97602395D01*
X123610783Y-97602395D01*
X123610792Y-97602390D01*
X123761104Y-97452078D01*
X123761106Y-97452074D01*
X123761109Y-97452072D01*
X123886048Y-97280106D01*
X123886047Y-97280106D01*
X123886051Y-97280102D01*
X123982557Y-97090698D01*
X124048246Y-96888529D01*
X124081500Y-96678573D01*
X124081500Y-96465999D01*
X124048246Y-96256043D01*
X123982557Y-96053874D01*
X123886051Y-95864470D01*
X123886049Y-95864467D01*
X123886048Y-95864465D01*
X123761109Y-95692499D01*
X123610786Y-95542176D01*
X123438820Y-95417237D01*
X123287063Y-95339913D01*
X123236267Y-95291938D01*
X123219472Y-95224117D01*
X123242009Y-95157982D01*
X123287062Y-95118943D01*
X123438816Y-95041622D01*
X123503139Y-94994889D01*
X123610786Y-94916680D01*
X123610788Y-94916677D01*
X123610792Y-94916675D01*
X123761104Y-94766363D01*
X123761106Y-94766359D01*
X123761109Y-94766357D01*
X123886048Y-94594391D01*
X123886047Y-94594391D01*
X123886051Y-94594387D01*
X123982557Y-94404983D01*
X124048246Y-94202814D01*
X124081500Y-93992858D01*
X124081500Y-93780284D01*
X124048246Y-93570328D01*
X123982557Y-93368159D01*
X123886051Y-93178755D01*
X123886049Y-93178752D01*
X123886048Y-93178750D01*
X123761109Y-93006784D01*
X123610786Y-92856461D01*
X123438820Y-92731522D01*
X123424966Y-92724463D01*
X123287063Y-92654198D01*
X123236268Y-92606225D01*
X123219473Y-92538404D01*
X123242010Y-92472269D01*
X123287062Y-92433229D01*
X123438816Y-92355908D01*
X123460789Y-92339943D01*
X123610786Y-92230966D01*
X123610788Y-92230963D01*
X123610792Y-92230961D01*
X123761104Y-92080649D01*
X123761106Y-92080645D01*
X123761109Y-92080643D01*
X123886048Y-91908677D01*
X123886047Y-91908677D01*
X123886051Y-91908673D01*
X123982557Y-91719269D01*
X124048246Y-91517100D01*
X124081500Y-91307144D01*
X124081500Y-91094570D01*
X124048246Y-90884614D01*
X123982557Y-90682445D01*
X123886051Y-90493041D01*
X123886049Y-90493038D01*
X123886048Y-90493036D01*
X123761109Y-90321070D01*
X123610786Y-90170747D01*
X123438820Y-90045808D01*
X123356590Y-90003910D01*
X123287063Y-89968484D01*
X123236268Y-89920511D01*
X123219473Y-89852690D01*
X123242010Y-89786555D01*
X123287062Y-89747515D01*
X123438816Y-89670194D01*
X123567612Y-89576619D01*
X123610786Y-89545252D01*
X123610788Y-89545249D01*
X123610792Y-89545247D01*
X123761104Y-89394935D01*
X123761106Y-89394931D01*
X123761109Y-89394929D01*
X123886048Y-89222963D01*
X123886047Y-89222963D01*
X123886051Y-89222959D01*
X123982557Y-89033555D01*
X124048246Y-88831386D01*
X124081500Y-88621430D01*
X124081500Y-88408856D01*
X124048246Y-88198900D01*
X123982557Y-87996731D01*
X123886051Y-87807327D01*
X123886049Y-87807324D01*
X123886048Y-87807322D01*
X123761109Y-87635356D01*
X123610786Y-87485033D01*
X123438820Y-87360094D01*
X123287612Y-87283050D01*
X123287063Y-87282770D01*
X123236268Y-87234797D01*
X123219473Y-87166976D01*
X123242010Y-87100841D01*
X123287062Y-87061801D01*
X123438816Y-86984480D01*
X123535246Y-86914420D01*
X123610786Y-86859538D01*
X123610788Y-86859535D01*
X123610792Y-86859533D01*
X123761104Y-86709221D01*
X123761106Y-86709217D01*
X123761109Y-86709215D01*
X123886048Y-86537249D01*
X123886047Y-86537249D01*
X123886051Y-86537245D01*
X123982557Y-86347841D01*
X124048246Y-86145672D01*
X124081500Y-85935716D01*
X124081500Y-85723142D01*
X124048246Y-85513186D01*
X123982557Y-85311017D01*
X123886051Y-85121613D01*
X123886049Y-85121610D01*
X123886048Y-85121608D01*
X123761109Y-84949642D01*
X123610786Y-84799319D01*
X123438820Y-84674380D01*
X123286513Y-84596776D01*
X123235717Y-84548802D01*
X123218922Y-84480981D01*
X123241459Y-84414846D01*
X123286513Y-84375806D01*
X123438554Y-84298336D01*
X123492716Y-84258984D01*
X123492717Y-84258984D01*
X122860408Y-83626676D01*
X122923993Y-83609639D01*
X123038007Y-83543813D01*
X123131099Y-83450721D01*
X123196925Y-83336707D01*
X123213962Y-83273122D01*
X123846270Y-83905431D01*
X123846270Y-83905430D01*
X123885622Y-83851268D01*
X123982095Y-83661931D01*
X124047757Y-83459844D01*
X124047757Y-83459841D01*
X124081000Y-83249960D01*
X124081000Y-83037467D01*
X124047757Y-82827586D01*
X124047757Y-82827583D01*
X123982095Y-82625496D01*
X123885624Y-82436163D01*
X123846270Y-82381996D01*
X123846269Y-82381996D01*
X123213962Y-83014304D01*
X123196925Y-82950721D01*
X123131099Y-82836707D01*
X123038007Y-82743615D01*
X122923993Y-82677789D01*
X122860409Y-82660751D01*
X123492716Y-82028442D01*
X123438550Y-81989089D01*
X123286514Y-81911622D01*
X123235718Y-81863647D01*
X123218923Y-81795826D01*
X123241461Y-81729691D01*
X123286515Y-81690652D01*
X123287065Y-81690372D01*
X123438816Y-81613051D01*
X123490255Y-81575678D01*
X123610786Y-81488109D01*
X123610788Y-81488106D01*
X123610792Y-81488104D01*
X123761104Y-81337792D01*
X123761106Y-81337788D01*
X123761109Y-81337786D01*
X123886048Y-81165820D01*
X123886047Y-81165820D01*
X123886051Y-81165816D01*
X123982557Y-80976412D01*
X124048246Y-80774243D01*
X124081500Y-80564287D01*
X124081500Y-80351713D01*
X143980500Y-80351713D01*
X143980500Y-80564286D01*
X144013753Y-80774239D01*
X144079444Y-80976414D01*
X144175951Y-81165820D01*
X144300890Y-81337786D01*
X144451213Y-81488109D01*
X144623179Y-81613048D01*
X144623181Y-81613049D01*
X144623184Y-81613051D01*
X144741000Y-81673081D01*
X144774935Y-81690372D01*
X144825731Y-81738347D01*
X144842526Y-81806168D01*
X144819989Y-81872303D01*
X144774935Y-81911342D01*
X144623179Y-81988665D01*
X144451213Y-82113604D01*
X144300890Y-82263927D01*
X144175951Y-82435893D01*
X144079444Y-82625299D01*
X144013753Y-82827474D01*
X143980500Y-83037427D01*
X143980500Y-83250000D01*
X144013735Y-83459841D01*
X144013754Y-83459957D01*
X144077417Y-83655892D01*
X144079444Y-83662128D01*
X144175951Y-83851534D01*
X144300890Y-84023500D01*
X144451213Y-84173823D01*
X144623179Y-84298762D01*
X144623181Y-84298763D01*
X144623184Y-84298765D01*
X144774936Y-84376086D01*
X144825732Y-84424060D01*
X144842527Y-84491881D01*
X144819990Y-84558016D01*
X144774936Y-84597056D01*
X144623180Y-84674380D01*
X144451213Y-84799319D01*
X144300890Y-84949642D01*
X144175951Y-85121608D01*
X144079444Y-85311014D01*
X144013753Y-85513189D01*
X143980500Y-85723142D01*
X143980500Y-85935715D01*
X144009506Y-86118856D01*
X144013754Y-86145672D01*
X144027733Y-86188696D01*
X144079444Y-86347843D01*
X144175951Y-86537249D01*
X144300890Y-86709215D01*
X144451213Y-86859538D01*
X144623179Y-86984477D01*
X144623181Y-86984478D01*
X144623184Y-86984480D01*
X144774935Y-87061801D01*
X144775485Y-87062081D01*
X144826281Y-87110055D01*
X144843076Y-87177876D01*
X144820539Y-87244011D01*
X144775486Y-87283050D01*
X144623443Y-87360521D01*
X144623440Y-87360523D01*
X144569282Y-87399870D01*
X144569282Y-87399871D01*
X145201591Y-88032180D01*
X145138007Y-88049218D01*
X145023993Y-88115044D01*
X144930901Y-88208136D01*
X144865075Y-88322150D01*
X144848037Y-88385734D01*
X144215728Y-87753425D01*
X144215727Y-87753425D01*
X144176380Y-87807582D01*
X144079904Y-87996925D01*
X144014242Y-88199012D01*
X144014242Y-88199015D01*
X143981000Y-88408896D01*
X143981000Y-88621389D01*
X144014242Y-88831270D01*
X144014242Y-88831273D01*
X144079904Y-89033360D01*
X144176375Y-89222693D01*
X144215728Y-89276859D01*
X144848037Y-88644551D01*
X144865075Y-88708136D01*
X144930901Y-88822150D01*
X145023993Y-88915242D01*
X145138007Y-88981068D01*
X145201590Y-88998105D01*
X144569282Y-89630412D01*
X144569282Y-89630413D01*
X144623449Y-89669767D01*
X144775485Y-89747234D01*
X144826281Y-89795209D01*
X144843076Y-89863030D01*
X144820538Y-89929165D01*
X144775485Y-89968204D01*
X144623180Y-90045808D01*
X144451213Y-90170747D01*
X144300890Y-90321070D01*
X144175951Y-90493036D01*
X144079444Y-90682442D01*
X144013753Y-90884617D01*
X143980500Y-91094570D01*
X143980500Y-91307144D01*
X143990534Y-91370501D01*
X144012010Y-91506093D01*
X144013754Y-91517100D01*
X144075570Y-91707350D01*
X144079444Y-91719271D01*
X144175951Y-91908677D01*
X144300890Y-92080643D01*
X144451213Y-92230966D01*
X144623179Y-92355905D01*
X144623181Y-92355906D01*
X144623184Y-92355908D01*
X144741000Y-92415938D01*
X144774935Y-92433229D01*
X144825731Y-92481204D01*
X144842526Y-92549025D01*
X144819989Y-92615160D01*
X144774935Y-92654199D01*
X144623179Y-92731522D01*
X144451213Y-92856461D01*
X144300890Y-93006784D01*
X144175951Y-93178750D01*
X144079444Y-93368156D01*
X144013753Y-93570331D01*
X143980500Y-93780284D01*
X143980500Y-93992857D01*
X144013608Y-94201896D01*
X144013754Y-94202814D01*
X144079071Y-94403839D01*
X144079444Y-94404985D01*
X144175951Y-94594391D01*
X144300890Y-94766357D01*
X144451213Y-94916680D01*
X144623179Y-95041619D01*
X144623181Y-95041620D01*
X144623184Y-95041622D01*
X144774936Y-95118943D01*
X144825732Y-95166917D01*
X144842527Y-95234738D01*
X144819990Y-95300873D01*
X144774936Y-95339913D01*
X144623180Y-95417237D01*
X144451213Y-95542176D01*
X144300890Y-95692499D01*
X144175951Y-95864465D01*
X144079444Y-96053871D01*
X144013753Y-96256046D01*
X143984630Y-96439924D01*
X143980500Y-96465999D01*
X143980500Y-96678573D01*
X144013754Y-96888529D01*
X144030764Y-96940881D01*
X144079444Y-97090700D01*
X144175951Y-97280106D01*
X144300890Y-97452072D01*
X144300896Y-97452078D01*
X144451208Y-97602390D01*
X144562410Y-97683182D01*
X144605075Y-97738511D01*
X144611054Y-97808124D01*
X144578449Y-97869920D01*
X144517610Y-97904277D01*
X144489526Y-97907500D01*
X144433130Y-97907500D01*
X144433123Y-97907501D01*
X144373516Y-97913908D01*
X144238671Y-97964202D01*
X144238664Y-97964206D01*
X144123455Y-98050452D01*
X144123452Y-98050455D01*
X144037206Y-98165664D01*
X144037202Y-98165671D01*
X143986908Y-98300517D01*
X143983250Y-98334545D01*
X143980501Y-98360123D01*
X143980500Y-98360135D01*
X143980500Y-100155870D01*
X143980501Y-100155876D01*
X143986908Y-100215483D01*
X144037202Y-100350328D01*
X144037206Y-100350335D01*
X144123452Y-100465544D01*
X144123455Y-100465547D01*
X144238664Y-100551793D01*
X144238671Y-100551797D01*
X144373517Y-100602091D01*
X144373516Y-100602091D01*
X144380444Y-100602835D01*
X144433127Y-100608500D01*
X146228872Y-100608499D01*
X146288483Y-100602091D01*
X146423331Y-100551796D01*
X146538546Y-100465546D01*
X146624796Y-100350331D01*
X146675091Y-100215483D01*
X146681500Y-100155873D01*
X146681499Y-98360128D01*
X146675091Y-98300517D01*
X146658880Y-98257054D01*
X146624797Y-98165671D01*
X146624793Y-98165664D01*
X146538547Y-98050455D01*
X146538544Y-98050452D01*
X146423335Y-97964206D01*
X146423328Y-97964202D01*
X146288482Y-97913908D01*
X146288483Y-97913908D01*
X146228883Y-97907501D01*
X146228881Y-97907500D01*
X146228873Y-97907500D01*
X146228865Y-97907500D01*
X146172477Y-97907500D01*
X146105438Y-97887815D01*
X146059683Y-97835011D01*
X146049739Y-97765853D01*
X146078764Y-97702297D01*
X146099592Y-97683182D01*
X146210785Y-97602395D01*
X146210783Y-97602395D01*
X146210792Y-97602390D01*
X146361104Y-97452078D01*
X146361106Y-97452074D01*
X146361109Y-97452072D01*
X146486048Y-97280106D01*
X146486047Y-97280106D01*
X146486051Y-97280102D01*
X146582557Y-97090698D01*
X146648246Y-96888529D01*
X146681500Y-96678573D01*
X146681500Y-96465999D01*
X146648246Y-96256043D01*
X146582557Y-96053874D01*
X146486051Y-95864470D01*
X146486049Y-95864467D01*
X146486048Y-95864465D01*
X146361109Y-95692499D01*
X146210786Y-95542176D01*
X146038820Y-95417237D01*
X145887063Y-95339913D01*
X145836267Y-95291938D01*
X145819472Y-95224117D01*
X145842009Y-95157982D01*
X145887062Y-95118943D01*
X146038816Y-95041622D01*
X146103139Y-94994889D01*
X146210786Y-94916680D01*
X146210788Y-94916677D01*
X146210792Y-94916675D01*
X146361104Y-94766363D01*
X146361106Y-94766359D01*
X146361109Y-94766357D01*
X146486048Y-94594391D01*
X146486047Y-94594391D01*
X146486051Y-94594387D01*
X146582557Y-94404983D01*
X146648246Y-94202814D01*
X146681500Y-93992858D01*
X146681500Y-93780284D01*
X146676931Y-93751438D01*
X146685885Y-93682148D01*
X146730881Y-93628695D01*
X146797632Y-93608055D01*
X146864946Y-93626779D01*
X146887085Y-93644361D01*
X151505517Y-98262793D01*
X151539002Y-98324116D01*
X151534018Y-98393808D01*
X151492146Y-98449741D01*
X151461170Y-98466656D01*
X151356669Y-98505632D01*
X151356664Y-98505635D01*
X151241455Y-98591881D01*
X151241452Y-98591884D01*
X151155206Y-98707093D01*
X151155202Y-98707100D01*
X151104908Y-98841946D01*
X151098501Y-98901545D01*
X151098501Y-98901552D01*
X151098500Y-98901564D01*
X151098500Y-100697299D01*
X151098501Y-100697305D01*
X151104908Y-100756912D01*
X151155202Y-100891757D01*
X151155206Y-100891764D01*
X151241452Y-101006973D01*
X151241455Y-101006976D01*
X151356664Y-101093222D01*
X151356671Y-101093226D01*
X151488082Y-101142239D01*
X151544016Y-101184110D01*
X151568433Y-101249574D01*
X151553582Y-101317847D01*
X151532431Y-101346102D01*
X151418889Y-101459644D01*
X151293951Y-101631608D01*
X151197444Y-101821014D01*
X151131753Y-102023189D01*
X151098500Y-102233142D01*
X151098500Y-102445715D01*
X151131753Y-102655668D01*
X151197444Y-102857843D01*
X151293951Y-103047249D01*
X151418890Y-103219215D01*
X151569213Y-103369538D01*
X151741179Y-103494477D01*
X151741181Y-103494478D01*
X151741184Y-103494480D01*
X151930588Y-103590986D01*
X152132757Y-103656675D01*
X152342713Y-103689929D01*
X152342714Y-103689929D01*
X152555286Y-103689929D01*
X152555287Y-103689929D01*
X152765243Y-103656675D01*
X152967412Y-103590986D01*
X153156816Y-103494480D01*
X153178789Y-103478515D01*
X153328786Y-103369538D01*
X153328788Y-103369535D01*
X153328792Y-103369533D01*
X153479104Y-103219221D01*
X153479106Y-103219217D01*
X153479109Y-103219215D01*
X153604048Y-103047249D01*
X153604047Y-103047249D01*
X153604051Y-103047245D01*
X153700557Y-102857841D01*
X153766246Y-102655672D01*
X153799500Y-102445716D01*
X153799500Y-102233142D01*
X153766246Y-102023186D01*
X153700557Y-101821017D01*
X153604051Y-101631613D01*
X153604049Y-101631610D01*
X153604048Y-101631608D01*
X153479109Y-101459642D01*
X153365569Y-101346102D01*
X153332084Y-101284779D01*
X153337068Y-101215087D01*
X153378940Y-101159154D01*
X153409915Y-101142239D01*
X153541331Y-101093225D01*
X153656546Y-101006975D01*
X153742796Y-100891760D01*
X153793091Y-100756912D01*
X153799500Y-100697302D01*
X153799499Y-98901557D01*
X153793091Y-98841946D01*
X153782927Y-98814696D01*
X153742797Y-98707100D01*
X153742793Y-98707093D01*
X153656547Y-98591884D01*
X153656544Y-98591881D01*
X153541335Y-98505635D01*
X153541328Y-98505631D01*
X153406482Y-98455337D01*
X153406483Y-98455337D01*
X153346883Y-98448930D01*
X153346881Y-98448929D01*
X153346873Y-98448929D01*
X153346865Y-98448929D01*
X153200500Y-98448929D01*
X153133461Y-98429244D01*
X153087706Y-98376440D01*
X153076500Y-98324929D01*
X153076500Y-98257051D01*
X153052386Y-98135827D01*
X153052385Y-98135826D01*
X153052385Y-98135822D01*
X153052383Y-98135817D01*
X153005086Y-98021630D01*
X153005079Y-98021617D01*
X152936412Y-97918850D01*
X152899455Y-97881893D01*
X152849008Y-97831446D01*
X146674121Y-91656559D01*
X146640636Y-91595236D01*
X146643873Y-91530555D01*
X146648246Y-91517100D01*
X146681500Y-91307144D01*
X146681500Y-91094570D01*
X146648246Y-90884614D01*
X146582557Y-90682445D01*
X146486051Y-90493041D01*
X146486049Y-90493038D01*
X146486048Y-90493036D01*
X146361109Y-90321070D01*
X146210786Y-90170747D01*
X146038819Y-90045808D01*
X146038818Y-90045807D01*
X146038816Y-90045806D01*
X145887065Y-89968485D01*
X145886514Y-89968204D01*
X145835718Y-89920229D01*
X145818923Y-89852408D01*
X145841461Y-89786273D01*
X145886514Y-89747234D01*
X146038554Y-89669765D01*
X146092716Y-89630413D01*
X146092717Y-89630413D01*
X145460408Y-88998105D01*
X145523993Y-88981068D01*
X145638007Y-88915242D01*
X145731099Y-88822150D01*
X145796925Y-88708136D01*
X145813962Y-88644551D01*
X146446270Y-89276860D01*
X146446270Y-89276859D01*
X146485622Y-89222697D01*
X146582095Y-89033360D01*
X146647757Y-88831273D01*
X146647757Y-88831270D01*
X146681000Y-88621389D01*
X146681000Y-88408896D01*
X146647757Y-88199015D01*
X146647757Y-88199012D01*
X146582095Y-87996925D01*
X146485624Y-87807592D01*
X146446270Y-87753425D01*
X146446269Y-87753425D01*
X145813962Y-88385733D01*
X145796925Y-88322150D01*
X145731099Y-88208136D01*
X145638007Y-88115044D01*
X145523993Y-88049218D01*
X145460409Y-88032180D01*
X146092716Y-87399871D01*
X146038550Y-87360518D01*
X145886514Y-87283051D01*
X145835718Y-87235076D01*
X145818923Y-87167255D01*
X145841461Y-87101120D01*
X145886515Y-87062081D01*
X145887065Y-87061801D01*
X146038816Y-86984480D01*
X146135246Y-86914420D01*
X146210786Y-86859538D01*
X146210788Y-86859535D01*
X146210792Y-86859533D01*
X146361104Y-86709221D01*
X146361106Y-86709217D01*
X146361109Y-86709215D01*
X146486048Y-86537249D01*
X146486047Y-86537249D01*
X146486051Y-86537245D01*
X146582557Y-86347841D01*
X146648246Y-86145672D01*
X146681500Y-85935716D01*
X146681500Y-85723142D01*
X146648246Y-85513186D01*
X146582557Y-85311017D01*
X146486051Y-85121613D01*
X146486049Y-85121610D01*
X146486048Y-85121608D01*
X146361109Y-84949642D01*
X146210786Y-84799319D01*
X146038820Y-84674380D01*
X145887063Y-84597056D01*
X145836267Y-84549081D01*
X145819472Y-84481260D01*
X145842009Y-84415125D01*
X145887062Y-84376086D01*
X146038816Y-84298765D01*
X146093572Y-84258983D01*
X146210786Y-84173823D01*
X146210788Y-84173820D01*
X146210792Y-84173818D01*
X146361104Y-84023506D01*
X146401399Y-83968043D01*
X146456729Y-83925378D01*
X146501718Y-83916929D01*
X151431039Y-83916929D01*
X151498078Y-83936614D01*
X151541525Y-83984637D01*
X151547949Y-83997247D01*
X151672890Y-84169215D01*
X151823213Y-84319538D01*
X151995182Y-84444479D01*
X152003946Y-84448945D01*
X152054742Y-84496920D01*
X152071536Y-84564741D01*
X152048998Y-84630876D01*
X152003946Y-84669913D01*
X151995182Y-84674378D01*
X151823213Y-84799319D01*
X151672890Y-84949642D01*
X151547951Y-85121608D01*
X151451444Y-85311014D01*
X151385753Y-85513189D01*
X151352500Y-85723142D01*
X151352500Y-85935715D01*
X151381506Y-86118856D01*
X151385754Y-86145672D01*
X151399733Y-86188696D01*
X151451444Y-86347843D01*
X151547951Y-86537249D01*
X151672890Y-86709215D01*
X151786818Y-86823143D01*
X151820303Y-86884466D01*
X151815319Y-86954158D01*
X151773447Y-87010091D01*
X151742471Y-87027006D01*
X151610912Y-87076075D01*
X151610906Y-87076078D01*
X151495812Y-87162238D01*
X151495809Y-87162241D01*
X151409649Y-87277335D01*
X151409645Y-87277342D01*
X151359403Y-87412049D01*
X151359401Y-87412056D01*
X151353000Y-87471584D01*
X151353000Y-88119429D01*
X152269988Y-88119429D01*
X152237075Y-88176436D01*
X152203000Y-88303603D01*
X152203000Y-88435255D01*
X152237075Y-88562422D01*
X152269988Y-88619429D01*
X151353000Y-88619429D01*
X151353000Y-89267273D01*
X151359401Y-89326801D01*
X151359403Y-89326808D01*
X151409645Y-89461515D01*
X151409649Y-89461522D01*
X151495809Y-89576616D01*
X151495812Y-89576619D01*
X151610906Y-89662779D01*
X151610913Y-89662783D01*
X151745620Y-89713025D01*
X151745627Y-89713027D01*
X151805155Y-89719428D01*
X151805172Y-89719429D01*
X152453000Y-89719429D01*
X152453000Y-88802441D01*
X152510007Y-88835354D01*
X152637174Y-88869429D01*
X152768826Y-88869429D01*
X152895993Y-88835354D01*
X152953000Y-88802441D01*
X152953000Y-89719429D01*
X153600828Y-89719429D01*
X153600844Y-89719428D01*
X153660372Y-89713027D01*
X153660379Y-89713025D01*
X153795086Y-89662783D01*
X153795093Y-89662779D01*
X153910187Y-89576619D01*
X153910190Y-89576616D01*
X153996350Y-89461522D01*
X153996354Y-89461515D01*
X154046596Y-89326808D01*
X154046598Y-89326801D01*
X154052999Y-89267273D01*
X154053000Y-89267256D01*
X154053000Y-88619429D01*
X153136012Y-88619429D01*
X153168925Y-88562422D01*
X153203000Y-88435255D01*
X153203000Y-88303603D01*
X153168925Y-88176436D01*
X153136012Y-88119429D01*
X154053000Y-88119429D01*
X154053000Y-87471601D01*
X154052999Y-87471584D01*
X154046598Y-87412056D01*
X154046596Y-87412049D01*
X153996354Y-87277342D01*
X153996350Y-87277335D01*
X153910190Y-87162241D01*
X153910187Y-87162238D01*
X153795093Y-87076078D01*
X153795088Y-87076075D01*
X153663528Y-87027006D01*
X153607595Y-86985134D01*
X153583178Y-86919670D01*
X153598030Y-86851397D01*
X153619175Y-86823149D01*
X153733104Y-86709221D01*
X153858051Y-86537245D01*
X153954557Y-86347841D01*
X154020246Y-86145672D01*
X154053500Y-85935716D01*
X154053500Y-85723142D01*
X154020246Y-85513186D01*
X153954557Y-85311017D01*
X153858051Y-85121613D01*
X153858049Y-85121610D01*
X153858048Y-85121608D01*
X153733109Y-84949642D01*
X153582786Y-84799319D01*
X153410820Y-84674380D01*
X153410115Y-84674020D01*
X153402054Y-84669914D01*
X153351259Y-84621941D01*
X153334463Y-84554121D01*
X153356999Y-84487985D01*
X153402054Y-84448944D01*
X153410816Y-84444480D01*
X153504953Y-84376086D01*
X153582786Y-84319538D01*
X153582788Y-84319535D01*
X153582792Y-84319533D01*
X153733104Y-84169221D01*
X153733106Y-84169217D01*
X153733109Y-84169215D01*
X153858048Y-83997249D01*
X153858047Y-83997249D01*
X153858051Y-83997245D01*
X153954557Y-83807841D01*
X154020246Y-83605672D01*
X154053500Y-83395716D01*
X154053500Y-83183142D01*
X154020246Y-82973186D01*
X153954557Y-82771017D01*
X153858051Y-82581613D01*
X153858049Y-82581610D01*
X153858048Y-82581608D01*
X153733109Y-82409642D01*
X153582786Y-82259319D01*
X153410820Y-82134380D01*
X153221414Y-82037873D01*
X153221413Y-82037872D01*
X153221412Y-82037872D01*
X153019243Y-81972183D01*
X153019241Y-81972182D01*
X153019240Y-81972182D01*
X152857957Y-81946637D01*
X152809287Y-81938929D01*
X152596713Y-81938929D01*
X152548042Y-81946637D01*
X152386760Y-81972182D01*
X152386757Y-81972183D01*
X152213614Y-82028441D01*
X152184585Y-82037873D01*
X151995179Y-82134380D01*
X151823213Y-82259319D01*
X151672890Y-82409642D01*
X151547949Y-82581610D01*
X151541525Y-82594221D01*
X151493552Y-82645018D01*
X151431039Y-82661929D01*
X146677207Y-82661929D01*
X146610168Y-82642244D01*
X146566722Y-82594224D01*
X146486186Y-82436163D01*
X146486051Y-82435898D01*
X146486049Y-82435895D01*
X146486048Y-82435893D01*
X146361109Y-82263927D01*
X146210786Y-82113604D01*
X146038820Y-81988665D01*
X145887612Y-81911621D01*
X145887063Y-81911341D01*
X145836268Y-81863368D01*
X145819473Y-81795547D01*
X145842010Y-81729412D01*
X145887062Y-81690372D01*
X146038816Y-81613051D01*
X146060789Y-81597086D01*
X146210786Y-81488109D01*
X146210788Y-81488106D01*
X146210792Y-81488104D01*
X146361104Y-81337792D01*
X146361106Y-81337788D01*
X146361109Y-81337786D01*
X146486048Y-81165820D01*
X146486047Y-81165820D01*
X146486051Y-81165816D01*
X146582557Y-80976412D01*
X146648246Y-80774243D01*
X146681500Y-80564287D01*
X146681500Y-80351713D01*
X146648246Y-80141757D01*
X146582557Y-79939588D01*
X146486051Y-79750184D01*
X146486049Y-79750181D01*
X146486048Y-79750179D01*
X146361109Y-79578213D01*
X146210786Y-79427890D01*
X146038820Y-79302951D01*
X145849414Y-79206444D01*
X145849413Y-79206443D01*
X145849412Y-79206443D01*
X145647243Y-79140754D01*
X145647241Y-79140753D01*
X145647240Y-79140753D01*
X145485957Y-79115208D01*
X145437287Y-79107500D01*
X145224713Y-79107500D01*
X145176042Y-79115208D01*
X145014760Y-79140753D01*
X144812585Y-79206444D01*
X144623179Y-79302951D01*
X144451213Y-79427890D01*
X144300890Y-79578213D01*
X144175951Y-79750179D01*
X144079444Y-79939585D01*
X144013753Y-80141760D01*
X143980500Y-80351713D01*
X124081500Y-80351713D01*
X124048246Y-80141757D01*
X123982557Y-79939588D01*
X123886051Y-79750184D01*
X123886049Y-79750181D01*
X123886048Y-79750179D01*
X123761109Y-79578213D01*
X123610786Y-79427890D01*
X123438820Y-79302951D01*
X123249414Y-79206444D01*
X123249413Y-79206443D01*
X123249412Y-79206443D01*
X123047243Y-79140754D01*
X123047241Y-79140753D01*
X123047240Y-79140753D01*
X122885957Y-79115208D01*
X122837287Y-79107500D01*
X122624713Y-79107500D01*
X122576042Y-79115208D01*
X122414760Y-79140753D01*
X122212585Y-79206444D01*
X122023179Y-79302951D01*
X121851213Y-79427890D01*
X121700890Y-79578213D01*
X121575951Y-79750179D01*
X121479444Y-79939585D01*
X121413753Y-80141760D01*
X121380500Y-80351713D01*
X114522630Y-80351713D01*
X114522630Y-74549032D01*
X114521998Y-74546672D01*
X114517773Y-74514581D01*
X114517773Y-74484783D01*
X114480089Y-74258953D01*
X114456114Y-74189116D01*
X114405750Y-74042413D01*
X114405747Y-74042408D01*
X114405745Y-74042402D01*
X114334821Y-73911348D01*
X114320225Y-73843020D01*
X114344887Y-73777648D01*
X114356190Y-73764652D01*
X114380624Y-73740219D01*
X114453731Y-73613595D01*
X114491573Y-73472364D01*
X114491573Y-73326150D01*
X114453731Y-73184919D01*
X114382333Y-73061255D01*
X114365861Y-72993358D01*
X114382333Y-72937258D01*
X114453731Y-72813595D01*
X114491573Y-72672364D01*
X114491573Y-72526150D01*
X114453731Y-72384919D01*
X114380624Y-72258295D01*
X114380623Y-72258294D01*
X114377334Y-72252597D01*
X114360861Y-72184696D01*
X114377335Y-72128595D01*
X114443728Y-72013600D01*
X114443729Y-72013598D01*
X114443728Y-72013598D01*
X114443731Y-72013595D01*
X114481573Y-71872364D01*
X114481573Y-71726150D01*
X114443731Y-71584919D01*
X114370624Y-71458295D01*
X114352683Y-71440354D01*
X114319198Y-71379031D01*
X114324182Y-71309339D01*
X114331309Y-71293655D01*
X114352066Y-71255300D01*
X114405750Y-71156101D01*
X114480090Y-70939558D01*
X114517773Y-70713731D01*
X114517773Y-70599257D01*
X114517773Y-70544406D01*
X114517773Y-69739401D01*
X116069700Y-69739401D01*
X116069700Y-69960598D01*
X116104304Y-70179076D01*
X116104304Y-70179079D01*
X116172656Y-70389445D01*
X116172658Y-70389448D01*
X116273080Y-70586537D01*
X116403098Y-70765491D01*
X116559509Y-70921902D01*
X116738463Y-71051920D01*
X116820453Y-71093696D01*
X116935554Y-71152343D01*
X117122999Y-71213247D01*
X117145925Y-71220696D01*
X117364401Y-71255300D01*
X117364402Y-71255300D01*
X117585598Y-71255300D01*
X117585599Y-71255300D01*
X117804075Y-71220696D01*
X117804078Y-71220695D01*
X117804079Y-71220695D01*
X118014445Y-71152343D01*
X118014445Y-71152342D01*
X118014448Y-71152342D01*
X118211537Y-71051920D01*
X118390491Y-70921902D01*
X118546902Y-70765491D01*
X118676920Y-70586537D01*
X118777342Y-70389448D01*
X118845696Y-70179075D01*
X118880300Y-69960599D01*
X118880300Y-69739401D01*
X118860185Y-69612401D01*
X149978700Y-69612401D01*
X149978700Y-69833598D01*
X150013304Y-70052076D01*
X150013304Y-70052079D01*
X150081656Y-70262445D01*
X150146366Y-70389445D01*
X150182080Y-70459537D01*
X150312098Y-70638491D01*
X150468509Y-70794902D01*
X150647463Y-70924920D01*
X150676192Y-70939558D01*
X150844554Y-71025343D01*
X151040775Y-71089098D01*
X151054925Y-71093696D01*
X151273401Y-71128300D01*
X151273402Y-71128300D01*
X151494598Y-71128300D01*
X151494599Y-71128300D01*
X151713075Y-71093696D01*
X151713078Y-71093695D01*
X151713079Y-71093695D01*
X151923445Y-71025343D01*
X151923445Y-71025342D01*
X151923448Y-71025342D01*
X152120537Y-70924920D01*
X152299491Y-70794902D01*
X152455902Y-70638491D01*
X152585920Y-70459537D01*
X152686342Y-70262448D01*
X152713431Y-70179076D01*
X152754695Y-70052079D01*
X152754695Y-70052078D01*
X152754696Y-70052075D01*
X152789300Y-69833599D01*
X152789300Y-69612401D01*
X152754696Y-69393925D01*
X152754695Y-69393921D01*
X152754695Y-69393920D01*
X152686343Y-69183554D01*
X152585919Y-68986462D01*
X152455902Y-68807509D01*
X152299491Y-68651098D01*
X152120537Y-68521080D01*
X152038547Y-68479304D01*
X151923445Y-68420656D01*
X151713077Y-68352304D01*
X151567424Y-68329234D01*
X151494599Y-68317700D01*
X151273401Y-68317700D01*
X151200575Y-68329234D01*
X151054923Y-68352304D01*
X151054920Y-68352304D01*
X150844554Y-68420656D01*
X150647462Y-68521080D01*
X150545362Y-68595260D01*
X150468509Y-68651098D01*
X150468507Y-68651100D01*
X150468506Y-68651100D01*
X150312100Y-68807506D01*
X150312100Y-68807507D01*
X150312098Y-68807509D01*
X150256260Y-68884362D01*
X150182080Y-68986462D01*
X150081656Y-69183554D01*
X150013304Y-69393920D01*
X150013304Y-69393923D01*
X149978700Y-69612401D01*
X118860185Y-69612401D01*
X118845696Y-69520925D01*
X118845695Y-69520921D01*
X118845695Y-69520920D01*
X118777343Y-69310554D01*
X118676919Y-69113462D01*
X118546902Y-68934509D01*
X118390491Y-68778098D01*
X118211537Y-68648080D01*
X118014445Y-68547656D01*
X117804077Y-68479304D01*
X117658424Y-68456234D01*
X117585599Y-68444700D01*
X117364401Y-68444700D01*
X117291575Y-68456234D01*
X117145923Y-68479304D01*
X117145920Y-68479304D01*
X116935554Y-68547656D01*
X116738462Y-68648080D01*
X116636362Y-68722260D01*
X116559509Y-68778098D01*
X116559507Y-68778100D01*
X116559506Y-68778100D01*
X116403100Y-68934506D01*
X116403100Y-68934507D01*
X116403098Y-68934509D01*
X116365352Y-68986462D01*
X116273080Y-69113462D01*
X116172656Y-69310554D01*
X116104304Y-69520920D01*
X116104304Y-69520923D01*
X116069700Y-69739401D01*
X114517773Y-69739401D01*
X114517773Y-65123427D01*
X114518089Y-65114581D01*
X114521365Y-65068775D01*
X114533614Y-64897499D01*
X114536130Y-64880002D01*
X114581450Y-64671670D01*
X114586429Y-64654712D01*
X114660935Y-64454953D01*
X114668283Y-64438863D01*
X114770453Y-64251750D01*
X114780018Y-64236866D01*
X114780663Y-64236004D01*
X114907783Y-64066190D01*
X114919357Y-64052832D01*
X115070118Y-63902070D01*
X115083473Y-63890497D01*
X115254147Y-63762730D01*
X115269030Y-63753167D01*
X115456144Y-63650992D01*
X115472228Y-63643645D01*
X115671986Y-63569137D01*
X115688945Y-63564157D01*
X115897277Y-63518834D01*
X115914785Y-63516317D01*
X116037841Y-63507514D01*
X116131485Y-63500816D01*
X116140332Y-63500500D01*
X152971899Y-63500500D01*
X152983236Y-63500501D01*
G37*
%TD.AperFunction*%
%TD*%
M02*
