%TF.GenerationSoftware,KiCad,Pcbnew,9.0.3*%
%TF.CreationDate,2026-04-11T12:09:20+05:30*%
%TF.ProjectId,hh3.0,6868332e-302e-46b6-9963-61645f706362,rev?*%
%TF.SameCoordinates,Original*%
%TF.FileFunction,Profile,NP*%
%FSLAX46Y46*%
G04 Gerber Fmt 4.6, Leading zero omitted, Abs format (unit mm)*
G04 Created by KiCad (PCBNEW 9.0.3) date 2026-04-11 12:09:20*
%MOMM*%
%LPD*%
G01*
G04 APERTURE LIST*
%TA.AperFunction,Profile*%
%ADD10C,0.050000*%
%TD*%
%ADD11C,0.050000*%
G04 APERTURE END LIST*
D10*
X114136273Y-65119000D02*
X114136273Y-70599257D01*
X116136273Y-63119000D02*
X153035000Y-63119000D01*
X155067000Y-104648000D02*
X155067000Y-65119000D01*
D11*
X155067000Y-104902000D02*
X155067000Y-104648000D01*
X153543000Y-106172000D02*
X153549203Y-106171990D01*
X153555392Y-106171960D01*
X153561570Y-106171910D01*
X153567733Y-106171841D01*
X153573887Y-106171751D01*
X153580025Y-106171642D01*
X153586153Y-106171513D01*
X153592266Y-106171364D01*
X153598370Y-106171195D01*
X153604458Y-106171007D01*
X153610537Y-106170800D01*
X153616600Y-106170573D01*
X153622654Y-106170326D01*
X153628693Y-106170060D01*
X153634723Y-106169774D01*
X153640738Y-106169469D01*
X153646743Y-106169145D01*
X153652733Y-106168801D01*
X153658714Y-106168438D01*
X153664680Y-106168055D01*
X153670638Y-106167654D01*
X153676580Y-106167233D01*
X153682513Y-106166793D01*
X153688431Y-106166334D01*
X153694340Y-106165856D01*
X153700234Y-106165359D01*
X153706120Y-106164842D01*
X153711991Y-106164307D01*
X153717853Y-106163753D01*
X153723700Y-106163180D01*
X153735362Y-106161977D01*
X153746978Y-106160699D01*
X153758547Y-106159345D01*
X153770070Y-106157917D01*
X153781547Y-106156413D01*
X153792978Y-106154836D01*
X153804364Y-106153184D01*
X153815705Y-106151458D01*
X153827001Y-106149658D01*
X153838252Y-106147785D01*
X153849458Y-106145838D01*
X153860620Y-106143818D01*
X153871738Y-106141724D01*
X153882812Y-106139558D01*
X153893842Y-106137319D01*
X153904829Y-106135008D01*
X153915772Y-106132624D01*
X153926673Y-106130168D01*
X153937530Y-106127640D01*
X153948345Y-106125040D01*
X153959117Y-106122368D01*
X153969847Y-106119624D01*
X153980535Y-106116808D01*
X153991181Y-106113922D01*
X154001785Y-106110964D01*
X154012347Y-106107934D01*
X154022868Y-106104834D01*
X154033348Y-106101663D01*
X154043787Y-106098420D01*
X154054185Y-106095107D01*
X154064542Y-106091723D01*
X154074858Y-106088269D01*
X154085134Y-106084744D01*
X154095369Y-106081148D01*
X154105564Y-106077482D01*
X154115719Y-106073746D01*
X154125835Y-106069939D01*
X154135910Y-106066062D01*
X154145946Y-106062115D01*
X154155942Y-106058098D01*
X154165898Y-106054011D01*
X154175815Y-106049854D01*
X154185693Y-106045626D01*
X154195532Y-106041329D01*
X154205331Y-106036962D01*
X154215092Y-106032524D01*
X154224813Y-106028017D01*
X154234496Y-106023440D01*
X154244140Y-106018793D01*
X154253745Y-106014077D01*
X154263311Y-106009290D01*
X154272838Y-106004434D01*
X154282327Y-105999507D01*
X154291778Y-105994511D01*
X154301190Y-105989445D01*
X154310563Y-105984310D01*
X154319897Y-105979104D01*
X154329194Y-105973829D01*
X154338451Y-105968483D01*
X154347670Y-105963068D01*
X154356851Y-105957583D01*
X154365992Y-105952029D01*
X154375096Y-105946404D01*
X154384160Y-105940710D01*
X154393186Y-105934945D01*
X154402173Y-105929111D01*
X154411121Y-105923207D01*
X154420031Y-105917233D01*
X154428901Y-105911189D01*
X154437732Y-105905076D01*
X154446524Y-105898892D01*
X154455277Y-105892639D01*
X154463991Y-105886316D01*
X154472665Y-105879923D01*
X154481299Y-105873460D01*
X154489893Y-105866927D01*
X154498448Y-105860325D01*
X154506962Y-105853652D01*
X154515436Y-105846910D01*
X154523870Y-105840099D01*
X154532263Y-105833218D01*
X154540615Y-105826267D01*
X154548926Y-105819246D01*
X154557196Y-105812156D01*
X154565424Y-105804997D01*
X154573610Y-105797769D01*
X154581754Y-105790471D01*
X154589856Y-105783104D01*
X154597915Y-105775669D01*
X154605932Y-105768164D01*
X154613905Y-105760591D01*
X154621834Y-105752949D01*
X154629720Y-105745239D01*
X154637561Y-105737460D01*
X154645358Y-105729614D01*
X154653110Y-105721700D01*
X154660816Y-105713718D01*
X154668477Y-105705669D01*
X154676091Y-105697553D01*
X154683659Y-105689370D01*
X154691180Y-105681121D01*
X154698653Y-105672806D01*
X154706078Y-105664425D01*
X154713454Y-105655979D01*
X154720781Y-105647468D01*
X154728059Y-105638893D01*
X154735286Y-105630253D01*
X154742463Y-105621550D01*
X154749589Y-105612784D01*
X154756662Y-105603956D01*
X154763683Y-105595066D01*
X154770651Y-105586115D01*
X154777564Y-105577103D01*
X154784424Y-105568032D01*
X154791228Y-105558902D01*
X154797976Y-105549714D01*
X154804667Y-105540468D01*
X154811301Y-105531167D01*
X154817876Y-105521810D01*
X154824392Y-105512398D01*
X154830848Y-105502934D01*
X154837244Y-105493417D01*
X154843578Y-105483850D01*
X154849849Y-105474233D01*
X154856056Y-105464567D01*
X154862199Y-105454856D01*
X154868277Y-105445098D01*
X154874288Y-105435297D01*
X154880231Y-105425455D01*
X154886106Y-105415572D01*
X154891911Y-105405650D01*
X154897646Y-105395692D01*
X154903308Y-105385700D01*
X154908897Y-105375676D01*
X154914412Y-105365621D01*
X154919851Y-105355540D01*
X154925214Y-105345433D01*
X154930498Y-105335304D01*
X154935703Y-105325155D01*
X154940827Y-105314990D01*
X154945869Y-105304811D01*
X154950827Y-105294621D01*
X154955701Y-105284425D01*
X154960488Y-105274225D01*
X154965188Y-105264025D01*
X154969798Y-105253829D01*
X154974317Y-105243641D01*
X154978744Y-105233465D01*
X154983078Y-105223306D01*
X154987316Y-105213168D01*
X154991457Y-105203056D01*
X154995500Y-105192975D01*
X154999442Y-105182930D01*
X155003284Y-105172927D01*
X155007022Y-105162970D01*
X155010655Y-105153066D01*
X155014183Y-105143221D01*
X155017603Y-105133441D01*
X155020914Y-105123732D01*
X155022530Y-105118903D01*
X155024115Y-105114101D01*
X155025675Y-105109313D01*
X155027204Y-105104555D01*
X155028708Y-105099812D01*
X155030181Y-105095100D01*
X155031627Y-105090406D01*
X155033043Y-105085743D01*
X155034431Y-105081102D01*
X155035790Y-105076492D01*
X155037120Y-105071907D01*
X155038420Y-105067354D01*
X155039692Y-105062828D01*
X155040934Y-105058336D01*
X155042147Y-105053874D01*
X155043330Y-105049447D01*
X155044483Y-105045051D01*
X155045607Y-105040692D01*
X155046701Y-105036368D01*
X155047765Y-105032080D01*
X155048799Y-105027831D01*
X155049804Y-105023619D01*
X155050778Y-105019448D01*
X155051723Y-105015315D01*
X155052638Y-105011227D01*
X155053523Y-105007177D01*
X155054378Y-105003174D01*
X155055204Y-104999211D01*
X155055999Y-104995297D01*
X155056766Y-104991424D01*
X155057501Y-104987603D01*
X155058209Y-104983823D01*
X155058886Y-104980098D01*
X155059536Y-104976415D01*
X155060155Y-104972789D01*
X155060746Y-104969205D01*
X155061308Y-104965681D01*
X155061842Y-104962199D01*
X155062347Y-104958780D01*
X155062825Y-104955403D01*
X155063274Y-104952091D01*
X155063697Y-104948822D01*
X155064092Y-104945619D01*
X155064461Y-104942459D01*
X155064801Y-104939367D01*
X155065117Y-104936318D01*
X155065406Y-104933338D01*
X155065671Y-104930402D01*
X155065909Y-104927537D01*
X155066123Y-104924714D01*
X155066312Y-104921963D01*
X155066478Y-104919255D01*
X155066619Y-104916619D01*
X155066738Y-104914026D01*
X155066834Y-104911506D01*
X155066907Y-104909028D01*
X155066959Y-104906623D01*
X155066990Y-104904260D01*
X155067000Y-104902000D01*
X115570000Y-106045000D02*
X115592995Y-106045040D01*
X115684849Y-106045292D01*
X115937226Y-106046075D01*
X116491628Y-106047882D01*
X117549079Y-106051414D01*
X119398087Y-106057672D01*
X122519924Y-106068316D01*
X126984908Y-106083589D01*
X131231160Y-106098116D01*
X135638953Y-106113167D01*
X137836825Y-106120652D01*
X139995160Y-106127984D01*
X142087317Y-106135067D01*
X144086656Y-106141807D01*
X145966535Y-106148109D01*
X147700314Y-106153879D01*
X149261352Y-106159021D01*
X149968768Y-106161327D01*
X150623008Y-106163440D01*
X151220743Y-106165350D01*
X151758642Y-106167043D01*
X152233375Y-106168508D01*
X152641612Y-106169734D01*
X152980024Y-106170707D01*
X153245279Y-106171418D01*
X153349432Y-106171670D01*
X153434047Y-106171852D01*
X153498709Y-106171963D01*
X153543000Y-106172000D01*
X114157000Y-104648000D02*
X114157097Y-104656260D01*
X114157213Y-104664487D01*
X114157349Y-104672675D01*
X114157504Y-104680830D01*
X114157678Y-104688945D01*
X114157872Y-104697029D01*
X114158085Y-104705073D01*
X114158317Y-104713085D01*
X114158567Y-104721057D01*
X114158837Y-104728999D01*
X114159125Y-104736901D01*
X114159432Y-104744772D01*
X114159758Y-104752604D01*
X114160103Y-104760405D01*
X114160465Y-104768168D01*
X114160846Y-104775900D01*
X114161246Y-104783594D01*
X114161664Y-104791257D01*
X114162099Y-104798882D01*
X114162553Y-104806476D01*
X114163025Y-104814034D01*
X114163515Y-104821560D01*
X114164022Y-104829050D01*
X114164548Y-104836509D01*
X114165090Y-104843932D01*
X114165651Y-104851324D01*
X114166229Y-104858680D01*
X114166825Y-104866006D01*
X114167437Y-104873296D01*
X114168068Y-104880556D01*
X114168715Y-104887780D01*
X114169379Y-104894975D01*
X114170061Y-104902134D01*
X114170759Y-104909263D01*
X114171475Y-104916358D01*
X114172207Y-104923423D01*
X114172956Y-104930453D01*
X114173722Y-104937454D01*
X114174504Y-104944421D01*
X114175303Y-104951358D01*
X114176118Y-104958261D01*
X114176950Y-104965136D01*
X114177798Y-104971976D01*
X114178662Y-104978788D01*
X114179542Y-104985566D01*
X114180439Y-104992315D01*
X114181351Y-104999031D01*
X114182280Y-105005719D01*
X114183224Y-105012374D01*
X114184185Y-105019001D01*
X114185161Y-105025595D01*
X114186153Y-105032160D01*
X114187160Y-105038694D01*
X114188183Y-105045199D01*
X114189221Y-105051673D01*
X114190276Y-105058118D01*
X114191345Y-105064532D01*
X114192429Y-105070918D01*
X114193529Y-105077273D01*
X114194644Y-105083600D01*
X114195774Y-105089896D01*
X114196920Y-105096165D01*
X114198080Y-105102402D01*
X114199255Y-105108613D01*
X114200445Y-105114793D01*
X114201650Y-105120946D01*
X114202869Y-105127069D01*
X114204103Y-105133165D01*
X114205352Y-105139230D01*
X114206616Y-105145269D01*
X114207893Y-105151279D01*
X114209186Y-105157261D01*
X114210492Y-105163215D01*
X114211814Y-105169142D01*
X114213149Y-105175039D01*
X114214499Y-105180911D01*
X114215862Y-105186753D01*
X114217240Y-105192570D01*
X114218632Y-105198358D01*
X114220038Y-105204119D01*
X114221457Y-105209853D01*
X114222891Y-105215561D01*
X114224339Y-105221240D01*
X114225800Y-105226894D01*
X114227275Y-105232521D01*
X114228764Y-105238121D01*
X114230266Y-105243695D01*
X114231782Y-105249242D01*
X114233311Y-105254763D01*
X114234854Y-105260258D01*
X114236411Y-105265727D01*
X114237980Y-105271170D01*
X114239563Y-105276587D01*
X114241160Y-105281978D01*
X114242769Y-105287344D01*
X114244392Y-105292684D01*
X114246028Y-105297998D01*
X114247677Y-105303288D01*
X114249339Y-105308552D01*
X114251014Y-105313791D01*
X114252701Y-105319005D01*
X114254402Y-105324194D01*
X114256116Y-105329358D01*
X114257843Y-105334497D01*
X114259582Y-105339612D01*
X114261334Y-105344702D01*
X114263099Y-105349768D01*
X114264876Y-105354809D01*
X114266666Y-105359826D01*
X114268469Y-105364819D01*
X114270284Y-105369788D01*
X114272112Y-105374733D01*
X114273952Y-105379654D01*
X114275805Y-105384552D01*
X114277670Y-105389425D01*
X114279547Y-105394275D01*
X114281437Y-105399102D01*
X114283338Y-105403905D01*
X114285253Y-105408685D01*
X114287179Y-105413442D01*
X114289118Y-105418176D01*
X114291068Y-105422886D01*
X114293031Y-105427574D01*
X114295006Y-105432239D01*
X114296993Y-105436881D01*
X114298992Y-105441500D01*
X114301003Y-105446098D01*
X114303026Y-105450672D01*
X114305061Y-105455224D01*
X114307108Y-105459754D01*
X114309167Y-105464262D01*
X114311237Y-105468747D01*
X114313320Y-105473211D01*
X114315414Y-105477652D01*
X114317520Y-105482073D01*
X114319637Y-105486470D01*
X114321767Y-105490847D01*
X114323908Y-105495202D01*
X114326061Y-105499535D01*
X114328225Y-105503847D01*
X114330401Y-105508138D01*
X114332589Y-105512407D01*
X114334789Y-105516656D01*
X114336999Y-105520882D01*
X114339222Y-105525089D01*
X114341455Y-105529274D01*
X114343701Y-105533439D01*
X114345958Y-105537582D01*
X114348227Y-105541706D01*
X114350506Y-105545808D01*
X114352798Y-105549891D01*
X114355100Y-105553952D01*
X114357415Y-105557994D01*
X114359740Y-105562014D01*
X114362078Y-105566016D01*
X114364426Y-105569996D01*
X114366786Y-105573958D01*
X114369157Y-105577898D01*
X114371540Y-105581820D01*
X114373933Y-105585720D01*
X114376339Y-105589603D01*
X114378755Y-105593464D01*
X114381183Y-105597307D01*
X114383621Y-105601129D01*
X114386073Y-105604934D01*
X114388533Y-105608717D01*
X114391007Y-105612483D01*
X114393491Y-105616228D01*
X114395987Y-105619956D01*
X114398493Y-105623662D01*
X114401012Y-105627352D01*
X114403540Y-105631021D01*
X114408633Y-105638304D01*
X114413770Y-105645513D01*
X114418952Y-105652647D01*
X114424180Y-105659708D01*
X114429453Y-105666696D01*
X114434770Y-105673611D01*
X114440133Y-105680454D01*
X114445541Y-105687225D01*
X114450995Y-105693926D01*
X114456493Y-105700556D01*
X114462038Y-105707115D01*
X114467627Y-105713605D01*
X114473263Y-105720026D01*
X114478944Y-105726378D01*
X114484671Y-105732662D01*
X114490444Y-105738878D01*
X114496264Y-105745027D01*
X114502129Y-105751109D01*
X114508041Y-105757124D01*
X114514000Y-105763073D01*
X114520006Y-105768956D01*
X114526059Y-105774773D01*
X114532159Y-105780525D01*
X114538307Y-105786213D01*
X114544503Y-105791836D01*
X114550747Y-105797396D01*
X114557038Y-105802891D01*
X114563379Y-105808323D01*
X114569768Y-105813692D01*
X114576207Y-105818998D01*
X114582695Y-105824241D01*
X114589232Y-105829422D01*
X114595820Y-105834541D01*
X114602458Y-105839598D01*
X114609147Y-105844594D01*
X114615887Y-105849528D01*
X114622679Y-105854402D01*
X114629522Y-105859214D01*
X114636418Y-105863965D01*
X114643366Y-105868657D01*
X114650367Y-105873287D01*
X114657422Y-105877858D01*
X114664531Y-105882368D01*
X114671694Y-105886819D01*
X114678912Y-105891209D01*
X114686185Y-105895541D01*
X114693514Y-105899812D01*
X114700899Y-105904024D01*
X114708342Y-105908177D01*
X114715841Y-105912271D01*
X114723398Y-105916305D01*
X114731014Y-105920280D01*
X114738689Y-105924196D01*
X114746424Y-105928053D01*
X114754218Y-105931851D01*
X114762074Y-105935590D01*
X114769990Y-105939270D01*
X114777969Y-105942891D01*
X114786011Y-105946453D01*
X114794116Y-105949955D01*
X114802285Y-105953399D01*
X114810519Y-105956784D01*
X114818818Y-105960109D01*
X114827184Y-105963375D01*
X114835617Y-105966582D01*
X114844117Y-105969729D01*
X114852687Y-105972817D01*
X114861326Y-105975846D01*
X114870035Y-105978814D01*
X114878816Y-105981723D01*
X114887669Y-105984572D01*
X114896595Y-105987361D01*
X114905595Y-105990090D01*
X114914671Y-105992758D01*
X114923824Y-105995366D01*
X114933053Y-105997913D01*
X114942362Y-106000400D01*
X114951750Y-106002825D01*
X114961220Y-106005189D01*
X114970772Y-106007492D01*
X114980408Y-106009733D01*
X114990130Y-106011913D01*
X114999939Y-106014030D01*
X115009836Y-106016086D01*
X115019824Y-106018079D01*
X115029904Y-106020009D01*
X115040078Y-106021876D01*
X115050348Y-106023681D01*
X115060717Y-106025422D01*
X115071187Y-106027099D01*
X115081761Y-106028713D01*
X115092441Y-106030263D01*
X115103230Y-106031748D01*
X115114131Y-106033169D01*
X115125149Y-106034525D01*
X115136287Y-106035816D01*
X115147550Y-106037042D01*
X115158942Y-106038201D01*
X115170468Y-106039296D01*
X115182134Y-106040324D01*
X115193948Y-106041285D01*
X115205917Y-106042180D01*
X115218048Y-106043008D01*
X115230353Y-106043768D01*
X115242843Y-106044461D01*
X115255530Y-106045086D01*
X115268431Y-106045643D01*
X115281564Y-106046131D01*
X115294952Y-106046550D01*
X115308624Y-106046899D01*
X115322613Y-106047178D01*
X115336964Y-106047387D01*
X115351735Y-106047523D01*
X115367006Y-106047587D01*
X115382887Y-106047576D01*
X115399542Y-106047488D01*
X115417233Y-106047319D01*
X115436427Y-106047061D01*
X115458120Y-106046697D01*
X115487312Y-106046137D01*
X115509368Y-106045710D01*
X115530531Y-106045347D01*
X115540763Y-106045204D01*
X115550756Y-106045095D01*
X115560503Y-106045025D01*
X115570000Y-106045000D01*
D10*
X114136273Y-65119000D02*
G75*
G02*
X116136273Y-63118973I2000027J0D01*
G01*
X153035000Y-63119000D02*
G75*
G02*
X155067000Y-65119000I31748J-2000000D01*
G01*
X114141130Y-82528997D02*
X114141130Y-74599257D01*
X112141130Y-82528997D02*
X112136273Y-74599257D01*
X114141130Y-86528997D02*
X114157000Y-95155000D01*
X114157000Y-99155000D02*
X114157000Y-104648000D01*
X112141140Y-86524631D02*
X112157845Y-95153421D01*
X112131974Y-114300000D02*
X112157000Y-99155000D01*
X62865000Y-112649000D02*
X62865000Y-66294000D01*
D11*
X62865000Y-112649000D02*
X62865000Y-112649000D01*
X65659000Y-115570000D02*
X65650055Y-115569990D01*
X65641130Y-115569960D01*
X65632224Y-115569910D01*
X65623336Y-115569840D01*
X65614468Y-115569751D01*
X65605619Y-115569642D01*
X65596788Y-115569512D01*
X65587977Y-115569364D01*
X65579184Y-115569195D01*
X65570410Y-115569007D01*
X65561654Y-115568799D01*
X65552918Y-115568572D01*
X65544199Y-115568325D01*
X65535500Y-115568059D01*
X65526819Y-115567774D01*
X65518157Y-115567469D01*
X65509513Y-115567144D01*
X65500888Y-115566801D01*
X65492280Y-115566438D01*
X65483692Y-115566056D01*
X65475121Y-115565655D01*
X65466569Y-115565234D01*
X65458035Y-115564795D01*
X65449520Y-115564336D01*
X65441022Y-115563858D01*
X65432543Y-115563362D01*
X65424081Y-115562846D01*
X65415638Y-115562312D01*
X65407212Y-115561758D01*
X65398805Y-115561186D01*
X65390415Y-115560595D01*
X65382044Y-115559985D01*
X65373690Y-115559357D01*
X65365354Y-115558710D01*
X65357035Y-115558044D01*
X65348735Y-115557359D01*
X65340451Y-115556656D01*
X65332186Y-115555934D01*
X65323938Y-115555194D01*
X65315708Y-115554436D01*
X65307494Y-115553659D01*
X65299299Y-115552863D01*
X65291121Y-115552049D01*
X65282960Y-115551217D01*
X65274817Y-115550366D01*
X65266691Y-115549498D01*
X65258582Y-115548610D01*
X65250491Y-115547705D01*
X65242415Y-115546782D01*
X65234359Y-115545840D01*
X65226318Y-115544880D01*
X65218295Y-115543903D01*
X65210288Y-115542907D01*
X65202300Y-115541893D01*
X65194327Y-115540861D01*
X65186372Y-115539811D01*
X65178432Y-115538743D01*
X65170511Y-115537658D01*
X65162606Y-115536554D01*
X65154718Y-115535433D01*
X65146846Y-115534294D01*
X65138991Y-115533137D01*
X65131152Y-115531962D01*
X65123331Y-115530770D01*
X65115525Y-115529559D01*
X65107737Y-115528332D01*
X65099964Y-115527086D01*
X65092209Y-115525824D01*
X65084468Y-115524543D01*
X65076746Y-115523245D01*
X65069038Y-115521929D01*
X65061349Y-115520596D01*
X65053673Y-115519246D01*
X65046016Y-115517878D01*
X65038373Y-115516492D01*
X65030748Y-115515090D01*
X65023137Y-115513669D01*
X65015544Y-115512232D01*
X65007965Y-115510777D01*
X65000404Y-115509305D01*
X64992857Y-115507816D01*
X64985328Y-115506310D01*
X64977813Y-115504786D01*
X64970315Y-115503245D01*
X64962832Y-115501687D01*
X64955366Y-115500112D01*
X64947914Y-115498519D01*
X64940479Y-115496910D01*
X64933058Y-115495284D01*
X64925655Y-115493641D01*
X64918265Y-115491980D01*
X64910893Y-115490303D01*
X64903534Y-115488608D01*
X64896192Y-115486897D01*
X64888864Y-115485169D01*
X64881554Y-115483424D01*
X64874256Y-115481662D01*
X64866977Y-115479883D01*
X64859710Y-115478087D01*
X64852460Y-115476275D01*
X64845224Y-115474445D01*
X64838005Y-115472600D01*
X64830799Y-115470737D01*
X64823610Y-115468857D01*
X64816434Y-115466961D01*
X64809275Y-115465048D01*
X64802129Y-115463118D01*
X64795001Y-115461172D01*
X64787884Y-115459209D01*
X64780785Y-115457230D01*
X64773699Y-115455234D01*
X64766630Y-115453221D01*
X64759572Y-115451192D01*
X64752533Y-115449146D01*
X64745505Y-115447084D01*
X64738495Y-115445005D01*
X64731496Y-115442910D01*
X64724516Y-115440798D01*
X64710594Y-115436525D01*
X64696731Y-115432187D01*
X64682926Y-115427783D01*
X64669178Y-115423313D01*
X64655488Y-115418778D01*
X64641854Y-115414178D01*
X64628277Y-115409513D01*
X64614756Y-115404782D01*
X64601292Y-115399987D01*
X64587884Y-115395127D01*
X64574531Y-115390202D01*
X64561234Y-115385213D01*
X64547992Y-115380159D01*
X64534804Y-115375040D01*
X64521672Y-115369858D01*
X64508594Y-115364610D01*
X64495570Y-115359299D01*
X64482601Y-115353923D01*
X64469685Y-115348484D01*
X64456823Y-115342980D01*
X64444013Y-115337412D01*
X64431258Y-115331780D01*
X64418554Y-115326084D01*
X64405904Y-115320325D01*
X64393306Y-115314501D01*
X64380760Y-115308614D01*
X64368266Y-115302663D01*
X64355824Y-115296648D01*
X64343434Y-115290569D01*
X64331095Y-115284427D01*
X64318807Y-115278221D01*
X64306570Y-115271951D01*
X64294384Y-115265618D01*
X64282249Y-115259221D01*
X64270164Y-115252760D01*
X64258129Y-115246236D01*
X64246144Y-115239647D01*
X64234209Y-115232996D01*
X64222324Y-115226280D01*
X64210488Y-115219501D01*
X64198701Y-115212658D01*
X64186964Y-115205751D01*
X64175276Y-115198780D01*
X64163636Y-115191746D01*
X64152045Y-115184648D01*
X64140503Y-115177485D01*
X64129009Y-115170259D01*
X64117563Y-115162969D01*
X64106165Y-115155615D01*
X64094815Y-115148196D01*
X64083513Y-115140714D01*
X64072258Y-115133167D01*
X64061051Y-115125556D01*
X64049891Y-115117881D01*
X64038778Y-115110141D01*
X64027713Y-115102336D01*
X64016694Y-115094468D01*
X64005722Y-115086534D01*
X63994797Y-115078536D01*
X63983919Y-115070473D01*
X63973087Y-115062345D01*
X63962301Y-115054152D01*
X63951562Y-115045893D01*
X63940869Y-115037570D01*
X63930222Y-115029182D01*
X63919621Y-115020728D01*
X63909066Y-115012208D01*
X63898556Y-115003623D01*
X63888093Y-114994972D01*
X63877675Y-114986256D01*
X63867302Y-114977473D01*
X63856976Y-114968625D01*
X63846694Y-114959710D01*
X63836458Y-114950729D01*
X63826268Y-114941681D01*
X63816122Y-114932567D01*
X63806022Y-114923387D01*
X63795967Y-114914139D01*
X63785957Y-114904825D01*
X63775993Y-114895443D01*
X63766073Y-114885994D01*
X63756198Y-114876478D01*
X63746369Y-114866895D01*
X63736584Y-114857244D01*
X63726844Y-114847525D01*
X63717149Y-114837738D01*
X63707500Y-114827883D01*
X63697895Y-114817960D01*
X63688334Y-114807968D01*
X63678819Y-114797908D01*
X63669349Y-114787779D01*
X63659924Y-114777582D01*
X63650543Y-114767315D01*
X63641208Y-114756980D01*
X63631917Y-114746575D01*
X63622672Y-114736101D01*
X63613472Y-114725557D01*
X63604316Y-114714943D01*
X63595206Y-114704260D01*
X63586141Y-114693506D01*
X63577121Y-114682682D01*
X63568146Y-114671788D01*
X63559217Y-114660824D01*
X63550333Y-114649788D01*
X63541494Y-114638682D01*
X63532701Y-114627505D01*
X63523953Y-114616257D01*
X63515251Y-114604937D01*
X63506595Y-114593546D01*
X63497985Y-114582083D01*
X63489420Y-114570549D01*
X63480901Y-114558943D01*
X63472429Y-114547264D01*
X63464003Y-114535514D01*
X63455623Y-114523691D01*
X63447289Y-114511796D01*
X63439002Y-114499828D01*
X63430762Y-114487787D01*
X63422568Y-114475673D01*
X63414421Y-114463486D01*
X63406321Y-114451227D01*
X63398269Y-114438894D01*
X63390264Y-114426487D01*
X63382306Y-114414007D01*
X63374396Y-114401453D01*
X63366534Y-114388826D01*
X63358720Y-114376124D01*
X63350953Y-114363349D01*
X63343235Y-114350500D01*
X63335566Y-114337576D01*
X63327945Y-114324579D01*
X63320374Y-114311506D01*
X63312851Y-114298360D01*
X63305377Y-114285139D01*
X63297953Y-114271843D01*
X63290579Y-114258473D01*
X63283254Y-114245028D01*
X63275980Y-114231509D01*
X63268755Y-114217915D01*
X63261582Y-114204246D01*
X63254459Y-114190502D01*
X63247387Y-114176683D01*
X63240367Y-114162790D01*
X63233398Y-114148821D01*
X63226480Y-114134778D01*
X63219615Y-114120661D01*
X63212802Y-114106468D01*
X63206042Y-114092201D01*
X63199334Y-114077859D01*
X63192680Y-114063443D01*
X63186078Y-114048952D01*
X63179531Y-114034387D01*
X63173038Y-114019748D01*
X63166598Y-114005035D01*
X63160214Y-113990247D01*
X63153884Y-113975386D01*
X63147610Y-113960452D01*
X63141391Y-113945444D01*
X63135228Y-113930362D01*
X63129121Y-113915208D01*
X63123071Y-113899981D01*
X63117078Y-113884682D01*
X63111142Y-113869310D01*
X63105263Y-113853867D01*
X63099443Y-113838352D01*
X63093681Y-113822766D01*
X63087977Y-113807110D01*
X63082333Y-113791383D01*
X63076748Y-113775587D01*
X63071223Y-113759721D01*
X63065759Y-113743786D01*
X63060355Y-113727783D01*
X63055012Y-113711713D01*
X63049731Y-113695575D01*
X63044512Y-113679371D01*
X63039355Y-113663101D01*
X63034261Y-113646767D01*
X63029230Y-113630368D01*
X63024263Y-113613906D01*
X63019360Y-113597382D01*
X63014522Y-113580796D01*
X63009749Y-113564150D01*
X63005041Y-113547444D01*
X63000400Y-113530680D01*
X62995825Y-113513859D01*
X62991317Y-113496982D01*
X62986877Y-113480050D01*
X62982505Y-113463065D01*
X62978202Y-113446029D01*
X62973968Y-113428942D01*
X62969803Y-113411807D01*
X62965709Y-113394625D01*
X62961686Y-113377399D01*
X62957734Y-113360129D01*
X62953854Y-113342819D01*
X62950047Y-113325470D01*
X62946313Y-113308085D01*
X62942653Y-113290666D01*
X62939067Y-113273216D01*
X62935556Y-113255738D01*
X62932120Y-113238234D01*
X62928761Y-113220708D01*
X62925479Y-113203164D01*
X62922274Y-113185604D01*
X62919148Y-113168033D01*
X62916100Y-113150454D01*
X62913133Y-113132873D01*
X62910245Y-113115293D01*
X62907439Y-113097720D01*
X62904714Y-113080160D01*
X62902072Y-113062617D01*
X62899513Y-113045099D01*
X62897038Y-113027611D01*
X62894648Y-113010162D01*
X62892343Y-112992759D01*
X62890125Y-112975411D01*
X62887995Y-112958127D01*
X62885952Y-112940918D01*
X62883998Y-112923794D01*
X62882134Y-112906768D01*
X62880361Y-112889853D01*
X62878680Y-112873066D01*
X62877091Y-112856421D01*
X62875595Y-112839940D01*
X62874194Y-112823642D01*
X62872888Y-112807553D01*
X62871679Y-112791700D01*
X62870567Y-112776115D01*
X62869554Y-112760838D01*
X62868640Y-112745912D01*
X62867826Y-112731394D01*
X62867114Y-112717350D01*
X62866505Y-112703868D01*
X62865999Y-112691061D01*
X62865598Y-112679088D01*
X62865300Y-112668184D01*
X62865107Y-112658739D01*
X62865014Y-112651557D01*
X62865000Y-112649000D01*
D10*
X110490000Y-115570000D02*
X65659000Y-115570000D01*
D11*
X112131974Y-114300000D02*
X112132006Y-114305876D01*
X112132017Y-114311734D01*
X112132009Y-114317573D01*
X112131981Y-114323393D01*
X112131933Y-114329193D01*
X112131865Y-114334976D01*
X112131777Y-114340739D01*
X112131670Y-114346484D01*
X112131543Y-114352210D01*
X112131396Y-114357918D01*
X112131230Y-114363607D01*
X112131044Y-114369278D01*
X112130839Y-114374930D01*
X112130615Y-114380565D01*
X112130372Y-114386181D01*
X112130109Y-114391779D01*
X112129827Y-114397359D01*
X112129526Y-114402921D01*
X112129206Y-114408465D01*
X112128867Y-114413992D01*
X112128509Y-114419500D01*
X112128132Y-114424991D01*
X112127737Y-114430464D01*
X112127323Y-114435920D01*
X112126890Y-114441358D01*
X112126438Y-114446778D01*
X112125968Y-114452181D01*
X112125479Y-114457567D01*
X112124972Y-114462936D01*
X112124446Y-114468287D01*
X112123902Y-114473622D01*
X112123339Y-114478939D01*
X112122759Y-114484239D01*
X112122160Y-114489522D01*
X112121543Y-114494789D01*
X112120907Y-114500038D01*
X112120254Y-114505271D01*
X112119583Y-114510487D01*
X112118893Y-114515687D01*
X112118186Y-114520869D01*
X112117461Y-114526036D01*
X112116718Y-114531186D01*
X112115957Y-114536320D01*
X112115178Y-114541437D01*
X112114382Y-114546538D01*
X112113567Y-114551623D01*
X112112736Y-114556692D01*
X112111886Y-114561744D01*
X112111019Y-114566781D01*
X112110135Y-114571802D01*
X112109233Y-114576807D01*
X112108314Y-114581796D01*
X112107377Y-114586769D01*
X112106423Y-114591726D01*
X112105452Y-114596669D01*
X112104463Y-114601595D01*
X112103457Y-114606506D01*
X112102434Y-114611401D01*
X112101394Y-114616281D01*
X112100336Y-114621145D01*
X112099261Y-114625995D01*
X112098170Y-114630829D01*
X112097061Y-114635648D01*
X112095936Y-114640451D01*
X112094793Y-114645241D01*
X112093633Y-114650014D01*
X112092457Y-114654773D01*
X112091263Y-114659517D01*
X112090053Y-114664246D01*
X112088826Y-114668960D01*
X112087582Y-114673660D01*
X112086321Y-114678344D01*
X112085044Y-114683016D01*
X112083750Y-114687670D01*
X112082439Y-114692313D01*
X112081111Y-114696938D01*
X112079767Y-114701552D01*
X112078406Y-114706149D01*
X112077029Y-114710734D01*
X112075635Y-114715302D01*
X112074224Y-114719859D01*
X112072798Y-114724399D01*
X112071354Y-114728928D01*
X112069894Y-114733440D01*
X112068417Y-114737940D01*
X112066925Y-114742424D01*
X112065415Y-114746897D01*
X112063890Y-114751354D01*
X112060789Y-114760228D01*
X112057623Y-114769048D01*
X112054391Y-114777813D01*
X112051095Y-114786525D01*
X112047733Y-114795183D01*
X112044306Y-114803788D01*
X112040814Y-114812341D01*
X112037258Y-114820841D01*
X112033637Y-114829290D01*
X112029951Y-114837687D01*
X112026200Y-114846033D01*
X112022384Y-114854328D01*
X112018504Y-114862573D01*
X112014560Y-114870767D01*
X112010551Y-114878912D01*
X112006477Y-114887008D01*
X112002338Y-114895054D01*
X111998135Y-114903052D01*
X111993867Y-114911001D01*
X111989535Y-114918902D01*
X111985137Y-114926755D01*
X111980675Y-114934561D01*
X111976148Y-114942319D01*
X111971556Y-114950030D01*
X111966899Y-114957695D01*
X111962177Y-114965314D01*
X111957389Y-114972886D01*
X111952536Y-114980412D01*
X111947618Y-114987893D01*
X111942634Y-114995328D01*
X111937584Y-115002718D01*
X111932468Y-115010063D01*
X111927286Y-115017364D01*
X111922038Y-115024620D01*
X111916723Y-115031832D01*
X111911342Y-115038999D01*
X111905894Y-115046123D01*
X111900378Y-115053203D01*
X111894796Y-115060240D01*
X111889146Y-115067233D01*
X111883428Y-115074183D01*
X111877643Y-115081090D01*
X111871789Y-115087954D01*
X111865867Y-115094776D01*
X111859876Y-115101554D01*
X111853816Y-115108291D01*
X111847688Y-115114984D01*
X111841489Y-115121636D01*
X111835221Y-115128246D01*
X111828883Y-115134813D01*
X111822474Y-115141338D01*
X111815995Y-115147822D01*
X111809444Y-115154263D01*
X111802823Y-115160663D01*
X111796129Y-115167021D01*
X111789364Y-115173338D01*
X111782527Y-115179612D01*
X111775617Y-115185846D01*
X111768634Y-115192037D01*
X111761577Y-115198187D01*
X111754447Y-115204295D01*
X111747243Y-115210362D01*
X111739964Y-115216386D01*
X111732611Y-115222370D01*
X111725183Y-115228311D01*
X111717679Y-115234211D01*
X111710099Y-115240069D01*
X111702443Y-115245885D01*
X111694710Y-115251659D01*
X111686900Y-115257391D01*
X111679013Y-115263081D01*
X111671048Y-115268729D01*
X111663004Y-115274335D01*
X111654882Y-115279898D01*
X111646681Y-115285419D01*
X111638401Y-115290897D01*
X111630040Y-115296332D01*
X111621600Y-115301724D01*
X111613078Y-115307073D01*
X111604476Y-115312379D01*
X111595792Y-115317641D01*
X111587026Y-115322860D01*
X111578178Y-115328035D01*
X111569248Y-115333165D01*
X111560234Y-115338252D01*
X111551137Y-115343294D01*
X111541956Y-115348292D01*
X111532690Y-115353244D01*
X111523340Y-115358152D01*
X111513905Y-115363014D01*
X111504385Y-115367830D01*
X111494779Y-115372601D01*
X111485086Y-115377325D01*
X111475307Y-115382003D01*
X111465442Y-115386634D01*
X111455488Y-115391218D01*
X111445448Y-115395755D01*
X111435319Y-115400243D01*
X111425102Y-115404684D01*
X111414797Y-115409077D01*
X111404402Y-115413421D01*
X111393918Y-115417715D01*
X111383345Y-115421961D01*
X111372682Y-115426156D01*
X111361929Y-115430301D01*
X111351086Y-115434396D01*
X111340152Y-115438440D01*
X111329127Y-115442433D01*
X111318012Y-115446374D01*
X111306805Y-115450262D01*
X111295507Y-115454099D01*
X111284117Y-115457882D01*
X111272636Y-115461612D01*
X111261062Y-115465288D01*
X111249397Y-115468909D01*
X111237640Y-115472476D01*
X111225792Y-115475988D01*
X111213851Y-115479444D01*
X111201818Y-115482844D01*
X111189693Y-115486187D01*
X111177477Y-115489473D01*
X111165168Y-115492701D01*
X111152768Y-115495871D01*
X111140277Y-115498983D01*
X111127695Y-115502035D01*
X111115021Y-115505028D01*
X111102257Y-115507961D01*
X111089403Y-115510832D01*
X111076459Y-115513643D01*
X111063425Y-115516392D01*
X111050303Y-115519078D01*
X111037092Y-115521702D01*
X111023793Y-115524262D01*
X111010408Y-115526758D01*
X110996936Y-115529189D01*
X110983379Y-115531556D01*
X110969737Y-115533856D01*
X110956012Y-115536091D01*
X110942205Y-115538258D01*
X110928316Y-115540359D01*
X110914348Y-115542391D01*
X110900300Y-115544355D01*
X110886176Y-115546250D01*
X110871976Y-115548076D01*
X110857703Y-115549831D01*
X110843357Y-115551516D01*
X110828941Y-115553129D01*
X110814457Y-115554671D01*
X110799908Y-115556140D01*
X110785295Y-115557537D01*
X110770620Y-115558861D01*
X110755887Y-115560112D01*
X110741099Y-115561288D01*
X110726256Y-115562390D01*
X110711363Y-115563417D01*
X110696422Y-115564369D01*
X110681435Y-115565246D01*
X110666404Y-115566048D01*
X110651330Y-115566774D01*
X110636214Y-115567425D01*
X110621054Y-115568000D01*
X110605844Y-115568500D01*
X110590576Y-115568926D01*
X110575229Y-115569278D01*
X110559770Y-115569557D01*
X110544130Y-115569765D01*
X110528170Y-115569904D01*
X110511560Y-115569979D01*
X110490000Y-115570000D01*
X62865000Y-65405000D02*
X62865000Y-66294000D01*
X65532000Y-62738000D02*
X65521060Y-62738010D01*
X65510150Y-62738040D01*
X65499277Y-62738090D01*
X65488434Y-62738159D01*
X65477628Y-62738249D01*
X65466852Y-62738358D01*
X65456112Y-62738487D01*
X65445403Y-62738635D01*
X65434730Y-62738803D01*
X65424086Y-62738990D01*
X65413479Y-62739197D01*
X65402901Y-62739423D01*
X65392360Y-62739669D01*
X65381848Y-62739933D01*
X65371372Y-62740217D01*
X65360924Y-62740520D01*
X65350513Y-62740842D01*
X65340131Y-62741183D01*
X65329784Y-62741543D01*
X65319466Y-62741922D01*
X65309184Y-62742319D01*
X65298930Y-62742736D01*
X65288712Y-62743171D01*
X65278522Y-62743624D01*
X65268367Y-62744097D01*
X65258241Y-62744587D01*
X65248149Y-62745097D01*
X65238086Y-62745624D01*
X65228058Y-62746170D01*
X65218057Y-62746735D01*
X65208091Y-62747317D01*
X65198153Y-62747918D01*
X65188250Y-62748537D01*
X65178374Y-62749174D01*
X65168532Y-62749829D01*
X65158719Y-62750502D01*
X65148938Y-62751193D01*
X65139186Y-62751902D01*
X65129467Y-62752628D01*
X65119776Y-62753373D01*
X65110119Y-62754135D01*
X65100488Y-62754915D01*
X65090891Y-62755712D01*
X65081322Y-62756527D01*
X65071785Y-62757359D01*
X65062275Y-62758209D01*
X65052799Y-62759076D01*
X65043349Y-62759960D01*
X65033932Y-62760862D01*
X65024542Y-62761781D01*
X65015185Y-62762717D01*
X65005854Y-62763670D01*
X64996555Y-62764641D01*
X64987284Y-62765628D01*
X64978044Y-62766632D01*
X64968831Y-62767654D01*
X64959650Y-62768692D01*
X64950495Y-62769747D01*
X64941372Y-62770818D01*
X64932275Y-62771907D01*
X64923210Y-62773012D01*
X64914171Y-62774134D01*
X64905163Y-62775272D01*
X64896181Y-62776427D01*
X64887230Y-62777598D01*
X64878306Y-62778785D01*
X64869412Y-62779989D01*
X64860544Y-62781210D01*
X64851707Y-62782446D01*
X64842896Y-62783699D01*
X64834115Y-62784968D01*
X64825360Y-62786254D01*
X64816635Y-62787555D01*
X64807935Y-62788872D01*
X64799266Y-62790206D01*
X64790622Y-62791555D01*
X64782008Y-62792920D01*
X64773420Y-62794301D01*
X64764860Y-62795698D01*
X64756327Y-62797111D01*
X64747822Y-62798539D01*
X64739344Y-62799983D01*
X64730894Y-62801443D01*
X64722469Y-62802918D01*
X64714073Y-62804409D01*
X64705703Y-62805915D01*
X64697360Y-62807437D01*
X64689044Y-62808974D01*
X64680755Y-62810527D01*
X64672492Y-62812095D01*
X64664256Y-62813678D01*
X64656046Y-62815277D01*
X64647864Y-62816890D01*
X64639706Y-62818519D01*
X64631576Y-62820163D01*
X64623472Y-62821822D01*
X64615394Y-62823496D01*
X64607341Y-62825185D01*
X64599316Y-62826889D01*
X64591315Y-62828608D01*
X64583342Y-62830342D01*
X64575392Y-62832091D01*
X64567470Y-62833854D01*
X64559573Y-62835633D01*
X64551701Y-62837426D01*
X64543855Y-62839233D01*
X64536035Y-62841056D01*
X64528239Y-62842893D01*
X64520469Y-62844744D01*
X64512724Y-62846610D01*
X64505005Y-62848491D01*
X64497309Y-62850386D01*
X64489640Y-62852295D01*
X64481995Y-62854219D01*
X64474375Y-62856157D01*
X64466780Y-62858110D01*
X64459210Y-62860076D01*
X64451663Y-62862057D01*
X64444142Y-62864052D01*
X64436645Y-62866062D01*
X64429173Y-62868085D01*
X64421725Y-62870123D01*
X64414301Y-62872174D01*
X64406901Y-62874240D01*
X64399526Y-62876320D01*
X64392175Y-62878414D01*
X64384847Y-62880521D01*
X64377544Y-62882643D01*
X64370264Y-62884778D01*
X64363008Y-62886927D01*
X64355777Y-62889090D01*
X64348568Y-62891267D01*
X64341383Y-62893458D01*
X64334222Y-62895662D01*
X64327084Y-62897880D01*
X64319970Y-62900112D01*
X64312879Y-62902357D01*
X64305811Y-62904616D01*
X64298766Y-62906888D01*
X64291744Y-62909174D01*
X64284746Y-62911473D01*
X64277770Y-62913786D01*
X64270818Y-62916113D01*
X64263888Y-62918452D01*
X64256981Y-62920806D01*
X64250097Y-62923172D01*
X64243235Y-62925552D01*
X64236396Y-62927945D01*
X64229580Y-62930352D01*
X64222786Y-62932771D01*
X64216014Y-62935204D01*
X64209265Y-62937650D01*
X64202537Y-62940110D01*
X64195833Y-62942582D01*
X64189150Y-62945068D01*
X64182489Y-62947566D01*
X64175850Y-62950078D01*
X64169234Y-62952603D01*
X64162639Y-62955141D01*
X64156066Y-62957692D01*
X64149514Y-62960256D01*
X64142985Y-62962833D01*
X64136477Y-62965422D01*
X64129991Y-62968025D01*
X64123525Y-62970641D01*
X64117082Y-62973269D01*
X64110660Y-62975910D01*
X64104259Y-62978564D01*
X64097879Y-62981232D01*
X64091521Y-62983911D01*
X64085184Y-62986604D01*
X64078868Y-62989309D01*
X64072572Y-62992027D01*
X64066299Y-62994758D01*
X64060045Y-62997501D01*
X64053813Y-63000257D01*
X64047601Y-63003026D01*
X64041410Y-63005807D01*
X64035239Y-63008602D01*
X64029090Y-63011408D01*
X64022960Y-63014227D01*
X64016852Y-63017059D01*
X64010763Y-63019903D01*
X64004695Y-63022760D01*
X63998647Y-63025630D01*
X63992620Y-63028511D01*
X63986612Y-63031406D01*
X63980625Y-63034313D01*
X63974657Y-63037232D01*
X63968711Y-63040164D01*
X63962783Y-63043108D01*
X63956876Y-63046064D01*
X63950988Y-63049034D01*
X63945121Y-63052015D01*
X63939272Y-63055009D01*
X63933444Y-63058015D01*
X63927635Y-63061034D01*
X63921846Y-63064064D01*
X63916076Y-63067108D01*
X63910326Y-63070163D01*
X63904595Y-63073232D01*
X63898884Y-63076311D01*
X63893191Y-63079404D01*
X63887518Y-63082509D01*
X63881863Y-63085626D01*
X63876229Y-63088755D01*
X63870613Y-63091897D01*
X63865017Y-63095050D01*
X63859438Y-63098217D01*
X63853880Y-63101395D01*
X63848339Y-63104586D01*
X63842819Y-63107788D01*
X63837315Y-63111004D01*
X63831832Y-63114230D01*
X63826366Y-63117470D01*
X63820920Y-63120721D01*
X63815491Y-63123986D01*
X63810083Y-63127261D01*
X63804690Y-63130550D01*
X63799319Y-63133850D01*
X63793963Y-63137163D01*
X63788628Y-63140487D01*
X63783309Y-63143824D01*
X63778010Y-63147173D01*
X63772727Y-63150535D01*
X63767465Y-63153907D01*
X63756992Y-63160690D01*
X63746590Y-63167522D01*
X63736260Y-63174403D01*
X63726001Y-63181332D01*
X63715813Y-63188310D01*
X63705694Y-63195336D01*
X63695646Y-63202411D01*
X63685667Y-63209535D01*
X63675757Y-63216707D01*
X63665917Y-63223928D01*
X63656144Y-63231198D01*
X63646440Y-63238517D01*
X63636803Y-63245884D01*
X63627234Y-63253301D01*
X63617732Y-63260766D01*
X63608296Y-63268281D01*
X63598927Y-63275845D01*
X63589625Y-63283458D01*
X63580388Y-63291120D01*
X63571216Y-63298832D01*
X63562110Y-63306593D01*
X63553068Y-63314403D01*
X63544091Y-63322264D01*
X63535179Y-63330174D01*
X63526330Y-63338134D01*
X63517546Y-63346144D01*
X63508824Y-63354204D01*
X63500166Y-63362315D01*
X63491571Y-63370476D01*
X63483038Y-63378687D01*
X63474568Y-63386949D01*
X63466160Y-63395263D01*
X63457814Y-63403627D01*
X63449529Y-63412042D01*
X63441306Y-63420509D01*
X63433144Y-63429027D01*
X63425044Y-63437598D01*
X63417003Y-63446220D01*
X63409024Y-63454894D01*
X63401104Y-63463620D01*
X63393245Y-63472399D01*
X63385446Y-63481231D01*
X63377706Y-63490116D01*
X63370026Y-63499054D01*
X63362405Y-63508046D01*
X63354844Y-63517091D01*
X63347341Y-63526190D01*
X63339897Y-63535343D01*
X63332512Y-63544551D01*
X63325185Y-63553813D01*
X63317916Y-63563130D01*
X63310706Y-63572503D01*
X63303554Y-63581930D01*
X63296459Y-63591414D01*
X63289423Y-63600954D01*
X63282444Y-63610550D01*
X63275522Y-63620203D01*
X63268658Y-63629912D01*
X63261851Y-63639679D01*
X63255101Y-63649504D01*
X63248409Y-63659386D01*
X63241773Y-63669327D01*
X63235194Y-63679326D01*
X63228672Y-63689384D01*
X63222206Y-63699502D01*
X63215797Y-63709679D01*
X63209445Y-63719916D01*
X63203149Y-63730214D01*
X63196910Y-63740572D01*
X63190726Y-63750991D01*
X63184600Y-63761472D01*
X63178529Y-63772015D01*
X63172514Y-63782620D01*
X63166556Y-63793288D01*
X63160654Y-63804019D01*
X63154808Y-63814813D01*
X63149018Y-63825672D01*
X63143284Y-63836595D01*
X63137607Y-63847582D01*
X63131985Y-63858636D01*
X63126419Y-63869755D01*
X63120910Y-63880940D01*
X63115456Y-63892192D01*
X63110059Y-63903511D01*
X63104717Y-63914898D01*
X63099432Y-63926354D01*
X63094203Y-63937878D01*
X63089030Y-63949471D01*
X63083913Y-63961134D01*
X63078852Y-63972868D01*
X63073848Y-63984673D01*
X63068900Y-63996549D01*
X63064008Y-64008497D01*
X63059173Y-64020518D01*
X63054394Y-64032612D01*
X63049672Y-64044780D01*
X63045007Y-64057022D01*
X63040398Y-64069340D01*
X63035846Y-64081733D01*
X63031351Y-64094203D01*
X63026913Y-64106751D01*
X63022532Y-64119376D01*
X63018208Y-64132079D01*
X63013941Y-64144862D01*
X63009731Y-64157725D01*
X63005579Y-64170669D01*
X63001485Y-64183695D01*
X62997448Y-64196803D01*
X62993469Y-64209994D01*
X62989548Y-64223270D01*
X62985685Y-64236630D01*
X62981880Y-64250077D01*
X62978133Y-64263610D01*
X62974445Y-64277231D01*
X62970815Y-64290941D01*
X62967243Y-64304741D01*
X62963731Y-64318632D01*
X62960277Y-64332615D01*
X62956883Y-64346691D01*
X62953547Y-64360861D01*
X62950271Y-64375127D01*
X62947055Y-64389490D01*
X62943898Y-64403951D01*
X62940801Y-64418512D01*
X62937764Y-64433173D01*
X62934787Y-64447937D01*
X62931870Y-64462805D01*
X62929014Y-64477779D01*
X62926218Y-64492860D01*
X62923483Y-64508050D01*
X62920808Y-64523352D01*
X62918195Y-64538766D01*
X62915643Y-64554296D01*
X62913152Y-64569943D01*
X62910723Y-64585710D01*
X62908355Y-64601600D01*
X62906049Y-64617614D01*
X62903805Y-64633756D01*
X62901623Y-64650028D01*
X62899504Y-64666435D01*
X62897446Y-64682979D01*
X62895452Y-64699665D01*
X62893520Y-64716495D01*
X62891650Y-64733475D01*
X62889844Y-64750609D01*
X62888100Y-64767902D01*
X62886420Y-64785359D01*
X62884803Y-64802987D01*
X62883250Y-64820793D01*
X62881760Y-64838783D01*
X62880333Y-64856965D01*
X62878970Y-64875349D01*
X62877671Y-64893945D01*
X62876436Y-64912762D01*
X62875264Y-64931815D01*
X62874157Y-64951117D01*
X62873113Y-64970684D01*
X62872133Y-64990536D01*
X62871218Y-65010692D01*
X62870366Y-65031180D01*
X62869577Y-65052028D01*
X62868853Y-65073272D01*
X62868192Y-65094955D01*
X62867595Y-65117129D01*
X62867061Y-65139862D01*
X62866590Y-65163236D01*
X62866182Y-65187365D01*
X62865836Y-65212397D01*
X62865551Y-65238547D01*
X62865328Y-65266136D01*
X62865164Y-65295683D01*
X62865059Y-65328145D01*
X62865008Y-65365675D01*
X62865000Y-65405000D01*
D10*
X109982000Y-62738000D02*
X65532000Y-62738000D01*
D11*
X110490000Y-62738000D02*
X109982000Y-62738000D01*
X112131974Y-64516000D02*
X112131964Y-64506871D01*
X112131934Y-64497772D01*
X112131884Y-64488712D01*
X112131815Y-64479683D01*
X112131725Y-64470693D01*
X112131616Y-64461733D01*
X112131488Y-64452810D01*
X112131340Y-64443919D01*
X112131173Y-64435065D01*
X112130986Y-64426241D01*
X112130780Y-64417455D01*
X112130555Y-64408699D01*
X112130310Y-64399981D01*
X112130047Y-64391292D01*
X112129765Y-64382640D01*
X112129463Y-64374019D01*
X112129143Y-64365433D01*
X112128805Y-64356878D01*
X112128447Y-64348359D01*
X112128071Y-64339870D01*
X112127676Y-64331416D01*
X112127263Y-64322993D01*
X112126832Y-64314605D01*
X112126382Y-64306246D01*
X112125914Y-64297923D01*
X112125428Y-64289629D01*
X112124923Y-64281371D01*
X112124401Y-64273142D01*
X112123860Y-64264947D01*
X112123302Y-64256782D01*
X112122726Y-64248651D01*
X112122132Y-64240549D01*
X112121520Y-64232482D01*
X112120891Y-64224443D01*
X112120244Y-64216439D01*
X112119579Y-64208463D01*
X112118898Y-64200521D01*
X112118198Y-64192608D01*
X112117482Y-64184728D01*
X112116748Y-64176877D01*
X112115997Y-64169058D01*
X112115229Y-64161269D01*
X112114444Y-64153512D01*
X112113642Y-64145783D01*
X112112823Y-64138087D01*
X112111987Y-64130419D01*
X112111134Y-64122784D01*
X112110265Y-64115177D01*
X112109379Y-64107601D01*
X112108476Y-64100054D01*
X112107557Y-64092539D01*
X112106621Y-64085051D01*
X112105669Y-64077595D01*
X112104700Y-64070166D01*
X112103715Y-64062769D01*
X112102714Y-64055399D01*
X112101697Y-64048061D01*
X112100663Y-64040750D01*
X112099614Y-64033469D01*
X112098548Y-64026216D01*
X112097467Y-64018994D01*
X112096370Y-64011798D01*
X112095257Y-64004633D01*
X112094128Y-63997495D01*
X112092983Y-63990387D01*
X112091823Y-63983306D01*
X112090647Y-63976255D01*
X112089456Y-63969230D01*
X112088249Y-63962236D01*
X112087026Y-63955267D01*
X112085789Y-63948328D01*
X112084536Y-63941416D01*
X112083268Y-63934532D01*
X112081984Y-63927675D01*
X112080685Y-63920847D01*
X112079372Y-63914045D01*
X112078043Y-63907271D01*
X112076699Y-63900524D01*
X112075340Y-63893805D01*
X112073967Y-63887112D01*
X112072578Y-63880447D01*
X112071175Y-63873808D01*
X112069757Y-63867197D01*
X112068324Y-63860612D01*
X112066877Y-63854054D01*
X112065415Y-63847522D01*
X112063938Y-63841017D01*
X112062447Y-63834538D01*
X112060942Y-63828085D01*
X112059422Y-63821659D01*
X112057888Y-63815259D01*
X112056339Y-63808884D01*
X112054777Y-63802536D01*
X112053200Y-63796213D01*
X112051609Y-63789917D01*
X112050003Y-63783646D01*
X112048384Y-63777400D01*
X112046751Y-63771180D01*
X112045103Y-63764986D01*
X112043442Y-63758816D01*
X112041767Y-63752673D01*
X112040078Y-63746553D01*
X112038375Y-63740460D01*
X112036659Y-63734391D01*
X112034929Y-63728347D01*
X112033185Y-63722328D01*
X112031427Y-63716333D01*
X112029656Y-63710363D01*
X112027872Y-63704418D01*
X112026073Y-63698497D01*
X112024262Y-63692601D01*
X112022437Y-63686728D01*
X112020598Y-63680880D01*
X112018746Y-63675056D01*
X112016881Y-63669257D01*
X112015003Y-63663481D01*
X112013111Y-63657729D01*
X112011206Y-63652000D01*
X112009288Y-63646296D01*
X112007357Y-63640615D01*
X112005413Y-63634957D01*
X112003456Y-63629323D01*
X112001485Y-63623713D01*
X111999502Y-63618125D01*
X111997506Y-63612561D01*
X111995497Y-63607020D01*
X111993475Y-63601502D01*
X111991440Y-63596007D01*
X111989392Y-63590535D01*
X111987332Y-63585086D01*
X111985258Y-63579659D01*
X111983172Y-63574255D01*
X111981074Y-63568874D01*
X111978962Y-63563515D01*
X111976838Y-63558178D01*
X111974702Y-63552864D01*
X111972552Y-63547572D01*
X111970391Y-63542303D01*
X111968217Y-63537055D01*
X111966030Y-63531830D01*
X111963831Y-63526625D01*
X111961619Y-63521444D01*
X111959395Y-63516283D01*
X111957159Y-63511146D01*
X111954910Y-63506028D01*
X111952649Y-63500934D01*
X111950375Y-63495860D01*
X111948090Y-63490808D01*
X111945792Y-63485776D01*
X111943482Y-63480767D01*
X111941159Y-63475778D01*
X111938825Y-63470812D01*
X111936478Y-63465865D01*
X111934119Y-63460940D01*
X111931748Y-63456035D01*
X111929365Y-63451152D01*
X111926970Y-63446288D01*
X111924563Y-63441447D01*
X111922143Y-63436625D01*
X111919712Y-63431824D01*
X111917268Y-63427043D01*
X111914813Y-63422283D01*
X111912346Y-63417543D01*
X111909867Y-63412824D01*
X111907375Y-63408124D01*
X111904872Y-63403445D01*
X111902357Y-63398785D01*
X111899830Y-63394147D01*
X111897291Y-63389526D01*
X111894740Y-63384928D01*
X111892177Y-63380347D01*
X111889603Y-63375788D01*
X111887017Y-63371247D01*
X111884419Y-63366727D01*
X111881808Y-63362224D01*
X111879187Y-63357744D01*
X111876553Y-63353280D01*
X111873909Y-63348838D01*
X111871251Y-63344413D01*
X111868583Y-63340009D01*
X111865901Y-63335622D01*
X111863210Y-63331257D01*
X111860505Y-63326908D01*
X111857790Y-63322581D01*
X111855062Y-63318270D01*
X111852323Y-63313980D01*
X111849571Y-63309706D01*
X111846810Y-63305454D01*
X111841249Y-63297003D01*
X111835642Y-63288626D01*
X111829988Y-63280322D01*
X111824287Y-63272091D01*
X111818540Y-63263933D01*
X111812746Y-63255847D01*
X111806905Y-63247833D01*
X111801017Y-63239890D01*
X111795083Y-63232018D01*
X111789102Y-63224216D01*
X111783073Y-63216484D01*
X111776998Y-63208822D01*
X111770876Y-63201229D01*
X111764707Y-63193704D01*
X111758491Y-63186248D01*
X111752228Y-63178860D01*
X111745917Y-63171539D01*
X111739559Y-63164286D01*
X111733153Y-63157099D01*
X111726700Y-63149979D01*
X111720199Y-63142925D01*
X111713650Y-63135937D01*
X111707054Y-63129014D01*
X111700409Y-63122156D01*
X111693715Y-63115363D01*
X111686974Y-63108634D01*
X111680183Y-63101970D01*
X111673344Y-63095369D01*
X111666456Y-63088832D01*
X111659519Y-63082358D01*
X111652532Y-63075948D01*
X111645496Y-63069600D01*
X111638409Y-63063314D01*
X111631273Y-63057090D01*
X111624086Y-63050929D01*
X111616849Y-63044829D01*
X111609561Y-63038791D01*
X111602222Y-63032814D01*
X111594832Y-63026898D01*
X111587390Y-63021043D01*
X111579896Y-63015248D01*
X111572350Y-63009514D01*
X111564752Y-63003841D01*
X111557100Y-62998227D01*
X111549396Y-62992673D01*
X111541638Y-62987179D01*
X111533826Y-62981745D01*
X111525961Y-62976370D01*
X111518040Y-62971055D01*
X111510065Y-62965798D01*
X111502035Y-62960601D01*
X111493949Y-62955463D01*
X111485807Y-62950384D01*
X111477609Y-62945363D01*
X111469354Y-62940402D01*
X111461041Y-62935498D01*
X111452672Y-62930654D01*
X111444244Y-62925868D01*
X111435757Y-62921141D01*
X111427212Y-62916471D01*
X111418607Y-62911861D01*
X111409943Y-62907308D01*
X111401218Y-62902814D01*
X111392432Y-62898379D01*
X111383584Y-62894001D01*
X111374675Y-62889682D01*
X111365704Y-62885421D01*
X111356669Y-62881219D01*
X111347571Y-62877075D01*
X111338409Y-62872989D01*
X111329182Y-62868962D01*
X111319890Y-62864993D01*
X111310533Y-62861083D01*
X111301108Y-62857231D01*
X111291617Y-62853438D01*
X111282058Y-62849703D01*
X111272430Y-62846028D01*
X111262734Y-62842411D01*
X111252967Y-62838854D01*
X111243130Y-62835355D01*
X111233222Y-62831915D01*
X111223241Y-62828535D01*
X111213188Y-62825214D01*
X111203061Y-62821953D01*
X111192859Y-62818752D01*
X111182582Y-62815610D01*
X111172229Y-62812528D01*
X111161798Y-62809506D01*
X111151289Y-62806544D01*
X111140701Y-62803643D01*
X111130033Y-62800802D01*
X111119283Y-62798022D01*
X111108450Y-62795302D01*
X111097534Y-62792644D01*
X111086533Y-62790046D01*
X111075445Y-62787510D01*
X111064270Y-62785036D01*
X111053005Y-62782623D01*
X111041650Y-62780272D01*
X111030202Y-62777983D01*
X111018660Y-62775757D01*
X111007022Y-62773592D01*
X110995285Y-62771490D01*
X110983449Y-62769451D01*
X110971510Y-62767475D01*
X110959467Y-62765562D01*
X110947316Y-62763713D01*
X110935054Y-62761926D01*
X110922679Y-62760204D01*
X110910187Y-62758545D01*
X110897575Y-62756950D01*
X110884837Y-62755419D01*
X110871971Y-62753952D01*
X110858970Y-62752550D01*
X110845830Y-62751212D01*
X110832543Y-62749939D01*
X110819103Y-62748731D01*
X110805503Y-62747588D01*
X110791731Y-62746509D01*
X110777779Y-62745495D01*
X110763634Y-62744547D01*
X110749282Y-62743663D01*
X110734705Y-62742845D01*
X110719884Y-62742091D01*
X110704794Y-62741403D01*
X110689405Y-62740779D01*
X110673679Y-62740220D01*
X110657569Y-62739725D01*
X110641010Y-62739294D01*
X110623917Y-62738927D01*
X110606171Y-62738623D01*
X110587591Y-62738382D01*
X110567893Y-62738201D01*
X110546568Y-62738080D01*
X110522534Y-62738016D01*
X110490000Y-62738000D01*
D10*
X112136273Y-70599257D02*
X112131974Y-64516000D01*
D11*
X153416000Y-66040000D02*
X153416000Y-66040000D01*
X152400000Y-66040000D02*
X152400000Y-66040000D01*
X115570000Y-109093000D02*
X115570000Y-109093000D01*
X118364000Y-109220000D02*
X118364000Y-109220000D01*
D10*
%TO.C,mouse-bite-2mm-4mm*%
X112136273Y-74599257D02*
G75*
G02*
X114136273Y-74599257I1000000J0D01*
G01*
X114136273Y-70599257D02*
G75*
G02*
X112136273Y-70599257I-1000000J0D01*
G01*
X112157000Y-99155000D02*
G75*
G02*
X114157000Y-99155000I1000000J0D01*
G01*
X114157000Y-95155000D02*
G75*
G02*
X112157000Y-95155000I-1000000J0D01*
G01*
X112141130Y-86528997D02*
G75*
G02*
X114141130Y-86528997I1000000J0D01*
G01*
X114141130Y-82528997D02*
G75*
G02*
X112141130Y-82528997I-1000000J0D01*
G01*
%TD*%
M02*
