M48
; DRILL file {KiCad 9.0.3} date 2026-04-11T12:09:18+0530
; FORMAT={-:-/ absolute / metric / decimal}
; #@! TF.CreationDate,2026-04-11T12:09:18+05:30
; #@! TF.GenerationSoftware,Kicad,Pcbnew,9.0.3
; #@! TF.FileFunction,NonPlated,1,2,NPTH
FMAT,2
METRIC
; #@! TA.AperFunction,NonPlated,NPTH,ComponentDrill
T1C0.500
; #@! TA.AperFunction,NonPlated,NPTH,ComponentDrill
T2C2.200
%
G90
G05
T1
X112.336Y-71.799
X112.341Y-83.729
X112.346Y-72.599
X112.346Y-73.389
X112.351Y-84.529
X112.351Y-85.319
X112.357Y-96.355
X112.367Y-97.155
X112.367Y-97.945
X113.926Y-71.799
X113.931Y-83.729
X113.936Y-72.599
X113.936Y-73.399
X113.941Y-84.529
X113.941Y-85.329
X113.947Y-96.355
X113.957Y-97.155
X113.957Y-97.955
T2
X68.072Y-111.76
X103.378Y-68.072
X117.475Y-69.85
X151.384Y-69.723
M30
